<?xml version="1.0" encoding="UTF-8" standalone="no"?>
<svg
   xmlns:dc="http://purl.org/dc/elements/1.1/"
   xmlns:cc="http://creativecommons.org/ns#"
   xmlns:rdf="http://www.w3.org/1999/02/22-rdf-syntax-ns#"
   xmlns:svg="http://www.w3.org/2000/svg"
   xmlns="http://www.w3.org/2000/svg"
   xmlns:sodipodi="http://sodipodi.sourceforge.net/DTD/sodipodi-0.dtd"
   xmlns:inkscape="http://www.inkscape.org/namespaces/inkscape"
   width="167.56715"
   height="112.05826"
   preserveAspectRatio="xMinYMin meet"
   viewport="0 0 720 490"
   id="svg2"
   version="1.1"
   inkscape:version="0.48.5 r10040"
   sodipodi:docname="icon_arduino.pdf">
  <metadata
     id="metadata23">
    <rdf:RDF>
      <cc:Work
         rdf:about="">
        <dc:format>image/svg+xml</dc:format>
        <dc:type
           rdf:resource="http://purl.org/dc/dcmitype/StillImage" />
        <dc:title>Arduino Logo</dc:title>
      </cc:Work>
    </rdf:RDF>
  </metadata>
  <defs
     id="defs21" />
  <sodipodi:namedview
     pagecolor="#ffffff"
     bordercolor="#666666"
     borderopacity="1"
     objecttolerance="10"
     gridtolerance="10"
     guidetolerance="10"
     inkscape:pageopacity="0"
     inkscape:pageshadow="2"
     inkscape:window-width="1306"
     inkscape:window-height="892"
     id="namedview19"
     showgrid="false"
     fit-margin-top="0"
     fit-margin-left="0"
     fit-margin-right="0"
     fit-margin-bottom="0"
     inkscape:zoom="1.02"
     inkscape:cx="183.47446"
     inkscape:cy="210.26183"
     inkscape:window-x="0"
     inkscape:window-y="0"
     inkscape:window-maximized="0"
     inkscape:current-layer="svg2" />
  <title
     id="title4">Arduino Logo</title>
  <style
     type="text/css"
     id="style6">
.arduino {
  fill: none;
  stroke: #00979c;
  stroke-width: 1;
}

.text {
  fill: #00979c;
  stroke-width: 1;
}

</style>
  <path
     id="infinity"
     class="arduino"
     style="fill:#323232;fill-opacity:0;stroke:#323232;stroke-width:14.66172123;stroke-miterlimit:4;stroke-opacity:1;stroke-dasharray:none"
     d="M 41.09309,7.7868989 C 19.159291,6.0610589 0.72899107,31.670169 9.7972276,51.531119 c 8.7566304,21.51317 41.7594254,27.37688 57.4882274,10.12304 15.200431,-14.71055 21.072487,-37.27659 39.574645,-48.91262 18.92671,-12.75307006 49.42448,-0.71217 53.01001,21.97557 3.60399,21.72512 -20.08727,42.88734 -41.59353,36.44706 -15.8534,-3.53919 -27.260639,-16.89833 -33.751048,-30.94114 -7.964768,-13.4389 -18.377572,-27.75838 -34.620899,-31.5370901 -2.886421,-0.64653 -5.853597,-0.902 -8.811543,-0.89904 z"
     inkscape:connector-curvature="0" />
  <path
     id="minus"
     class="arduino"
     d="m 28.172261,38.552569 h 27.68749"
     style="fill:#323232;fill-opacity:0;stroke:#323232;stroke-width:6.21259356;stroke-miterlimit:4;stroke-opacity:1;stroke-dasharray:none"
     inkscape:connector-curvature="0" />
  <path
     id="plus"
     class="arduino"
     d="m 113.08056,38.552569 h 23.07291 m -11.76719,-11.39469 v 22.78937"
     style="fill:#323232;fill-opacity:0;stroke:#323232;stroke-width:7.9521203;stroke-miterlimit:4;stroke-opacity:1;stroke-dasharray:none"
     inkscape:connector-curvature="0" />
  <path
     id="A"
     class="arduino text"
     d="m 20.327472,111.47858 -1.476666,-5.24156 -9.3676006,0 -1.522812,5.23317 -5.0107724,0 7.947414,-26.510661 7.064368,0 7.947413,26.510661 z m -6.099178,-21.642601 -3.532183,12.332431 7.023295,0 z"
     style="fill:#323232;fill-opacity:0;stroke:#323232;stroke-width:0.24850376;stroke-miterlimit:4;stroke-opacity:1;stroke-dasharray:none"
     inkscape:connector-curvature="0" />
  <path
     id="R"
     class="arduino text"
     d="m 42.477464,111.47858 c -1.421291,-3.10847 -2.694916,-6.28759 -4.220035,-9.34593 -0.883692,-1.31266 -2.618775,-1.8277 -4.148509,-1.61576 -0.242265,0.90018 -0.05768,1.85961 -0.11075,2.78714 0,2.72561 0,5.44894 0,8.17455 -1.684322,0 -3.368644,0 -5.052967,0 0,-8.83772 0,-17.673171 0,-26.510891 3.795494,0.0866 7.618675,-0.22105 11.393402,0.2712 2.468802,0.39425 5.043738,1.81631 5.770535,4.33226 0.91138,2.68914 0.459151,6.15997 -1.98427,7.92842 -0.959833,0.71787 -2.108864,1.17594 -3.294812,1.35369 1.508969,0.59253 2.42727,1.971281 3.075619,3.368271 1.425906,2.71194 2.646463,5.53782 4.035452,8.25887 0.669114,0.65862 0.265338,1.19872 -0.539906,0.99818 -1.640484,0 -3.283275,0 -4.923759,0 z M 41.226912,92.775329 c 0.186891,-1.68641 -1.204405,-3.29534 -2.902571,-3.45259 -1.421292,-0.30537 -2.884114,-0.16636 -4.326171,-0.19826 0,2.49543 0,4.99087 0,7.48631 2.125015,-0.0228 4.603045,0.23017 6.264295,-1.35825 0.650656,-0.64722 0.982906,-1.57247 0.964447,-2.47721 z"
     style="fill:#323232;fill-opacity:0;stroke:#323232;stroke-width:0.24850376;stroke-miterlimit:4;stroke-opacity:1;stroke-dasharray:none"
     inkscape:connector-curvature="0" />
  <path
     id="D"
     class="arduino text"
     d="m 71.780057,97.804949 c 0,3.723791 -0.842161,7.782571 -3.705509,10.423861 -2.752598,2.56153 -6.70268,3.26572 -10.362043,3.16773 -2.067332,0 -4.134665,0 -6.201998,0 0,-8.83772 0,-17.673171 0,-26.510891 3.147145,0.0228 6.29429,-0.0501 9.441434,0.0479 3.124072,0.16636 6.446571,1.21695 8.384695,3.78759 1.977348,2.57293 2.431885,5.9412 2.443421,9.08385 z m -5.422133,0.32589 c -0.04384,-2.59343 -0.223807,-5.56517 -2.233458,-7.47948 -1.682015,-1.5793 -4.111592,-1.63399 -6.296596,-1.58842 -0.422235,0 -0.842161,0 -1.264396,0 0,6.05059 0,12.103441 0,18.154021 2.307291,0 4.815316,0.18004 6.78805,-1.23062 2.531098,-1.72972 2.997171,-5.04557 3.0064,-7.855501 z"
     style="fill:#323232;fill-opacity:0;stroke:#323232;stroke-width:0.24850376;stroke-miterlimit:4;stroke-opacity:1;stroke-dasharray:none"
     inkscape:connector-curvature="0" />
  <path
     id="U"
     class="arduino text"
     d="m 94.852965,101.67915 c 0.07383,3.20646 -1.010593,6.75249 -3.834717,8.60526 -3.246358,2.03054 -7.424862,2.01003 -10.975782,0.82954 -2.669536,-1.03692 -4.453072,-3.73062 -4.58228,-6.53144 -0.353016,-3.17912 -0.0623,-6.381021 -0.156896,-9.571541 0,-3.36143 0,-6.72286 0,-10.0843 1.684322,0 3.366337,0 5.05066,0 0.04615,6.30582 -0.09921,12.61392 0.08998,18.915191 0.173047,1.76617 1.407448,3.61667 3.315577,3.81038 1.93351,0.43072 4.450764,0.0228 5.362144,-1.93937 1.075197,-2.30857 0.576823,-4.90428 0.687572,-7.358701 0,-4.47583 0,-8.95166 0,-13.4275 1.684323,0 3.368645,0 5.052967,0 0,5.58112 0.04615,11.18731 0,16.752481 z"
     style="fill:#323232;fill-opacity:0;stroke:#323232;stroke-width:0.24850376;stroke-miterlimit:4;stroke-opacity:1;stroke-dasharray:none"
     inkscape:connector-curvature="0" />
  <path
     id="I"
     class="arduino text"
     d="m 99.698276,88.917089 0,-4.077 16.962694,0 0,4.077 -5.91435,0 0,18.316091 5.91435,0 0,4.11757 -16.962694,0 0,-4.11757 5.914354,0 0,-18.316091 z"
     style="fill:#323232;fill-opacity:0;stroke:#323232;stroke-width:0.24850376;stroke-miterlimit:4;stroke-opacity:1;stroke-dasharray:none"
     inkscape:connector-curvature="0" />
  <path
     id="N"
     class="arduino text"
     d="m 135.46128,111.47858 c -2.88642,-6.41065 -5.86975,-12.780291 -8.66618,-19.229681 0,6.41065 0,12.819031 0,19.229681 -1.53435,0 -3.06639,0 -4.60074,0 0,-8.83772 0,-17.673171 0,-26.510891 2.06733,0 4.13466,0 6.202,0 2.72952,6.03463 5.63209,11.99633 8.2301,18.085651 0.15228,0.67001 0.52376,1.03008 0.39686,0.13902 0,-6.075651 0,-12.149021 0,-18.224671 1.53204,0 3.06639,0 4.59843,0 0,8.83772 0,17.673171 0,26.510891 -2.05349,0 -4.10698,0 -6.16047,0 z"
     style="fill:#323232;fill-opacity:0;stroke:#323232;stroke-width:0.24850376;stroke-miterlimit:4;stroke-opacity:1;stroke-dasharray:none"
     inkscape:connector-curvature="0" />
  <path
     id="O"
     class="arduino text"
     d="m 166.14825,98.032839 c 0.0231,3.949401 -0.81678,8.252041 -3.77012,11.128061 -2.99947,2.89425 -7.76864,3.36143 -11.5849,1.94165 -3.21637,-1.21467 -5.08296,-4.43253 -5.73823,-7.62532 -0.70373,-3.536911 -0.73372,-7.249301 0.14305,-10.756591 0.83293,-3.25888 2.9741,-6.39014 6.28275,-7.56379 3.09177,-1.10529 6.7396,-0.98223 9.62602,0.64038 3.13561,1.84822 4.45999,5.51503 4.85223,8.9266 0.13382,1.09617 0.1892,2.20373 0.1892,3.30901 z m -5.33907,0.24385 c -0.0577,-2.60938 -0.13844,-5.46717 -1.71201,-7.68458 -1.41668,-1.83226 -4.26388,-2.09434 -6.23661,-1.04831 -2.18962,1.32862 -2.70645,4.08614 -2.90026,6.42205 -0.14536,2.99452 -0.18689,6.166801 1.12826,8.940271 0.78679,1.72516 2.75721,2.62762 4.61458,2.44758 1.91736,0 3.58553,-1.37192 4.2085,-3.11759 0.75448,-1.88696 0.87908,-3.95395 0.89754,-5.959421 z"
     style="fill:#323232;fill-opacity:0;stroke:#323232;stroke-width:0.24850376;stroke-miterlimit:4;stroke-opacity:1;stroke-dasharray:none"
     inkscape:connector-curvature="0" />
  <path
     id="TM"
     class="arduino text"
     d="m 157.01368,3.9981689 c 0,0.17798 0,0.3562 0,0.53418 0.39686,0 0.7914,0 1.18826,0 0,1.03031 0,2.06039 0,3.0907 0.20535,0 0.40839,0 0.61374,0 0,-1.03031 0,-2.06039 0,-3.0907 0.39916,0 0.79832,0 1.19748,0 0,-0.17798 0,-0.3562 0,-0.53418 -0.99906,0 -2.00042,0 -2.99948,0 z m 3.41018,0 c 0,1.20829 0,2.41659 0,3.62488 0.18689,0 0.37378,0 0.56067,0 0,-1.03031 0,-2.06039 0,-3.0907 0.32994,1.03031 0.65989,2.06039 0.98983,3.0907 0.18458,0 0.36917,0 0.55375,0 0.3161,-1.01345 0.62989,-2.02735 0.94599,-3.04079 0,1.01367 0,2.02712 0,3.04079 0.18458,0 0.36916,0 0.55375,0 0,-1.20829 0,-2.41659 0,-3.62488 -0.29303,0 -0.58605,0 -0.87908,0 -0.29995,0.9665 -0.6022,1.93208 -0.90215,2.89858 -0.30687,-0.9665 -0.61605,-1.93208 -0.92292,-2.89858 -0.29994,0 -0.59989,0 -0.89984,0 z"
     style="fill:#323232;fill-opacity:0;stroke:#323232;stroke-width:0.24850376;stroke-miterlimit:4;stroke-opacity:1;stroke-dasharray:none"
     inkscape:connector-curvature="0" />
  <path
     style="opacity:0.89259261;fill:#323232;fill-opacity:0;stroke:#323232;stroke-width:0.24850376;stroke-linejoin:round;stroke-miterlimit:4;stroke-opacity:1;stroke-dasharray:none;stroke-dashoffset:0"
     d="m 116.68032,77.429289 c -11.56761,-2.89883 -22.219124,-10.39967 -30.226888,-21.28588 -1.635324,-2.22316 -3.124235,-3.87213 -3.308687,-3.66438 -0.184447,0.20775 -1.587042,2.08114 -3.116868,4.16309 -4.134592,5.62675 -8.190151,10.00493 -12.153761,13.12057 -4.291533,3.37341 -7.767469,5.15484 -13.329004,6.83115 -3.801209,1.14572 -4.941527,1.26973 -11.639431,1.26573 -6.04857,-0.004 -8.104569,-0.18853 -11.088433,-0.99737 C 14.711332,72.225319 3.4033907,60.270679 1.219197,44.514259 -0.20857572,34.214539 3.9212405,22.454759 11.938327,13.991209 18.055733,7.5331289 23.860498,4.0069289 31.323603,2.2153089 c 4.338922,-1.04162 16.930023,-0.76014 21.402729,0.47846 10.139842,2.80797 20.4266,10.3793401 28.61228,21.0595001 1.298003,1.69355 2.435474,3.07918 2.52772,3.07918 0.09224,0 1.628735,-1.91633 3.414421,-4.25852 C 101.63553,3.7455589 118.95883,-2.7648011 138.32089,3.3922489 c 6.74831,2.14594 11.81928,5.19323 16.9595,10.1914601 4.94435,4.80777 7.62626,8.90952 9.54639,14.60039 4.64451,13.76535 0.35415,28.55279 -11.44075,39.43257 -10.43329,9.62381 -23.50963,13.11954 -36.70571,9.81262 z m 17.28058,-12.93522 c 10.86864,-3.37282 19.62225,-14.68953 19.60106,-25.34034 -0.0205,-10.31658 -7.79912,-19.86746 -19.15656,-23.52122 -3.88952,-1.25129 -11.95814,-1.69948 -15.77305,-0.87615 -6.44846,1.39168 -13.33398,6.2652 -19.401471,13.73218 -3.266199,4.01957 -7.461472,10.1995 -7.461472,10.99128 0,0.34336 0.925226,2.22789 2.056057,4.18786 6.473106,11.21926 15.643676,18.62419 26.432456,21.34334 4.16693,1.0502 9.27378,0.85755 13.70298,-0.51695 z m -83.869376,-0.13757 c 7.974661,-1.85832 15.24517,-8.49186 23.931541,-21.83488 l 2.107698,-3.23761 -0.842726,-1.54562 c -1.492308,-2.737 -6.898175,-9.54388 -9.982635,-12.56979 -7.824863,-7.67634 -15.065697,-10.84734 -24.814116,-10.86692 -7.599812,-0.0153 -12.782952,2.13857 -18.240943,7.57996 -3.597861,3.58691 -6.685585,9.07648 -7.630068,13.56525 -1.850221,8.79339 1.833478,18.22332 9.215528,23.59089 7.531511,5.47626 17.186508,7.4321 26.255721,5.31872 z"
     id="path3000"
     inkscape:connector-curvature="0" />
  <path
     style="opacity:0.89259261;fill:#323232;fill-opacity:0;stroke:#323232;stroke-width:0.24850376;stroke-linejoin:round;stroke-miterlimit:4;stroke-opacity:1;stroke-dasharray:none;stroke-dashoffset:0"
     d="m 28.533998,38.661679 0,-2.60243 13.6531,0 13.653098,0 0,2.60243 0,2.60244 -13.653098,0 -13.6531,0 0,-2.60244 z"
     id="path3002"
     inkscape:connector-curvature="0" />
  <path
     style="opacity:0.89259261;fill:#323232;fill-opacity:0;stroke:#323232;stroke-width:0.24850376;stroke-linejoin:round;stroke-miterlimit:4;stroke-opacity:1;stroke-dasharray:none;stroke-dashoffset:0"
     d="m 120.89144,45.877519 -0.13914,-3.90365 -3.71268,-0.1382 -3.71269,-0.13819 0,-3.29228 0,-3.29229 3.83245,0 3.83245,0 0,-3.78535 0,-3.78535 3.35339,0 3.35339,0 0,3.78535 0,3.78535 4.07198,0 4.07198,0 0,3.29305 0,3.29305 -3.95221,0.13743 -3.95222,0.13743 -0.13913,3.90365 -0.13914,3.90364 -3.31465,0 -3.31464,0 -0.13914,-3.90364 z"
     id="path3004"
     inkscape:connector-curvature="0" />
  <path
     style="opacity:0.89259261;fill:#5a5a5a;fill-opacity:1;stroke:#323232;stroke-width:0.24850376;stroke-linejoin:round;stroke-miterlimit:4;stroke-opacity:1;stroke-dasharray:none;stroke-dashoffset:0"
     d="m 122.429,98.258439 0,-13.03474 2.97081,0.14088 2.97081,0.14087 4.09527,9.09526 c 2.2524,5.0024 4.25695,9.101231 4.45456,9.108511 0.19761,0.007 0.35929,-4.138821 0.35929,-9.213561 l 0,-9.2268 2.15575,0 2.15575,0 0,13.01216 0,13.012151 -2.9941,-0.0147 -2.9941,-0.0147 -4.3115,-9.56696 -4.31151,-9.566971 -0.12968,9.581681 -0.12968,9.58168 -2.14584,0 -2.14583,0 0,-13.034731 z"
     id="path3006"
     inkscape:connector-curvature="0" />
  <path
     style="opacity:0.89259261;fill:#5a5a5a;fill-opacity:1;stroke:#323232;stroke-width:0.24850376;stroke-linejoin:round;stroke-miterlimit:4;stroke-opacity:1;stroke-dasharray:none;stroke-dashoffset:0"
     d="m 151.94838,111.18271 c -2.63693,-0.68922 -5.34456,-3.5331 -6.25876,-6.57371 -0.96234,-3.20072 -0.95268,-9.007611 0.0204,-12.275011 1.87112,-6.28272 8.7987,-9.35925 14.57708,-6.47367 6.65012,3.32091 7.6571,17.333051 1.66629,23.186481 -1.32519,1.2948 -5.26178,2.76409 -7.15531,2.67064 -0.54501,-0.0269 -1.82739,-0.26753 -2.84972,-0.53473 z m 6.5732,-4.6466 c 1.62273,-1.26075 2.35057,-4.00518 2.32178,-8.754571 -0.0299,-4.93598 -0.99173,-7.42226 -3.28756,-8.49831 -2.15982,-1.01231 -4.58276,-0.59814 -5.85635,1.00107 -1.59555,2.00349 -2.08975,4.28791 -1.87004,8.64424 0.22644,4.489781 1.21455,7.196601 2.92507,8.012871 1.75791,0.83889 4.40515,0.65285 5.7671,-0.4053 z"
     id="path3008"
     inkscape:connector-curvature="0" />
  <path
     style="opacity:0.89259261;fill:#5a5a5a;fill-opacity:1;stroke:#323232;stroke-width:0.24850376;stroke-linejoin:round;stroke-miterlimit:4;stroke-opacity:1;stroke-dasharray:none;stroke-dashoffset:0"
     d="m 99.913363,109.4005 0,-1.89268 2.874337,0 2.87433,0 0,-9.463391 0,-9.46338 -2.87433,0 -2.874337,0 0,-1.6561 0,-1.65609 8.143947,0 8.14396,0 0,1.65609 0,1.6561 -2.87434,0 -2.87434,0 0,9.46338 0,9.463391 2.87434,0 2.87434,0 0,1.89268 0,1.89267 -8.14396,0 -8.143947,0 0,-1.89267 z"
     id="path3010"
     inkscape:connector-curvature="0" />
  <path
     style="opacity:0.89259261;fill:#5a5a5a;fill-opacity:1;stroke:#323232;stroke-width:0.24850376;stroke-linejoin:round;stroke-miterlimit:4;stroke-opacity:1;stroke-dasharray:none;stroke-dashoffset:0"
     d="m 80.990644,111.08442 c -2.368805,-0.8628 -4.330946,-2.95368 -4.99785,-5.32577 -0.278273,-0.98978 -0.507154,-6.004891 -0.508624,-11.144701 l -0.0027,-9.34509 2.395281,0 2.39528,0 0,9.97295 0,9.972961 1.40032,1.38311 c 1.098233,1.08474 1.829592,1.38311 3.390243,1.38311 1.560649,0 2.292007,-0.29837 3.390243,-1.38311 l 1.400318,-1.38311 0,-9.972961 0,-9.97295 2.395279,0 2.395282,0 -0.0027,9.10851 c -0.0014,5.00968 -0.225328,9.900371 -0.497466,10.868201 -0.590507,2.10009 -2.447867,4.39674 -4.335471,5.36086 -2.069305,1.05693 -6.559699,1.30036 -8.81748,0.47799 z"
     id="path3012"
     inkscape:connector-curvature="0" />
  <path
     style="opacity:0.89259261;fill:#5a5a5a;fill-opacity:1;stroke:#323232;stroke-width:0.24850376;stroke-linejoin:round;stroke-miterlimit:4;stroke-opacity:1;stroke-dasharray:none;stroke-dashoffset:0"
     d="m 51.528691,98.340559 0,-13.0717 5.902302,0 c 5.488968,0 6.084441,0.0911 8.503245,1.30122 2.23568,1.11847 2.799782,1.69435 4.016786,4.10058 1.184669,2.3423 1.419321,3.38525 1.437168,6.38778 0.02796,4.703381 -0.408278,6.544041 -2.175473,9.179231 -2.313071,3.44918 -5.42323,4.71104 -12.24743,4.96904 l -5.436598,0.20555 0,-13.071701 z m 10.914706,8.226511 c 2.814909,-1.2619 3.911294,-3.67953 3.925514,-8.656131 0.01846,-6.45738 -1.539092,-8.48854 -6.731452,-8.77832 l -3.318204,-0.1852 0,9.2802 0,9.280201 2.035988,-0.0104 c 1.119792,-0.006 2.959462,-0.42438 4.088154,-0.93036 l 0,0 z"
     id="path3014"
     inkscape:connector-curvature="0" />
  <path
     style="opacity:0.89259261;fill:#5a5a5a;fill-opacity:1;stroke:#323232;stroke-width:0.24850376;stroke-linejoin:round;stroke-miterlimit:4;stroke-opacity:1;stroke-dasharray:none;stroke-dashoffset:0"
     d="m 29.013054,98.281019 0,-13.01216 5.647166,0 c 4.903618,0 5.928607,0.14018 7.784663,1.06463 5.108508,2.54442 5.056137,9.41429 -0.08911,11.68958 -1.828415,0.80855 -1.898209,0.90648 -0.9887,1.38725 0.538224,0.28451 2.298574,3.074541 3.911889,6.200071 l 2.933303,5.68278 -2.78517,0 -2.78517,0 -2.093513,-4.75304 c -2.192552,-4.97789 -3.210026,-6.12985 -5.41422,-6.12985 l -1.330575,0 0,5.44145 0,5.44144 -2.395282,0 -2.395279,0 0,-13.012151 z m 11.187866,-2.81642 c 1.655223,-1.51516 1.692836,-3.66754 0.09173,-5.24897 -0.965728,-0.95386 -1.65062,-1.16142 -3.832449,-1.16142 l -2.656585,0 0,3.78536 0,3.78535 2.564856,0 c 2.058551,0 2.815079,-0.22905 3.832449,-1.16032 z"
     id="path3016"
     inkscape:connector-curvature="0" />
  <path
     style="opacity:0.89259261;fill:#5a5a5a;fill-opacity:1;stroke:#323232;stroke-width:0.24850376;stroke-linejoin:round;stroke-miterlimit:4;stroke-opacity:1;stroke-dasharray:none;stroke-dashoffset:0"
     d="m 4.8625745,105.97002 c 0.8941744,-2.92774 2.642003,-8.783211 3.8840633,-13.012161 l 2.2582922,-7.689 3.410261,0 3.41026,0 3.207981,10.7646 c 1.764389,5.920531 3.516775,11.776001 3.89419,13.012161 l 0.686211,2.24755 -2.550541,0 -2.550541,0 -0.699659,-2.48414 -0.69966,-2.48414 -4.98635,0 -4.9863501,0 -0.6723782,2.48414 -0.6723778,2.48414 -2.2795865,0 -2.2795864,0 1.6257715,-5.32315 z M 17.739962,101.23833 C 16.38691,95.962809 14.210069,89.429899 13.99541,90.000549 c -0.146839,0.39037 -0.934034,3.05195 -1.749322,5.91462 -0.815287,2.86268 -1.573198,5.471021 -1.684247,5.796321 -0.150356,0.44045 0.775089,0.59147 3.624634,0.59147 3.729799,0 3.819638,-0.0269 3.553487,-1.06463 z"
     id="path3018"
     inkscape:connector-curvature="0" />
  <path
     style="opacity:0.89259261;fill:#666666;fill-opacity:0.96638656;stroke:#000000;stroke-width:1;stroke-linejoin:round;stroke-miterlimit:4;stroke-opacity:1;stroke-dasharray:0.99999999, 2.00000001;stroke-dashoffset:0"
     d=""
     id="path3020"
     inkscape:connector-curvature="0" />
  <path
     style="opacity:0.89259261;fill:#666666;fill-opacity:0.96638656;stroke:#000000;stroke-width:1;stroke-linejoin:round;stroke-miterlimit:4;stroke-opacity:1;stroke-dasharray:0.99999999, 2.00000001;stroke-dashoffset:0"
     d=""
     id="path3022"
     inkscape:connector-curvature="0" />
  <path
     style="opacity:0.89259261;fill:#323232;fill-opacity:0;stroke:#323232;stroke-width:0.24850376;stroke-linejoin:round;stroke-miterlimit:4;stroke-opacity:1;stroke-dasharray:none;stroke-dashoffset:0"
     d="m 158.85538,6.1332589 c -4.6e-4,-0.82809 0.0281,-1.18794 0.0636,-0.79968 0.0355,0.38827 0.0359,1.0658 9.2e-4,1.50562 -0.035,0.43982 -0.0641,0.12215 -0.0646,-0.70594 z"
     id="path3024"
     inkscape:connector-curvature="0" />
  <path
     style="opacity:0.89259261;fill:#323232;fill-opacity:0;stroke:#323232;stroke-width:0.24850376;stroke-linejoin:round;stroke-miterlimit:4;stroke-opacity:1;stroke-dasharray:none;stroke-dashoffset:0"
     d="m 160.85483,6.0914389 c -0.0149,-0.85109 0.0301,-1.54758 0.0999,-1.54774 0.0699,-1.7e-4 0.1058,0.47033 0.0799,1.04556 -0.0851,1.8881 -0.15223,2.07547 -0.17979,0.50218 z"
     id="path3026"
     inkscape:connector-curvature="0" />
  <path
     style="opacity:0.89259261;fill:#323232;fill-opacity:0;stroke:#323232;stroke-width:0.24850376;stroke-linejoin:round;stroke-miterlimit:4;stroke-opacity:1;stroke-dasharray:none;stroke-dashoffset:0"
     d="m 160.31961,5.8717289 0,-1.8508 0.55046,0.0524 c 0.30275,0.0288 0.55685,0.12771 0.56465,0.21972 0.008,0.092 0.0934,0.35549 0.19014,0.58551 0.2074,0.49302 0.46597,1.53804 0.42277,1.70871 -0.0166,0.0657 0.0808,0.0774 0.21644,0.026 0.13567,-0.0514 0.24005,-0.14282 0.23196,-0.2031 -0.008,-0.0603 7e-4,-0.14724 0.0193,-0.19324 0.0187,-0.046 0.0707,-0.30761 0.11565,-0.58135 0.0449,-0.27374 0.1623,-0.59368 0.26087,-0.71098 0.0986,-0.11731 0.12243,-0.21329 0.053,-0.21329 -0.0694,0 -0.0413,-0.10102 0.0625,-0.2245 0.10375,-0.12348 0.13849,-0.27404 0.0772,-0.33458 -0.0613,-0.0606 0.11085,-0.10997 0.38255,-0.10983 l 0.49401,2.5e-4 0,1.84009 c 0,1.64099 -0.0321,1.84007 -0.29641,1.83994 -0.25378,-1.1e-4 -0.29832,-0.1745 -0.30977,-1.21299 -0.007,-0.66707 -0.0564,-1.09994 -0.109,-0.96192 -0.0526,0.13801 -0.17256,0.43914 -0.26658,0.66916 -0.094,0.23002 -0.19828,0.56879 -0.23171,0.75281 -0.0334,0.18402 -0.0978,0.43424 -0.14297,0.55606 -0.10021,0.27 -0.66769,0.18999 -0.6972,-0.0983 -0.0117,-0.11376 -0.0402,-0.24447 -0.0635,-0.29047 -0.0233,-0.046 -0.0583,-0.14011 -0.0777,-0.20912 -0.0194,-0.069 -0.12125,-0.32959 -0.22622,-0.57909 -0.19193,-0.45616 -0.33379,-1.12408 -0.35963,-1.69327 -0.008,-0.16868 -0.1092,-0.27533 -0.22565,-0.237 -0.24816,0.0817 -0.34627,2.75193 -0.10649,2.89831 0.26877,0.16406 0.15566,0.40569 -0.18991,0.40569 -0.31833,0 -0.33874,-0.11153 -0.33874,-1.8508 z"
     id="path3028"
     inkscape:connector-curvature="0" />
  <path
     style="opacity:0.86000001;fill:#323232;fill-opacity:0;stroke:#323232;stroke-width:0.24850376;stroke-linejoin:round;stroke-miterlimit:4;stroke-opacity:1;stroke-dasharray:none;stroke-dashoffset:0"
     d="m 158.11778,6.0277289 0,-1.6948 -0.59281,0.095 c -0.44711,0.0717 -0.5928,0.0359 -0.5928,-0.1454 0,-0.19122 0.31193,-0.24042 1.52435,-0.24042 1.1128,0 1.52435,0.0569 1.52435,0.21073 0,0.12542 -0.21712,0.21008 -0.53633,0.20911 -0.66872,-0.002 -0.80363,0.384 -0.72433,2.07248 0.0509,1.08387 0.0269,1.18807 -0.27332,1.18807 -0.30425,0 -0.32911,-0.12805 -0.32911,-1.69479 z"
     id="path3030"
     inkscape:connector-curvature="0" />
  <path
     style="opacity:0.86000001;fill:#323232;fill-opacity:0;stroke:#323232;stroke-width:59;stroke-linejoin:round;stroke-miterlimit:4;stroke-opacity:1;stroke-dasharray:none;stroke-dashoffset:0"
     d=""
     id="path3802"
     inkscape:connector-curvature="0" />
</svg>
