<?xml version="1.0" encoding="utf-8" standalone="no"?>
<!DOCTYPE svg PUBLIC "-//W3C//DTD SVG 1.1//EN"
  "http://www.w3.org/Graphics/SVG/1.1/DTD/svg11.dtd">
<!-- Created with matplotlib (https://matplotlib.org/) -->
<svg height="216pt" version="1.1" viewBox="0 0 864 216" width="864pt" xmlns="http://www.w3.org/2000/svg" xmlns:xlink="http://www.w3.org/1999/xlink">
 <defs>
  <style type="text/css">
*{stroke-linecap:butt;stroke-linejoin:round;}
  </style>
 </defs>
 <g id="figure_1">
  <g id="patch_1">
   <path d="M 0 216 
L 864 216 
L 864 0 
L 0 0 
z
" style="fill:#ffffff;"/>
  </g>
  <g id="axes_1">
   <g id="patch_2">
    <path d="M 108 189 
L 777.6 189 
L 777.6 25.92 
L 108 25.92 
z
" style="fill:#ffffff;"/>
   </g>
   <g id="PolyCollection_1">
    <path clip-path="url(#pecdf7c32a6)" d="M 117.430986 172.692 
L 117.430986 189 
L 122.146479 189 
L 126.861972 189 
L 131.577465 189 
L 136.292958 189 
L 141.008451 189 
L 145.723944 189 
L 150.439437 189 
L 155.15493 189 
L 159.870423 189 
L 164.585915 189 
L 169.301408 189 
L 174.016901 189 
L 178.732394 189 
L 183.447887 189 
L 188.16338 189 
L 192.878873 189 
L 197.594366 189 
L 202.309859 189 
L 207.025352 189 
L 211.740845 189 
L 216.456338 189 
L 221.171831 189 
L 225.887324 189 
L 230.602817 189 
L 235.31831 189 
L 240.033803 189 
L 244.749296 189 
L 249.464789 189 
L 254.180282 189 
L 258.895775 189 
L 263.611268 189 
L 268.326761 189 
L 273.042254 189 
L 277.757746 189 
L 282.473239 189 
L 287.188732 189 
L 291.904225 189 
L 296.619718 189 
L 301.335211 189 
L 306.050704 189 
L 310.766197 189 
L 315.48169 189 
L 320.197183 189 
L 324.912676 189 
L 329.628169 189 
L 334.343662 189 
L 339.059155 189 
L 343.774648 189 
L 348.490141 189 
L 353.205634 189 
L 357.921127 189 
L 362.63662 189 
L 367.352113 189 
L 372.067606 189 
L 376.783099 189 
L 381.498592 189 
L 386.214085 189 
L 390.929577 189 
L 395.64507 189 
L 400.360563 189 
L 405.076056 189 
L 409.791549 189 
L 414.507042 189 
L 419.222535 189 
L 423.938028 189 
L 428.653521 189 
L 433.369014 189 
L 438.084507 189 
L 442.8 189 
L 447.515493 189 
L 452.230986 189 
L 456.946479 189 
L 461.661972 189 
L 466.377465 189 
L 471.092958 189 
L 475.808451 189 
L 480.523944 189 
L 485.239437 189 
L 489.95493 189 
L 494.670423 189 
L 499.385915 189 
L 504.101408 189 
L 508.816901 189 
L 513.532394 189 
L 518.247887 189 
L 522.96338 189 
L 527.678873 189 
L 532.394366 189 
L 537.109859 189 
L 541.825352 189 
L 546.540845 189 
L 551.256338 189 
L 555.971831 189 
L 560.687324 189 
L 565.402817 189 
L 570.11831 189 
L 574.833803 189 
L 579.549296 189 
L 584.264789 189 
L 584.264789 164.538 
L 584.264789 164.538 
L 579.549296 179.58178 
L 574.833803 173.943081 
L 570.11831 179.396475 
L 565.402817 166.597353 
L 560.687324 172.698157 
L 555.971831 167.010864 
L 551.256338 179.831383 
L 546.540845 173.948968 
L 541.825352 179.036722 
L 537.109859 163.762653 
L 532.394366 165.304197 
L 527.678873 155.194794 
L 522.96338 166.443053 
L 518.247887 162.863801 
L 513.532394 172.63668 
L 508.816901 161.627503 
L 504.101408 165.143192 
L 499.385915 155.178458 
L 494.670423 166.935926 
L 489.95493 166.083235 
L 485.239437 180.527756 
L 480.523944 173.765146 
L 475.808451 178.469811 
L 471.092958 165.859327 
L 466.377465 172.845152 
L 461.661972 167.905756 
L 456.946479 180.620075 
L 452.230986 173.787967 
L 447.515493 177.81966 
L 442.8 160.489804 
L 438.084507 157.105285 
L 433.369014 143.245957 
L 428.653521 151.507287 
L 423.938028 145.576074 
L 419.222535 154.159876 
L 414.507042 144.009518 
L 409.791549 150.942066 
L 405.076056 146.536082 
L 400.360563 164.756247 
L 395.64507 167.585078 
L 390.929577 181.263524 
L 386.214085 173.379965 
L 381.498592 177.501213 
L 376.783099 165.264413 
L 372.067606 173.182399 
L 367.352113 168.860084 
L 362.63662 181.270659 
L 357.921127 173.393537 
L 353.205634 176.460542 
L 348.490141 160.769458 
L 343.774648 163.836463 
L 339.059155 155.959341 
L 334.343662 168.369916 
L 329.628169 164.047601 
L 324.912676 171.965587 
L 320.197183 159.728787 
L 315.48169 163.850035 
L 310.766197 155.966476 
L 306.050704 169.644922 
L 301.335211 169.001655 
L 296.619718 181.773909 
L 291.904225 172.810747 
L 287.188732 176.531919 
L 282.473239 164.836667 
L 277.757746 173.696327 
L 273.042254 169.834178 
L 268.326761 181.751165 
L 263.611268 172.769043 
L 258.895775 174.996251 
L 254.180282 156.715722 
L 249.464789 157.159245 
L 244.749296 147.366352 
L 240.033803 158.042929 
L 235.31831 152.192317 
L 230.602817 159.484446 
L 225.887324 148.367197 
L 221.171831 155.602919 
L 216.456338 152.15644 
L 211.740845 170.371027 
L 207.025352 170.294074 
L 202.309859 182.051542 
L 197.594366 172.086808 
L 192.878873 175.602497 
L 188.16338 164.59332 
L 183.447887 174.366199 
L 178.732394 170.786947 
L 174.016901 182.035206 
L 169.301408 171.925803 
L 164.585915 173.467347 
L 159.870423 158.193278 
L 155.15493 163.281032 
L 150.439437 157.398617 
L 145.723944 170.219136 
L 141.008451 164.531843 
L 136.292958 170.632647 
L 131.577465 157.833525 
L 126.861972 163.286919 
L 122.146479 157.64822 
L 117.430986 172.692 
z
" style="fill:url(#h1324f35e55);stroke:#000000;stroke-width:0.1;"/>
   </g>
   <g id="line2d_1">
    <path clip-path="url(#pecdf7c32a6)" d="M 117.430986 172.692 
L 122.146479 157.64822 
L 126.861972 163.286919 
L 131.577465 157.833525 
L 136.292958 170.632647 
L 141.008451 164.531843 
L 145.723944 170.219136 
L 150.439437 157.398617 
L 155.15493 163.281032 
L 159.870423 158.193278 
L 164.585915 173.467347 
L 169.301408 171.925803 
L 174.016901 182.035206 
L 178.732394 170.786947 
L 183.447887 174.366199 
L 188.16338 164.59332 
L 192.878873 175.602497 
L 197.594366 172.086808 
L 202.309859 182.051542 
L 207.025352 170.294074 
L 211.740845 170.371027 
L 216.456338 152.15644 
L 221.171831 155.602919 
L 225.887324 148.367197 
L 230.602817 159.484446 
L 235.31831 152.192317 
L 240.033803 158.042929 
L 244.749296 147.366352 
L 249.464789 157.159245 
L 254.180282 156.715722 
L 258.895775 174.996251 
L 263.611268 172.769043 
L 268.326761 181.751165 
L 273.042254 169.834178 
L 277.757746 173.696327 
L 282.473239 164.836667 
L 287.188732 176.531919 
L 291.904225 172.810747 
L 296.619718 181.773909 
L 301.335211 169.001655 
L 306.050704 169.644922 
L 310.766197 155.966476 
L 315.48169 163.850035 
L 320.197183 159.728787 
L 324.912676 171.965587 
L 329.628169 164.047601 
L 334.343662 168.369916 
L 339.059155 155.959341 
L 343.774648 163.836463 
L 348.490141 160.769458 
L 353.205634 176.460542 
L 357.921127 173.393537 
L 362.63662 181.270659 
L 367.352113 168.860084 
L 372.067606 173.182399 
L 376.783099 165.264413 
L 381.498592 177.501213 
L 386.214085 173.379965 
L 390.929577 181.263524 
L 395.64507 167.585078 
L 400.360563 164.756247 
L 405.076056 146.536082 
L 409.791549 150.942066 
L 414.507042 144.009518 
L 419.222535 154.159876 
L 423.938028 145.576074 
L 428.653521 151.507287 
L 433.369014 143.245957 
L 438.084507 157.105285 
L 442.8 160.489804 
L 447.515493 177.81966 
L 452.230986 173.787967 
L 456.946479 180.620075 
L 461.661972 167.905756 
L 466.377465 172.845152 
L 471.092958 165.859327 
L 475.808451 178.469811 
L 480.523944 173.765146 
L 485.239437 180.527756 
L 489.95493 166.083235 
L 494.670423 166.935926 
L 499.385915 155.178458 
L 504.101408 165.143192 
L 508.816901 161.627503 
L 513.532394 172.63668 
L 518.247887 162.863801 
L 522.96338 166.443053 
L 527.678873 155.194794 
L 532.394366 165.304197 
L 537.109859 163.762653 
L 541.825352 179.036722 
L 546.540845 173.948968 
L 551.256338 179.831383 
L 555.971831 167.010864 
L 560.687324 172.698157 
L 565.402817 166.597353 
L 570.11831 179.396475 
L 574.833803 173.943081 
L 579.549296 179.58178 
L 584.264789 164.538 
" style="fill:none;stroke:#000000;stroke-linecap:square;stroke-width:1.5;"/>
    <defs>
     <path d="M 0 1.5 
C 0.397805 1.5 0.77937 1.341951 1.06066 1.06066 
C 1.341951 0.77937 1.5 0.397805 1.5 0 
C 1.5 -0.397805 1.341951 -0.77937 1.06066 -1.06066 
C 0.77937 -1.341951 0.397805 -1.5 0 -1.5 
C -0.397805 -1.5 -0.77937 -1.341951 -1.06066 -1.06066 
C -1.341951 -0.77937 -1.5 -0.397805 -1.5 0 
C -1.5 0.397805 -1.341951 0.77937 -1.06066 1.06066 
C -0.77937 1.341951 -0.397805 1.5 0 1.5 
z
" id="m1a5756d407" style="stroke:#000000;"/>
    </defs>
    <g clip-path="url(#pecdf7c32a6)">
     <use style="stroke:#000000;" x="117.430986" xlink:href="#m1a5756d407" y="172.692"/>
     <use style="stroke:#000000;" x="122.146479" xlink:href="#m1a5756d407" y="157.64822"/>
     <use style="stroke:#000000;" x="126.861972" xlink:href="#m1a5756d407" y="163.286919"/>
     <use style="stroke:#000000;" x="131.577465" xlink:href="#m1a5756d407" y="157.833525"/>
     <use style="stroke:#000000;" x="136.292958" xlink:href="#m1a5756d407" y="170.632647"/>
     <use style="stroke:#000000;" x="141.008451" xlink:href="#m1a5756d407" y="164.531843"/>
     <use style="stroke:#000000;" x="145.723944" xlink:href="#m1a5756d407" y="170.219136"/>
     <use style="stroke:#000000;" x="150.439437" xlink:href="#m1a5756d407" y="157.398617"/>
     <use style="stroke:#000000;" x="155.15493" xlink:href="#m1a5756d407" y="163.281032"/>
     <use style="stroke:#000000;" x="159.870423" xlink:href="#m1a5756d407" y="158.193278"/>
     <use style="stroke:#000000;" x="164.585915" xlink:href="#m1a5756d407" y="173.467347"/>
     <use style="stroke:#000000;" x="169.301408" xlink:href="#m1a5756d407" y="171.925803"/>
     <use style="stroke:#000000;" x="174.016901" xlink:href="#m1a5756d407" y="182.035206"/>
     <use style="stroke:#000000;" x="178.732394" xlink:href="#m1a5756d407" y="170.786947"/>
     <use style="stroke:#000000;" x="183.447887" xlink:href="#m1a5756d407" y="174.366199"/>
     <use style="stroke:#000000;" x="188.16338" xlink:href="#m1a5756d407" y="164.59332"/>
     <use style="stroke:#000000;" x="192.878873" xlink:href="#m1a5756d407" y="175.602497"/>
     <use style="stroke:#000000;" x="197.594366" xlink:href="#m1a5756d407" y="172.086808"/>
     <use style="stroke:#000000;" x="202.309859" xlink:href="#m1a5756d407" y="182.051542"/>
     <use style="stroke:#000000;" x="207.025352" xlink:href="#m1a5756d407" y="170.294074"/>
     <use style="stroke:#000000;" x="211.740845" xlink:href="#m1a5756d407" y="170.371027"/>
     <use style="stroke:#000000;" x="216.456338" xlink:href="#m1a5756d407" y="152.15644"/>
     <use style="stroke:#000000;" x="221.171831" xlink:href="#m1a5756d407" y="155.602919"/>
     <use style="stroke:#000000;" x="225.887324" xlink:href="#m1a5756d407" y="148.367197"/>
     <use style="stroke:#000000;" x="230.602817" xlink:href="#m1a5756d407" y="159.484446"/>
     <use style="stroke:#000000;" x="235.31831" xlink:href="#m1a5756d407" y="152.192317"/>
     <use style="stroke:#000000;" x="240.033803" xlink:href="#m1a5756d407" y="158.042929"/>
     <use style="stroke:#000000;" x="244.749296" xlink:href="#m1a5756d407" y="147.366352"/>
     <use style="stroke:#000000;" x="249.464789" xlink:href="#m1a5756d407" y="157.159245"/>
     <use style="stroke:#000000;" x="254.180282" xlink:href="#m1a5756d407" y="156.715722"/>
     <use style="stroke:#000000;" x="258.895775" xlink:href="#m1a5756d407" y="174.996251"/>
     <use style="stroke:#000000;" x="263.611268" xlink:href="#m1a5756d407" y="172.769043"/>
     <use style="stroke:#000000;" x="268.326761" xlink:href="#m1a5756d407" y="181.751165"/>
     <use style="stroke:#000000;" x="273.042254" xlink:href="#m1a5756d407" y="169.834178"/>
     <use style="stroke:#000000;" x="277.757746" xlink:href="#m1a5756d407" y="173.696327"/>
     <use style="stroke:#000000;" x="282.473239" xlink:href="#m1a5756d407" y="164.836667"/>
     <use style="stroke:#000000;" x="287.188732" xlink:href="#m1a5756d407" y="176.531919"/>
     <use style="stroke:#000000;" x="291.904225" xlink:href="#m1a5756d407" y="172.810747"/>
     <use style="stroke:#000000;" x="296.619718" xlink:href="#m1a5756d407" y="181.773909"/>
     <use style="stroke:#000000;" x="301.335211" xlink:href="#m1a5756d407" y="169.001655"/>
     <use style="stroke:#000000;" x="306.050704" xlink:href="#m1a5756d407" y="169.644922"/>
     <use style="stroke:#000000;" x="310.766197" xlink:href="#m1a5756d407" y="155.966476"/>
     <use style="stroke:#000000;" x="315.48169" xlink:href="#m1a5756d407" y="163.850035"/>
     <use style="stroke:#000000;" x="320.197183" xlink:href="#m1a5756d407" y="159.728787"/>
     <use style="stroke:#000000;" x="324.912676" xlink:href="#m1a5756d407" y="171.965587"/>
     <use style="stroke:#000000;" x="329.628169" xlink:href="#m1a5756d407" y="164.047601"/>
     <use style="stroke:#000000;" x="334.343662" xlink:href="#m1a5756d407" y="168.369916"/>
     <use style="stroke:#000000;" x="339.059155" xlink:href="#m1a5756d407" y="155.959341"/>
     <use style="stroke:#000000;" x="343.774648" xlink:href="#m1a5756d407" y="163.836463"/>
     <use style="stroke:#000000;" x="348.490141" xlink:href="#m1a5756d407" y="160.769458"/>
     <use style="stroke:#000000;" x="353.205634" xlink:href="#m1a5756d407" y="176.460542"/>
     <use style="stroke:#000000;" x="357.921127" xlink:href="#m1a5756d407" y="173.393537"/>
     <use style="stroke:#000000;" x="362.63662" xlink:href="#m1a5756d407" y="181.270659"/>
     <use style="stroke:#000000;" x="367.352113" xlink:href="#m1a5756d407" y="168.860084"/>
     <use style="stroke:#000000;" x="372.067606" xlink:href="#m1a5756d407" y="173.182399"/>
     <use style="stroke:#000000;" x="376.783099" xlink:href="#m1a5756d407" y="165.264413"/>
     <use style="stroke:#000000;" x="381.498592" xlink:href="#m1a5756d407" y="177.501213"/>
     <use style="stroke:#000000;" x="386.214085" xlink:href="#m1a5756d407" y="173.379965"/>
     <use style="stroke:#000000;" x="390.929577" xlink:href="#m1a5756d407" y="181.263524"/>
     <use style="stroke:#000000;" x="395.64507" xlink:href="#m1a5756d407" y="167.585078"/>
     <use style="stroke:#000000;" x="400.360563" xlink:href="#m1a5756d407" y="164.756247"/>
     <use style="stroke:#000000;" x="405.076056" xlink:href="#m1a5756d407" y="146.536082"/>
     <use style="stroke:#000000;" x="409.791549" xlink:href="#m1a5756d407" y="150.942066"/>
     <use style="stroke:#000000;" x="414.507042" xlink:href="#m1a5756d407" y="144.009518"/>
     <use style="stroke:#000000;" x="419.222535" xlink:href="#m1a5756d407" y="154.159876"/>
     <use style="stroke:#000000;" x="423.938028" xlink:href="#m1a5756d407" y="145.576074"/>
     <use style="stroke:#000000;" x="428.653521" xlink:href="#m1a5756d407" y="151.507287"/>
     <use style="stroke:#000000;" x="433.369014" xlink:href="#m1a5756d407" y="143.245957"/>
     <use style="stroke:#000000;" x="438.084507" xlink:href="#m1a5756d407" y="157.105285"/>
     <use style="stroke:#000000;" x="442.8" xlink:href="#m1a5756d407" y="160.489804"/>
     <use style="stroke:#000000;" x="447.515493" xlink:href="#m1a5756d407" y="177.81966"/>
     <use style="stroke:#000000;" x="452.230986" xlink:href="#m1a5756d407" y="173.787967"/>
     <use style="stroke:#000000;" x="456.946479" xlink:href="#m1a5756d407" y="180.620075"/>
     <use style="stroke:#000000;" x="461.661972" xlink:href="#m1a5756d407" y="167.905756"/>
     <use style="stroke:#000000;" x="466.377465" xlink:href="#m1a5756d407" y="172.845152"/>
     <use style="stroke:#000000;" x="471.092958" xlink:href="#m1a5756d407" y="165.859327"/>
     <use style="stroke:#000000;" x="475.808451" xlink:href="#m1a5756d407" y="178.469811"/>
     <use style="stroke:#000000;" x="480.523944" xlink:href="#m1a5756d407" y="173.765146"/>
     <use style="stroke:#000000;" x="485.239437" xlink:href="#m1a5756d407" y="180.527756"/>
     <use style="stroke:#000000;" x="489.95493" xlink:href="#m1a5756d407" y="166.083235"/>
     <use style="stroke:#000000;" x="494.670423" xlink:href="#m1a5756d407" y="166.935926"/>
     <use style="stroke:#000000;" x="499.385915" xlink:href="#m1a5756d407" y="155.178458"/>
     <use style="stroke:#000000;" x="504.101408" xlink:href="#m1a5756d407" y="165.143192"/>
     <use style="stroke:#000000;" x="508.816901" xlink:href="#m1a5756d407" y="161.627503"/>
     <use style="stroke:#000000;" x="513.532394" xlink:href="#m1a5756d407" y="172.63668"/>
     <use style="stroke:#000000;" x="518.247887" xlink:href="#m1a5756d407" y="162.863801"/>
     <use style="stroke:#000000;" x="522.96338" xlink:href="#m1a5756d407" y="166.443053"/>
     <use style="stroke:#000000;" x="527.678873" xlink:href="#m1a5756d407" y="155.194794"/>
     <use style="stroke:#000000;" x="532.394366" xlink:href="#m1a5756d407" y="165.304197"/>
     <use style="stroke:#000000;" x="537.109859" xlink:href="#m1a5756d407" y="163.762653"/>
     <use style="stroke:#000000;" x="541.825352" xlink:href="#m1a5756d407" y="179.036722"/>
     <use style="stroke:#000000;" x="546.540845" xlink:href="#m1a5756d407" y="173.948968"/>
     <use style="stroke:#000000;" x="551.256338" xlink:href="#m1a5756d407" y="179.831383"/>
     <use style="stroke:#000000;" x="555.971831" xlink:href="#m1a5756d407" y="167.010864"/>
     <use style="stroke:#000000;" x="560.687324" xlink:href="#m1a5756d407" y="172.698157"/>
     <use style="stroke:#000000;" x="565.402817" xlink:href="#m1a5756d407" y="166.597353"/>
     <use style="stroke:#000000;" x="570.11831" xlink:href="#m1a5756d407" y="179.396475"/>
     <use style="stroke:#000000;" x="574.833803" xlink:href="#m1a5756d407" y="173.943081"/>
     <use style="stroke:#000000;" x="579.549296" xlink:href="#m1a5756d407" y="179.58178"/>
     <use style="stroke:#000000;" x="584.264789" xlink:href="#m1a5756d407" y="164.538"/>
    </g>
   </g>
   <g id="line2d_2">
    <path clip-path="url(#pecdf7c32a6)" d="M 117.430986 131.922 
L 122.146479 123.768 
L 126.861972 131.922 
L 131.577465 123.768 
L 136.292958 131.922 
L 141.008451 123.768 
L 145.723944 131.922 
L 150.439437 123.768 
L 155.15493 131.922 
L 159.870423 123.768 
L 164.585915 131.922 
L 169.301408 123.768 
L 174.016901 131.922 
L 178.732394 123.768 
L 183.447887 131.922 
L 188.16338 123.768 
L 192.878873 131.922 
L 197.594366 123.768 
L 202.309859 131.922 
L 207.025352 123.768 
L 211.740845 131.922 
L 216.456338 123.768 
L 221.171831 131.922 
L 225.887324 123.768 
L 230.602817 131.922 
L 235.31831 123.768 
L 240.033803 131.922 
L 244.749296 123.768 
L 249.464789 131.922 
L 254.180282 123.768 
L 258.895775 131.922 
L 263.611268 123.768 
L 268.326761 131.922 
L 273.042254 123.768 
L 277.757746 131.922 
L 282.473239 123.768 
L 287.188732 131.922 
L 291.904225 123.768 
L 296.619718 131.922 
L 301.335211 123.768 
L 306.050704 131.922 
L 310.766197 123.768 
L 315.48169 131.922 
L 320.197183 123.768 
L 324.912676 131.922 
L 329.628169 123.768 
L 334.343662 131.922 
L 339.059155 123.768 
L 343.774648 131.922 
L 348.490141 123.768 
L 353.205634 131.922 
L 357.921127 123.768 
L 362.63662 131.922 
L 367.352113 123.768 
L 372.067606 131.922 
L 376.783099 123.768 
L 381.498592 131.922 
L 386.214085 123.768 
L 390.929577 131.922 
L 395.64507 123.768 
L 400.360563 131.922 
L 405.076056 123.768 
L 409.791549 131.922 
L 414.507042 123.768 
L 419.222535 131.922 
L 423.938028 123.768 
L 428.653521 131.922 
L 433.369014 123.768 
L 438.084507 131.922 
L 442.8 123.768 
L 447.515493 131.922 
L 452.230986 123.768 
L 456.946479 131.922 
L 461.661972 123.768 
L 466.377465 131.922 
L 471.092958 123.768 
L 475.808451 131.922 
L 480.523944 123.768 
L 485.239437 131.922 
L 489.95493 123.768 
L 494.670423 131.922 
L 499.385915 123.768 
L 504.101408 131.922 
L 508.816901 123.768 
L 513.532394 131.922 
L 518.247887 123.768 
L 522.96338 131.922 
L 527.678873 123.768 
L 532.394366 131.922 
L 537.109859 123.768 
L 541.825352 131.922 
L 546.540845 123.768 
L 551.256338 131.922 
L 555.971831 123.768 
L 560.687324 131.922 
L 565.402817 123.768 
L 570.11831 131.922 
L 574.833803 123.768 
L 579.549296 131.922 
L 584.264789 123.768 
" style="fill:none;stroke:#000000;stroke-linecap:square;stroke-width:1.5;"/>
    <g clip-path="url(#pecdf7c32a6)">
     <use style="stroke:#000000;" x="117.430986" xlink:href="#m1a5756d407" y="131.922"/>
     <use style="stroke:#000000;" x="122.146479" xlink:href="#m1a5756d407" y="123.768"/>
     <use style="stroke:#000000;" x="126.861972" xlink:href="#m1a5756d407" y="131.922"/>
     <use style="stroke:#000000;" x="131.577465" xlink:href="#m1a5756d407" y="123.768"/>
     <use style="stroke:#000000;" x="136.292958" xlink:href="#m1a5756d407" y="131.922"/>
     <use style="stroke:#000000;" x="141.008451" xlink:href="#m1a5756d407" y="123.768"/>
     <use style="stroke:#000000;" x="145.723944" xlink:href="#m1a5756d407" y="131.922"/>
     <use style="stroke:#000000;" x="150.439437" xlink:href="#m1a5756d407" y="123.768"/>
     <use style="stroke:#000000;" x="155.15493" xlink:href="#m1a5756d407" y="131.922"/>
     <use style="stroke:#000000;" x="159.870423" xlink:href="#m1a5756d407" y="123.768"/>
     <use style="stroke:#000000;" x="164.585915" xlink:href="#m1a5756d407" y="131.922"/>
     <use style="stroke:#000000;" x="169.301408" xlink:href="#m1a5756d407" y="123.768"/>
     <use style="stroke:#000000;" x="174.016901" xlink:href="#m1a5756d407" y="131.922"/>
     <use style="stroke:#000000;" x="178.732394" xlink:href="#m1a5756d407" y="123.768"/>
     <use style="stroke:#000000;" x="183.447887" xlink:href="#m1a5756d407" y="131.922"/>
     <use style="stroke:#000000;" x="188.16338" xlink:href="#m1a5756d407" y="123.768"/>
     <use style="stroke:#000000;" x="192.878873" xlink:href="#m1a5756d407" y="131.922"/>
     <use style="stroke:#000000;" x="197.594366" xlink:href="#m1a5756d407" y="123.768"/>
     <use style="stroke:#000000;" x="202.309859" xlink:href="#m1a5756d407" y="131.922"/>
     <use style="stroke:#000000;" x="207.025352" xlink:href="#m1a5756d407" y="123.768"/>
     <use style="stroke:#000000;" x="211.740845" xlink:href="#m1a5756d407" y="131.922"/>
     <use style="stroke:#000000;" x="216.456338" xlink:href="#m1a5756d407" y="123.768"/>
     <use style="stroke:#000000;" x="221.171831" xlink:href="#m1a5756d407" y="131.922"/>
     <use style="stroke:#000000;" x="225.887324" xlink:href="#m1a5756d407" y="123.768"/>
     <use style="stroke:#000000;" x="230.602817" xlink:href="#m1a5756d407" y="131.922"/>
     <use style="stroke:#000000;" x="235.31831" xlink:href="#m1a5756d407" y="123.768"/>
     <use style="stroke:#000000;" x="240.033803" xlink:href="#m1a5756d407" y="131.922"/>
     <use style="stroke:#000000;" x="244.749296" xlink:href="#m1a5756d407" y="123.768"/>
     <use style="stroke:#000000;" x="249.464789" xlink:href="#m1a5756d407" y="131.922"/>
     <use style="stroke:#000000;" x="254.180282" xlink:href="#m1a5756d407" y="123.768"/>
     <use style="stroke:#000000;" x="258.895775" xlink:href="#m1a5756d407" y="131.922"/>
     <use style="stroke:#000000;" x="263.611268" xlink:href="#m1a5756d407" y="123.768"/>
     <use style="stroke:#000000;" x="268.326761" xlink:href="#m1a5756d407" y="131.922"/>
     <use style="stroke:#000000;" x="273.042254" xlink:href="#m1a5756d407" y="123.768"/>
     <use style="stroke:#000000;" x="277.757746" xlink:href="#m1a5756d407" y="131.922"/>
     <use style="stroke:#000000;" x="282.473239" xlink:href="#m1a5756d407" y="123.768"/>
     <use style="stroke:#000000;" x="287.188732" xlink:href="#m1a5756d407" y="131.922"/>
     <use style="stroke:#000000;" x="291.904225" xlink:href="#m1a5756d407" y="123.768"/>
     <use style="stroke:#000000;" x="296.619718" xlink:href="#m1a5756d407" y="131.922"/>
     <use style="stroke:#000000;" x="301.335211" xlink:href="#m1a5756d407" y="123.768"/>
     <use style="stroke:#000000;" x="306.050704" xlink:href="#m1a5756d407" y="131.922"/>
     <use style="stroke:#000000;" x="310.766197" xlink:href="#m1a5756d407" y="123.768"/>
     <use style="stroke:#000000;" x="315.48169" xlink:href="#m1a5756d407" y="131.922"/>
     <use style="stroke:#000000;" x="320.197183" xlink:href="#m1a5756d407" y="123.768"/>
     <use style="stroke:#000000;" x="324.912676" xlink:href="#m1a5756d407" y="131.922"/>
     <use style="stroke:#000000;" x="329.628169" xlink:href="#m1a5756d407" y="123.768"/>
     <use style="stroke:#000000;" x="334.343662" xlink:href="#m1a5756d407" y="131.922"/>
     <use style="stroke:#000000;" x="339.059155" xlink:href="#m1a5756d407" y="123.768"/>
     <use style="stroke:#000000;" x="343.774648" xlink:href="#m1a5756d407" y="131.922"/>
     <use style="stroke:#000000;" x="348.490141" xlink:href="#m1a5756d407" y="123.768"/>
     <use style="stroke:#000000;" x="353.205634" xlink:href="#m1a5756d407" y="131.922"/>
     <use style="stroke:#000000;" x="357.921127" xlink:href="#m1a5756d407" y="123.768"/>
     <use style="stroke:#000000;" x="362.63662" xlink:href="#m1a5756d407" y="131.922"/>
     <use style="stroke:#000000;" x="367.352113" xlink:href="#m1a5756d407" y="123.768"/>
     <use style="stroke:#000000;" x="372.067606" xlink:href="#m1a5756d407" y="131.922"/>
     <use style="stroke:#000000;" x="376.783099" xlink:href="#m1a5756d407" y="123.768"/>
     <use style="stroke:#000000;" x="381.498592" xlink:href="#m1a5756d407" y="131.922"/>
     <use style="stroke:#000000;" x="386.214085" xlink:href="#m1a5756d407" y="123.768"/>
     <use style="stroke:#000000;" x="390.929577" xlink:href="#m1a5756d407" y="131.922"/>
     <use style="stroke:#000000;" x="395.64507" xlink:href="#m1a5756d407" y="123.768"/>
     <use style="stroke:#000000;" x="400.360563" xlink:href="#m1a5756d407" y="131.922"/>
     <use style="stroke:#000000;" x="405.076056" xlink:href="#m1a5756d407" y="123.768"/>
     <use style="stroke:#000000;" x="409.791549" xlink:href="#m1a5756d407" y="131.922"/>
     <use style="stroke:#000000;" x="414.507042" xlink:href="#m1a5756d407" y="123.768"/>
     <use style="stroke:#000000;" x="419.222535" xlink:href="#m1a5756d407" y="131.922"/>
     <use style="stroke:#000000;" x="423.938028" xlink:href="#m1a5756d407" y="123.768"/>
     <use style="stroke:#000000;" x="428.653521" xlink:href="#m1a5756d407" y="131.922"/>
     <use style="stroke:#000000;" x="433.369014" xlink:href="#m1a5756d407" y="123.768"/>
     <use style="stroke:#000000;" x="438.084507" xlink:href="#m1a5756d407" y="131.922"/>
     <use style="stroke:#000000;" x="442.8" xlink:href="#m1a5756d407" y="123.768"/>
     <use style="stroke:#000000;" x="447.515493" xlink:href="#m1a5756d407" y="131.922"/>
     <use style="stroke:#000000;" x="452.230986" xlink:href="#m1a5756d407" y="123.768"/>
     <use style="stroke:#000000;" x="456.946479" xlink:href="#m1a5756d407" y="131.922"/>
     <use style="stroke:#000000;" x="461.661972" xlink:href="#m1a5756d407" y="123.768"/>
     <use style="stroke:#000000;" x="466.377465" xlink:href="#m1a5756d407" y="131.922"/>
     <use style="stroke:#000000;" x="471.092958" xlink:href="#m1a5756d407" y="123.768"/>
     <use style="stroke:#000000;" x="475.808451" xlink:href="#m1a5756d407" y="131.922"/>
     <use style="stroke:#000000;" x="480.523944" xlink:href="#m1a5756d407" y="123.768"/>
     <use style="stroke:#000000;" x="485.239437" xlink:href="#m1a5756d407" y="131.922"/>
     <use style="stroke:#000000;" x="489.95493" xlink:href="#m1a5756d407" y="123.768"/>
     <use style="stroke:#000000;" x="494.670423" xlink:href="#m1a5756d407" y="131.922"/>
     <use style="stroke:#000000;" x="499.385915" xlink:href="#m1a5756d407" y="123.768"/>
     <use style="stroke:#000000;" x="504.101408" xlink:href="#m1a5756d407" y="131.922"/>
     <use style="stroke:#000000;" x="508.816901" xlink:href="#m1a5756d407" y="123.768"/>
     <use style="stroke:#000000;" x="513.532394" xlink:href="#m1a5756d407" y="131.922"/>
     <use style="stroke:#000000;" x="518.247887" xlink:href="#m1a5756d407" y="123.768"/>
     <use style="stroke:#000000;" x="522.96338" xlink:href="#m1a5756d407" y="131.922"/>
     <use style="stroke:#000000;" x="527.678873" xlink:href="#m1a5756d407" y="123.768"/>
     <use style="stroke:#000000;" x="532.394366" xlink:href="#m1a5756d407" y="131.922"/>
     <use style="stroke:#000000;" x="537.109859" xlink:href="#m1a5756d407" y="123.768"/>
     <use style="stroke:#000000;" x="541.825352" xlink:href="#m1a5756d407" y="131.922"/>
     <use style="stroke:#000000;" x="546.540845" xlink:href="#m1a5756d407" y="123.768"/>
     <use style="stroke:#000000;" x="551.256338" xlink:href="#m1a5756d407" y="131.922"/>
     <use style="stroke:#000000;" x="555.971831" xlink:href="#m1a5756d407" y="123.768"/>
     <use style="stroke:#000000;" x="560.687324" xlink:href="#m1a5756d407" y="131.922"/>
     <use style="stroke:#000000;" x="565.402817" xlink:href="#m1a5756d407" y="123.768"/>
     <use style="stroke:#000000;" x="570.11831" xlink:href="#m1a5756d407" y="131.922"/>
     <use style="stroke:#000000;" x="574.833803" xlink:href="#m1a5756d407" y="123.768"/>
     <use style="stroke:#000000;" x="579.549296" xlink:href="#m1a5756d407" y="131.922"/>
     <use style="stroke:#000000;" x="584.264789" xlink:href="#m1a5756d407" y="123.768"/>
    </g>
   </g>
   <g id="line2d_3">
    <path clip-path="url(#pecdf7c32a6)" d="M 117.430986 107.46 
L 122.146479 102.478461 
L 126.861972 101.680847 
L 131.577465 105.737065 
L 136.292958 111.240351 
L 141.008451 113.568573 
L 145.723944 110.766289 
L 150.439437 105.187098 
L 155.15493 101.516886 
L 159.870423 102.838213 
L 164.585915 108.041315 
L 169.301408 112.756178 
L 174.016901 113.022854 
L 178.732394 108.617366 
L 183.447887 103.239822 
L 188.16338 101.406747 
L 192.878873 104.657716 
L 197.594366 110.262284 
L 202.309859 113.513253 
L 207.025352 111.680178 
L 211.740845 106.302634 
L 216.456338 101.897146 
L 221.171831 102.163822 
L 225.887324 106.878685 
L 230.602817 112.081787 
L 235.31831 113.403114 
L 240.033803 109.732902 
L 244.749296 104.153711 
L 249.464789 101.351427 
L 254.180282 103.679649 
L 258.895775 109.182935 
L 263.611268 113.239153 
L 268.326761 112.441539 
L 273.042254 107.46 
L 277.757746 102.478461 
L 282.473239 101.680847 
L 287.188732 105.737065 
L 291.904225 111.240351 
L 296.619718 113.568573 
L 301.335211 110.766289 
L 306.050704 105.187098 
L 310.766197 101.516886 
L 315.48169 102.838213 
L 320.197183 108.041315 
L 324.912676 112.756178 
L 329.628169 113.022854 
L 334.343662 108.617366 
L 339.059155 103.239822 
L 343.774648 101.406747 
L 348.490141 104.657716 
L 353.205634 110.262284 
L 357.921127 113.513253 
L 362.63662 111.680178 
L 367.352113 106.302634 
L 372.067606 101.897146 
L 376.783099 102.163822 
L 381.498592 106.878685 
L 386.214085 112.081787 
L 390.929577 113.403114 
L 395.64507 109.732902 
L 400.360563 104.153711 
L 405.076056 101.351427 
L 409.791549 103.679649 
L 414.507042 109.182935 
L 419.222535 113.239153 
L 423.938028 112.441539 
L 428.653521 107.46 
L 433.369014 102.478461 
L 438.084507 101.680847 
L 442.8 105.737065 
L 447.515493 111.240351 
L 452.230986 113.568573 
L 456.946479 110.766289 
L 461.661972 105.187098 
L 466.377465 101.516886 
L 471.092958 102.838213 
L 475.808451 108.041315 
L 480.523944 112.756178 
L 485.239437 113.022854 
L 489.95493 108.617366 
L 494.670423 103.239822 
L 499.385915 101.406747 
L 504.101408 104.657716 
L 508.816901 110.262284 
L 513.532394 113.513253 
L 518.247887 111.680178 
L 522.96338 106.302634 
L 527.678873 101.897146 
L 532.394366 102.163822 
L 537.109859 106.878685 
L 541.825352 112.081787 
L 546.540845 113.403114 
L 551.256338 109.732902 
L 555.971831 104.153711 
L 560.687324 101.351427 
L 565.402817 103.679649 
L 570.11831 109.182935 
L 574.833803 113.239153 
L 579.549296 112.441539 
L 584.264789 107.46 
" style="fill:none;stroke:#000000;stroke-linecap:square;stroke-width:1.5;"/>
    <g clip-path="url(#pecdf7c32a6)">
     <use style="stroke:#000000;" x="117.430986" xlink:href="#m1a5756d407" y="107.46"/>
     <use style="stroke:#000000;" x="122.146479" xlink:href="#m1a5756d407" y="102.478461"/>
     <use style="stroke:#000000;" x="126.861972" xlink:href="#m1a5756d407" y="101.680847"/>
     <use style="stroke:#000000;" x="131.577465" xlink:href="#m1a5756d407" y="105.737065"/>
     <use style="stroke:#000000;" x="136.292958" xlink:href="#m1a5756d407" y="111.240351"/>
     <use style="stroke:#000000;" x="141.008451" xlink:href="#m1a5756d407" y="113.568573"/>
     <use style="stroke:#000000;" x="145.723944" xlink:href="#m1a5756d407" y="110.766289"/>
     <use style="stroke:#000000;" x="150.439437" xlink:href="#m1a5756d407" y="105.187098"/>
     <use style="stroke:#000000;" x="155.15493" xlink:href="#m1a5756d407" y="101.516886"/>
     <use style="stroke:#000000;" x="159.870423" xlink:href="#m1a5756d407" y="102.838213"/>
     <use style="stroke:#000000;" x="164.585915" xlink:href="#m1a5756d407" y="108.041315"/>
     <use style="stroke:#000000;" x="169.301408" xlink:href="#m1a5756d407" y="112.756178"/>
     <use style="stroke:#000000;" x="174.016901" xlink:href="#m1a5756d407" y="113.022854"/>
     <use style="stroke:#000000;" x="178.732394" xlink:href="#m1a5756d407" y="108.617366"/>
     <use style="stroke:#000000;" x="183.447887" xlink:href="#m1a5756d407" y="103.239822"/>
     <use style="stroke:#000000;" x="188.16338" xlink:href="#m1a5756d407" y="101.406747"/>
     <use style="stroke:#000000;" x="192.878873" xlink:href="#m1a5756d407" y="104.657716"/>
     <use style="stroke:#000000;" x="197.594366" xlink:href="#m1a5756d407" y="110.262284"/>
     <use style="stroke:#000000;" x="202.309859" xlink:href="#m1a5756d407" y="113.513253"/>
     <use style="stroke:#000000;" x="207.025352" xlink:href="#m1a5756d407" y="111.680178"/>
     <use style="stroke:#000000;" x="211.740845" xlink:href="#m1a5756d407" y="106.302634"/>
     <use style="stroke:#000000;" x="216.456338" xlink:href="#m1a5756d407" y="101.897146"/>
     <use style="stroke:#000000;" x="221.171831" xlink:href="#m1a5756d407" y="102.163822"/>
     <use style="stroke:#000000;" x="225.887324" xlink:href="#m1a5756d407" y="106.878685"/>
     <use style="stroke:#000000;" x="230.602817" xlink:href="#m1a5756d407" y="112.081787"/>
     <use style="stroke:#000000;" x="235.31831" xlink:href="#m1a5756d407" y="113.403114"/>
     <use style="stroke:#000000;" x="240.033803" xlink:href="#m1a5756d407" y="109.732902"/>
     <use style="stroke:#000000;" x="244.749296" xlink:href="#m1a5756d407" y="104.153711"/>
     <use style="stroke:#000000;" x="249.464789" xlink:href="#m1a5756d407" y="101.351427"/>
     <use style="stroke:#000000;" x="254.180282" xlink:href="#m1a5756d407" y="103.679649"/>
     <use style="stroke:#000000;" x="258.895775" xlink:href="#m1a5756d407" y="109.182935"/>
     <use style="stroke:#000000;" x="263.611268" xlink:href="#m1a5756d407" y="113.239153"/>
     <use style="stroke:#000000;" x="268.326761" xlink:href="#m1a5756d407" y="112.441539"/>
     <use style="stroke:#000000;" x="273.042254" xlink:href="#m1a5756d407" y="107.46"/>
     <use style="stroke:#000000;" x="277.757746" xlink:href="#m1a5756d407" y="102.478461"/>
     <use style="stroke:#000000;" x="282.473239" xlink:href="#m1a5756d407" y="101.680847"/>
     <use style="stroke:#000000;" x="287.188732" xlink:href="#m1a5756d407" y="105.737065"/>
     <use style="stroke:#000000;" x="291.904225" xlink:href="#m1a5756d407" y="111.240351"/>
     <use style="stroke:#000000;" x="296.619718" xlink:href="#m1a5756d407" y="113.568573"/>
     <use style="stroke:#000000;" x="301.335211" xlink:href="#m1a5756d407" y="110.766289"/>
     <use style="stroke:#000000;" x="306.050704" xlink:href="#m1a5756d407" y="105.187098"/>
     <use style="stroke:#000000;" x="310.766197" xlink:href="#m1a5756d407" y="101.516886"/>
     <use style="stroke:#000000;" x="315.48169" xlink:href="#m1a5756d407" y="102.838213"/>
     <use style="stroke:#000000;" x="320.197183" xlink:href="#m1a5756d407" y="108.041315"/>
     <use style="stroke:#000000;" x="324.912676" xlink:href="#m1a5756d407" y="112.756178"/>
     <use style="stroke:#000000;" x="329.628169" xlink:href="#m1a5756d407" y="113.022854"/>
     <use style="stroke:#000000;" x="334.343662" xlink:href="#m1a5756d407" y="108.617366"/>
     <use style="stroke:#000000;" x="339.059155" xlink:href="#m1a5756d407" y="103.239822"/>
     <use style="stroke:#000000;" x="343.774648" xlink:href="#m1a5756d407" y="101.406747"/>
     <use style="stroke:#000000;" x="348.490141" xlink:href="#m1a5756d407" y="104.657716"/>
     <use style="stroke:#000000;" x="353.205634" xlink:href="#m1a5756d407" y="110.262284"/>
     <use style="stroke:#000000;" x="357.921127" xlink:href="#m1a5756d407" y="113.513253"/>
     <use style="stroke:#000000;" x="362.63662" xlink:href="#m1a5756d407" y="111.680178"/>
     <use style="stroke:#000000;" x="367.352113" xlink:href="#m1a5756d407" y="106.302634"/>
     <use style="stroke:#000000;" x="372.067606" xlink:href="#m1a5756d407" y="101.897146"/>
     <use style="stroke:#000000;" x="376.783099" xlink:href="#m1a5756d407" y="102.163822"/>
     <use style="stroke:#000000;" x="381.498592" xlink:href="#m1a5756d407" y="106.878685"/>
     <use style="stroke:#000000;" x="386.214085" xlink:href="#m1a5756d407" y="112.081787"/>
     <use style="stroke:#000000;" x="390.929577" xlink:href="#m1a5756d407" y="113.403114"/>
     <use style="stroke:#000000;" x="395.64507" xlink:href="#m1a5756d407" y="109.732902"/>
     <use style="stroke:#000000;" x="400.360563" xlink:href="#m1a5756d407" y="104.153711"/>
     <use style="stroke:#000000;" x="405.076056" xlink:href="#m1a5756d407" y="101.351427"/>
     <use style="stroke:#000000;" x="409.791549" xlink:href="#m1a5756d407" y="103.679649"/>
     <use style="stroke:#000000;" x="414.507042" xlink:href="#m1a5756d407" y="109.182935"/>
     <use style="stroke:#000000;" x="419.222535" xlink:href="#m1a5756d407" y="113.239153"/>
     <use style="stroke:#000000;" x="423.938028" xlink:href="#m1a5756d407" y="112.441539"/>
     <use style="stroke:#000000;" x="428.653521" xlink:href="#m1a5756d407" y="107.46"/>
     <use style="stroke:#000000;" x="433.369014" xlink:href="#m1a5756d407" y="102.478461"/>
     <use style="stroke:#000000;" x="438.084507" xlink:href="#m1a5756d407" y="101.680847"/>
     <use style="stroke:#000000;" x="442.8" xlink:href="#m1a5756d407" y="105.737065"/>
     <use style="stroke:#000000;" x="447.515493" xlink:href="#m1a5756d407" y="111.240351"/>
     <use style="stroke:#000000;" x="452.230986" xlink:href="#m1a5756d407" y="113.568573"/>
     <use style="stroke:#000000;" x="456.946479" xlink:href="#m1a5756d407" y="110.766289"/>
     <use style="stroke:#000000;" x="461.661972" xlink:href="#m1a5756d407" y="105.187098"/>
     <use style="stroke:#000000;" x="466.377465" xlink:href="#m1a5756d407" y="101.516886"/>
     <use style="stroke:#000000;" x="471.092958" xlink:href="#m1a5756d407" y="102.838213"/>
     <use style="stroke:#000000;" x="475.808451" xlink:href="#m1a5756d407" y="108.041315"/>
     <use style="stroke:#000000;" x="480.523944" xlink:href="#m1a5756d407" y="112.756178"/>
     <use style="stroke:#000000;" x="485.239437" xlink:href="#m1a5756d407" y="113.022854"/>
     <use style="stroke:#000000;" x="489.95493" xlink:href="#m1a5756d407" y="108.617366"/>
     <use style="stroke:#000000;" x="494.670423" xlink:href="#m1a5756d407" y="103.239822"/>
     <use style="stroke:#000000;" x="499.385915" xlink:href="#m1a5756d407" y="101.406747"/>
     <use style="stroke:#000000;" x="504.101408" xlink:href="#m1a5756d407" y="104.657716"/>
     <use style="stroke:#000000;" x="508.816901" xlink:href="#m1a5756d407" y="110.262284"/>
     <use style="stroke:#000000;" x="513.532394" xlink:href="#m1a5756d407" y="113.513253"/>
     <use style="stroke:#000000;" x="518.247887" xlink:href="#m1a5756d407" y="111.680178"/>
     <use style="stroke:#000000;" x="522.96338" xlink:href="#m1a5756d407" y="106.302634"/>
     <use style="stroke:#000000;" x="527.678873" xlink:href="#m1a5756d407" y="101.897146"/>
     <use style="stroke:#000000;" x="532.394366" xlink:href="#m1a5756d407" y="102.163822"/>
     <use style="stroke:#000000;" x="537.109859" xlink:href="#m1a5756d407" y="106.878685"/>
     <use style="stroke:#000000;" x="541.825352" xlink:href="#m1a5756d407" y="112.081787"/>
     <use style="stroke:#000000;" x="546.540845" xlink:href="#m1a5756d407" y="113.403114"/>
     <use style="stroke:#000000;" x="551.256338" xlink:href="#m1a5756d407" y="109.732902"/>
     <use style="stroke:#000000;" x="555.971831" xlink:href="#m1a5756d407" y="104.153711"/>
     <use style="stroke:#000000;" x="560.687324" xlink:href="#m1a5756d407" y="101.351427"/>
     <use style="stroke:#000000;" x="565.402817" xlink:href="#m1a5756d407" y="103.679649"/>
     <use style="stroke:#000000;" x="570.11831" xlink:href="#m1a5756d407" y="109.182935"/>
     <use style="stroke:#000000;" x="574.833803" xlink:href="#m1a5756d407" y="113.239153"/>
     <use style="stroke:#000000;" x="579.549296" xlink:href="#m1a5756d407" y="112.441539"/>
     <use style="stroke:#000000;" x="584.264789" xlink:href="#m1a5756d407" y="107.46"/>
    </g>
   </g>
   <g id="line2d_4">
    <g clip-path="url(#pecdf7c32a6)">
     <use style="stroke:#000000;" x="117.430986" xlink:href="#m1a5756d407" y="66.69"/>
     <use style="stroke:#000000;" x="122.146479" xlink:href="#m1a5756d407" y="64.781759"/>
     <use style="stroke:#000000;" x="126.861972" xlink:href="#m1a5756d407" y="63.064072"/>
     <use style="stroke:#000000;" x="131.577465" xlink:href="#m1a5756d407" y="61.708461"/>
     <use style="stroke:#000000;" x="136.292958" xlink:href="#m1a5756d407" y="60.850295"/>
     <use style="stroke:#000000;" x="141.008451" xlink:href="#m1a5756d407" y="60.57527"/>
     <use style="stroke:#000000;" x="145.723944" xlink:href="#m1a5756d407" y="60.910847"/>
     <use style="stroke:#000000;" x="150.439437" xlink:href="#m1a5756d407" y="61.823518"/>
     <use style="stroke:#000000;" x="155.15493" xlink:href="#m1a5756d407" y="63.222145"/>
     <use style="stroke:#000000;" x="159.870423" xlink:href="#m1a5756d407" y="64.967065"/>
     <use style="stroke:#000000;" x="164.585915" xlink:href="#m1a5756d407" y="66.884032"/>
     <use style="stroke:#000000;" x="169.301408" xlink:href="#m1a5756d407" y="68.781624"/>
     <use style="stroke:#000000;" x="174.016901" xlink:href="#m1a5756d407" y="70.470351"/>
     <use style="stroke:#000000;" x="178.732394" xlink:href="#m1a5756d407" y="71.781581"/>
     <use style="stroke:#000000;" x="183.447887" xlink:href="#m1a5756d407" y="72.584377"/>
     <use style="stroke:#000000;" x="188.16338" xlink:href="#m1a5756d407" y="72.798573"/>
     <use style="stroke:#000000;" x="192.878873" xlink:href="#m1a5756d407" y="72.402781"/>
     <use style="stroke:#000000;" x="197.594366" xlink:href="#m1a5756d407" y="71.436524"/>
     <use style="stroke:#000000;" x="202.309859" xlink:href="#m1a5756d407" y="69.996289"/>
     <use style="stroke:#000000;" x="207.025352" xlink:href="#m1a5756d407" y="68.225896"/>
     <use style="stroke:#000000;" x="211.740845" xlink:href="#m1a5756d407" y="65.526393"/>
     <use style="stroke:#000000;" x="216.456338" xlink:href="#m1a5756d407" y="59.871295"/>
     <use style="stroke:#000000;" x="221.171831" xlink:href="#m1a5756d407" y="54.897097"/>
     <use style="stroke:#000000;" x="225.887324" xlink:href="#m1a5756d407" y="51.100512"/>
     <use style="stroke:#000000;" x="230.602817" xlink:href="#m1a5756d407" y="48.860659"/>
     <use style="stroke:#000000;" x="235.31831" xlink:href="#m1a5756d407" y="48.401204"/>
     <use style="stroke:#000000;" x="240.033803" xlink:href="#m1a5756d407" y="49.768027"/>
     <use style="stroke:#000000;" x="244.749296" xlink:href="#m1a5756d407" y="52.82464"/>
     <use style="stroke:#000000;" x="249.464789" xlink:href="#m1a5756d407" y="57.265818"/>
     <use style="stroke:#000000;" x="254.180282" xlink:href="#m1a5756d407" y="62.648073"/>
     <use style="stroke:#000000;" x="258.895775" xlink:href="#m1a5756d407" y="67.271315"/>
     <use style="stroke:#000000;" x="263.611268" xlink:href="#m1a5756d407" y="69.141891"/>
     <use style="stroke:#000000;" x="268.326761" xlink:href="#m1a5756d407" y="70.767626"/>
     <use style="stroke:#000000;" x="273.042254" xlink:href="#m1a5756d407" y="71.986178"/>
     <use style="stroke:#000000;" x="277.757746" xlink:href="#m1a5756d407" y="72.675866"/>
     <use style="stroke:#000000;" x="282.473239" xlink:href="#m1a5756d407" y="72.767819"/>
     <use style="stroke:#000000;" x="287.188732" xlink:href="#m1a5756d407" y="72.252854"/>
     <use style="stroke:#000000;" x="291.904225" xlink:href="#m1a5756d407" y="71.182396"/>
     <use style="stroke:#000000;" x="296.619718" xlink:href="#m1a5756d407" y="69.663336"/>
     <use style="stroke:#000000;" x="301.335211" xlink:href="#m1a5756d407" y="67.847366"/>
     <use style="stroke:#000000;" x="306.050704" xlink:href="#m1a5756d407" y="65.915824"/>
     <use style="stroke:#000000;" x="310.766197" xlink:href="#m1a5756d407" y="64.061589"/>
     <use style="stroke:#000000;" x="315.48169" xlink:href="#m1a5756d407" y="62.469822"/>
     <use style="stroke:#000000;" x="320.197183" xlink:href="#m1a5756d407" y="61.299472"/>
     <use style="stroke:#000000;" x="324.912676" xlink:href="#m1a5756d407" y="60.667408"/>
     <use style="stroke:#000000;" x="329.628169" xlink:href="#m1a5756d407" y="60.636747"/>
     <use style="stroke:#000000;" x="334.343662" xlink:href="#m1a5756d407" y="61.21055"/>
     <use style="stroke:#000000;" x="339.059155" xlink:href="#m1a5756d407" y="62.331519"/>
     <use style="stroke:#000000;" x="343.774648" xlink:href="#m1a5756d407" y="63.887716"/>
     <use style="stroke:#000000;" x="348.490141" xlink:href="#m1a5756d407" y="65.723742"/>
     <use style="stroke:#000000;" x="353.205634" xlink:href="#m1a5756d407" y="67.656258"/>
     <use style="stroke:#000000;" x="357.921127" xlink:href="#m1a5756d407" y="69.492284"/>
     <use style="stroke:#000000;" x="362.63662" xlink:href="#m1a5756d407" y="71.048481"/>
     <use style="stroke:#000000;" x="367.352113" xlink:href="#m1a5756d407" y="72.16945"/>
     <use style="stroke:#000000;" x="372.067606" xlink:href="#m1a5756d407" y="72.743253"/>
     <use style="stroke:#000000;" x="376.783099" xlink:href="#m1a5756d407" y="72.712592"/>
     <use style="stroke:#000000;" x="381.498592" xlink:href="#m1a5756d407" y="72.080528"/>
     <use style="stroke:#000000;" x="386.214085" xlink:href="#m1a5756d407" y="70.910178"/>
     <use style="stroke:#000000;" x="390.929577" xlink:href="#m1a5756d407" y="69.318411"/>
     <use style="stroke:#000000;" x="395.64507" xlink:href="#m1a5756d407" y="67.464176"/>
     <use style="stroke:#000000;" x="400.360563" xlink:href="#m1a5756d407" y="62.060536"/>
     <use style="stroke:#000000;" x="405.076056" xlink:href="#m1a5756d407" y="54.796655"/>
     <use style="stroke:#000000;" x="409.791549" xlink:href="#m1a5756d407" y="48.720418"/>
     <use style="stroke:#000000;" x="414.507042" xlink:href="#m1a5756d407" y="44.438582"/>
     <use style="stroke:#000000;" x="419.222535" xlink:href="#m1a5756d407" y="42.378723"/>
     <use style="stroke:#000000;" x="423.938028" xlink:href="#m1a5756d407" y="42.746535"/>
     <use style="stroke:#000000;" x="428.653521" xlink:href="#m1a5756d407" y="45.505287"/>
     <use style="stroke:#000000;" x="433.369014" xlink:href="#m1a5756d407" y="50.379497"/>
     <use style="stroke:#000000;" x="438.084507" xlink:href="#m1a5756d407" y="56.882437"/>
     <use style="stroke:#000000;" x="442.8" xlink:href="#m1a5756d407" y="64.364739"/>
     <use style="stroke:#000000;" x="447.515493" xlink:href="#m1a5756d407" y="68.037309"/>
     <use style="stroke:#000000;" x="452.230986" xlink:href="#m1a5756d407" y="69.831394"/>
     <use style="stroke:#000000;" x="456.946479" xlink:href="#m1a5756d407" y="71.311787"/>
     <use style="stroke:#000000;" x="461.661972" xlink:href="#m1a5756d407" y="72.330658"/>
     <use style="stroke:#000000;" x="466.377465" xlink:href="#m1a5756d407" y="72.786265"/>
     <use style="stroke:#000000;" x="471.092958" xlink:href="#m1a5756d407" y="72.633114"/>
     <use style="stroke:#000000;" x="475.808451" xlink:href="#m1a5756d407" y="71.886496"/>
     <use style="stroke:#000000;" x="480.523944" xlink:href="#m1a5756d407" y="70.620968"/>
     <use style="stroke:#000000;" x="485.239437" xlink:href="#m1a5756d407" y="68.962902"/>
     <use style="stroke:#000000;" x="489.95493" xlink:href="#m1a5756d407" y="67.077869"/>
     <use style="stroke:#000000;" x="494.670423" xlink:href="#m1a5756d407" y="65.154104"/>
     <use style="stroke:#000000;" x="499.385915" xlink:href="#m1a5756d407" y="63.383711"/>
     <use style="stroke:#000000;" x="504.101408" xlink:href="#m1a5756d407" y="61.943476"/>
     <use style="stroke:#000000;" x="508.816901" xlink:href="#m1a5756d407" y="60.977219"/>
     <use style="stroke:#000000;" x="513.532394" xlink:href="#m1a5756d407" y="60.581427"/>
     <use style="stroke:#000000;" x="518.247887" xlink:href="#m1a5756d407" y="60.795623"/>
     <use style="stroke:#000000;" x="522.96338" xlink:href="#m1a5756d407" y="61.598419"/>
     <use style="stroke:#000000;" x="527.678873" xlink:href="#m1a5756d407" y="62.909649"/>
     <use style="stroke:#000000;" x="532.394366" xlink:href="#m1a5756d407" y="64.598376"/>
     <use style="stroke:#000000;" x="537.109859" xlink:href="#m1a5756d407" y="66.495968"/>
     <use style="stroke:#000000;" x="541.825352" xlink:href="#m1a5756d407" y="68.412935"/>
     <use style="stroke:#000000;" x="546.540845" xlink:href="#m1a5756d407" y="70.157855"/>
     <use style="stroke:#000000;" x="551.256338" xlink:href="#m1a5756d407" y="71.556482"/>
     <use style="stroke:#000000;" x="555.971831" xlink:href="#m1a5756d407" y="72.469153"/>
     <use style="stroke:#000000;" x="560.687324" xlink:href="#m1a5756d407" y="72.80473"/>
     <use style="stroke:#000000;" x="565.402817" xlink:href="#m1a5756d407" y="72.529705"/>
     <use style="stroke:#000000;" x="570.11831" xlink:href="#m1a5756d407" y="71.671539"/>
     <use style="stroke:#000000;" x="574.833803" xlink:href="#m1a5756d407" y="70.315928"/>
     <use style="stroke:#000000;" x="579.549296" xlink:href="#m1a5756d407" y="68.598241"/>
     <use style="stroke:#000000;" x="584.264789" xlink:href="#m1a5756d407" y="66.69"/>
    </g>
   </g>
   <g id="text_1">
    <text style="font-family:DejaVu Sans;font-size:10px;font-style:normal;font-weight:normal;text-anchor:start;" transform="rotate(-0, 588.980282, 168.615)" x="588.980282" y="168.615">Resulting profile</text>
   </g>
   <g id="text_2">
    <text style="font-family:DejaVu Sans;font-size:10px;font-style:normal;font-weight:normal;text-anchor:start;" transform="rotate(-0, 588.980282, 131.922)" x="588.980282" y="131.922">Signal 1</text>
   </g>
   <g id="text_3">
    <text style="font-family:DejaVu Sans;font-size:10px;font-style:normal;font-weight:normal;text-anchor:start;" transform="rotate(-0, 588.980282, 107.46)" x="588.980282" y="107.46">Signal 2</text>
   </g>
   <g id="text_4">
    <text style="font-family:DejaVu Sans;font-size:10px;font-style:normal;font-weight:normal;text-anchor:start;" transform="rotate(-0, 588.980282, 70.767)" x="588.980282" y="70.767">Signal 3</text>
   </g>
  </g>
 </g>
 <defs>
  <clipPath id="pecdf7c32a6">
   <rect height="163.08" width="669.6" x="108" y="25.92"/>
  </clipPath>
 </defs>
 <defs>
  <pattern height="72" id="h1324f35e55" patternUnits="userSpaceOnUse" width="72" x="0" y="0">
   <rect fill="none" height="73" width="73" x="0" y="0"/>
   <path d="M -36 36 
L 36 -36 
M -24 48 
L 48 -24 
M -12 60 
L 60 -12 
M 0 72 
L 72 0 
M 12 84 
L 84 12 
M 24 96 
L 96 24 
M 36 108 
L 108 36 
" style="fill:#000000;stroke:#000000;stroke-linecap:butt;stroke-linejoin:miter;stroke-width:1.0;"/>
  </pattern>
 </defs>
</svg>
