<?xml version="1.0" encoding="utf-8" standalone="no"?>
<!DOCTYPE svg PUBLIC "-//W3C//DTD SVG 1.1//EN"
  "http://www.w3.org/Graphics/SVG/1.1/DTD/svg11.dtd">
<!-- Created with matplotlib (https://matplotlib.org/) -->
<svg height="216pt" version="1.1" viewBox="0 0 864 216" width="864pt" xmlns="http://www.w3.org/2000/svg" xmlns:xlink="http://www.w3.org/1999/xlink">
 <defs>
  <style type="text/css">
*{stroke-linecap:butt;stroke-linejoin:round;}
  </style>
 </defs>
 <g id="figure_1">
  <g id="patch_1">
   <path d="M 0 216 
L 864 216 
L 864 0 
L 0 0 
z
" style="fill:#ffffff;"/>
  </g>
  <g id="axes_1">
   <g id="patch_2">
    <path d="M 108 189 
L 777.6 189 
L 777.6 25.92 
L 108 25.92 
z
" style="fill:#ffffff;"/>
   </g>
   <g id="PolyCollection_1">
    <path clip-path="url(#p3f2db54188)" d="M 117.430986 177.139636 
L 117.430986 189 
L 122.146479 189 
L 126.861972 189 
L 131.577465 189 
L 136.292958 189 
L 141.008451 189 
L 145.723944 189 
L 150.439437 189 
L 155.15493 189 
L 159.870423 189 
L 164.585915 189 
L 169.301408 189 
L 174.016901 189 
L 178.732394 189 
L 183.447887 189 
L 188.16338 189 
L 192.878873 189 
L 197.594366 189 
L 202.309859 189 
L 207.025352 189 
L 211.740845 189 
L 216.456338 189 
L 221.171831 189 
L 225.887324 189 
L 230.602817 189 
L 235.31831 189 
L 240.033803 189 
L 244.749296 189 
L 249.464789 189 
L 254.180282 189 
L 258.895775 189 
L 263.611268 189 
L 268.326761 189 
L 273.042254 189 
L 277.757746 189 
L 282.473239 189 
L 287.188732 189 
L 291.904225 189 
L 296.619718 189 
L 301.335211 189 
L 306.050704 189 
L 310.766197 189 
L 315.48169 189 
L 320.197183 189 
L 324.912676 189 
L 329.628169 189 
L 334.343662 189 
L 339.059155 189 
L 343.774648 189 
L 348.490141 189 
L 353.205634 189 
L 357.921127 189 
L 362.63662 189 
L 367.352113 189 
L 372.067606 189 
L 376.783099 189 
L 381.498592 189 
L 386.214085 189 
L 390.929577 189 
L 395.64507 189 
L 400.360563 189 
L 405.076056 189 
L 409.791549 189 
L 414.507042 189 
L 419.222535 189 
L 423.938028 189 
L 428.653521 189 
L 433.369014 189 
L 438.084507 189 
L 442.8 189 
L 447.515493 189 
L 452.230986 189 
L 456.946479 189 
L 461.661972 189 
L 466.377465 189 
L 471.092958 189 
L 475.808451 189 
L 480.523944 189 
L 485.239437 189 
L 489.95493 189 
L 494.670423 189 
L 499.385915 189 
L 504.101408 189 
L 508.816901 189 
L 513.532394 189 
L 518.247887 189 
L 522.96338 189 
L 527.678873 189 
L 532.394366 189 
L 537.109859 189 
L 541.825352 189 
L 546.540845 189 
L 551.256338 189 
L 555.971831 189 
L 560.687324 189 
L 565.402817 189 
L 570.11831 189 
L 574.833803 189 
L 579.549296 189 
L 584.264789 189 
L 584.264789 171.209455 
L 584.264789 171.209455 
L 579.549296 182.150385 
L 574.833803 178.049513 
L 570.11831 182.015618 
L 565.402817 172.707166 
L 560.687324 177.144114 
L 555.971831 173.007901 
L 551.256338 182.331915 
L 546.540845 178.053795 
L 541.825352 181.75398 
L 537.109859 170.645566 
L 532.394366 171.766689 
L 527.678873 164.414396 
L 522.96338 172.594948 
L 518.247887 169.991856 
L 513.532394 177.099404 
L 508.816901 169.092729 
L 504.101408 171.649594 
L 499.385915 164.402515 
L 494.670423 172.953401 
L 489.95493 172.333262 
L 485.239437 182.838368 
L 480.523944 177.920106 
L 475.808451 181.341681 
L 471.092958 172.17042 
L 466.377465 177.251019 
L 461.661972 173.658732 
L 456.946479 182.905509 
L 452.230986 177.936703 
L 447.515493 180.868844 
L 442.8 168.265312 
L 438.084507 165.803843 
L 433.369014 155.724333 
L 428.653521 161.732572 
L 423.938028 157.418963 
L 419.222535 163.661728 
L 414.507042 156.279649 
L 409.791549 161.321503 
L 405.076056 158.117151 
L 400.360563 171.36818 
L 395.64507 173.425511 
L 390.929577 183.373472 
L 386.214085 177.639974 
L 381.498592 180.637246 
L 376.783099 171.737755 
L 372.067606 177.49629 
L 367.352113 174.352788 
L 362.63662 183.378661 
L 357.921127 177.649845 
L 353.205634 179.880394 
L 348.490141 168.468697 
L 343.774648 170.699246 
L 339.059155 164.97043 
L 334.343662 173.996303 
L 329.628169 170.852801 
L 324.912676 176.611336 
L 320.197183 167.711845 
L 315.48169 170.709117 
L 310.766197 164.975619 
L 306.050704 174.92358 
L 301.335211 174.455749 
L 296.619718 183.744661 
L 291.904225 177.225998 
L 287.188732 179.932305 
L 282.473239 171.426667 
L 277.757746 177.870056 
L 273.042254 175.061221 
L 268.326761 183.72812 
L 263.611268 177.195668 
L 258.895775 178.815455 
L 254.180282 165.520525 
L 249.464789 165.843087 
L 244.749296 158.720983 
L 240.033803 166.485766 
L 235.31831 162.230776 
L 230.602817 167.534142 
L 225.887324 159.448871 
L 221.171831 164.711214 
L 216.456338 162.204684 
L 211.740845 175.451656 
L 207.025352 175.39569 
L 202.309859 183.946576 
L 197.594366 176.699497 
L 192.878873 179.256361 
L 188.16338 171.249687 
L 183.447887 178.357235 
L 178.732394 175.754143 
L 174.016901 183.934695 
L 169.301408 176.582402 
L 164.585915 177.703525 
L 159.870423 166.595111 
L 155.15493 170.295296 
L 150.439437 166.017176 
L 145.723944 175.34119 
L 141.008451 171.204977 
L 136.292958 175.641925 
L 131.577465 166.333473 
L 126.861972 170.299577 
L 122.146479 166.198706 
L 117.430986 177.139636 
z
" style="fill:url(#hf0bcd9687d);stroke:#000000;stroke-width:0.1;"/>
   </g>
   <g id="line2d_1">
    <path clip-path="url(#p3f2db54188)" d="M 117.430986 177.139636 
L 122.146479 166.198706 
L 126.861972 170.299577 
L 131.577465 166.333473 
L 136.292958 175.641925 
L 141.008451 171.204977 
L 145.723944 175.34119 
L 150.439437 166.017176 
L 155.15493 170.295296 
L 159.870423 166.595111 
L 164.585915 177.703525 
L 169.301408 176.582402 
L 174.016901 183.934695 
L 178.732394 175.754143 
L 183.447887 178.357235 
L 188.16338 171.249687 
L 192.878873 179.256361 
L 197.594366 176.699497 
L 202.309859 183.946576 
L 207.025352 175.39569 
L 211.740845 175.451656 
L 216.456338 162.204684 
L 221.171831 164.711214 
L 225.887324 159.448871 
L 230.602817 167.534142 
L 235.31831 162.230776 
L 240.033803 166.485766 
L 244.749296 158.720983 
L 249.464789 165.843087 
L 254.180282 165.520525 
L 258.895775 178.815455 
L 263.611268 177.195668 
L 268.326761 183.72812 
L 273.042254 175.061221 
L 277.757746 177.870056 
L 282.473239 171.426667 
L 287.188732 179.932305 
L 291.904225 177.225998 
L 296.619718 183.744661 
L 301.335211 174.455749 
L 306.050704 174.92358 
L 310.766197 164.975619 
L 315.48169 170.709117 
L 320.197183 167.711845 
L 324.912676 176.611336 
L 329.628169 170.852801 
L 334.343662 173.996303 
L 339.059155 164.97043 
L 343.774648 170.699246 
L 348.490141 168.468697 
L 353.205634 179.880394 
L 357.921127 177.649845 
L 362.63662 183.378661 
L 367.352113 174.352788 
L 372.067606 177.49629 
L 376.783099 171.737755 
L 381.498592 180.637246 
L 386.214085 177.639974 
L 390.929577 183.373472 
L 395.64507 173.425511 
L 400.360563 171.36818 
L 405.076056 158.117151 
L 409.791549 161.321503 
L 414.507042 156.279649 
L 419.222535 163.661728 
L 423.938028 157.418963 
L 428.653521 161.732572 
L 433.369014 155.724333 
L 438.084507 165.803843 
L 442.8 168.265312 
L 447.515493 180.868844 
L 452.230986 177.936703 
L 456.946479 182.905509 
L 461.661972 173.658732 
L 466.377465 177.251019 
L 471.092958 172.17042 
L 475.808451 181.341681 
L 480.523944 177.920106 
L 485.239437 182.838368 
L 489.95493 172.333262 
L 494.670423 172.953401 
L 499.385915 164.402515 
L 504.101408 171.649594 
L 508.816901 169.092729 
L 513.532394 177.099404 
L 518.247887 169.991856 
L 522.96338 172.594948 
L 527.678873 164.414396 
L 532.394366 171.766689 
L 537.109859 170.645566 
L 541.825352 181.75398 
L 546.540845 178.053795 
L 551.256338 182.331915 
L 555.971831 173.007901 
L 560.687324 177.144114 
L 565.402817 172.707166 
L 570.11831 182.015618 
L 574.833803 178.049513 
L 579.549296 182.150385 
L 584.264789 171.209455 
" style="fill:none;stroke:#000000;stroke-linecap:square;stroke-width:1.5;"/>
   </g>
   <g id="line2d_2">
    <path clip-path="url(#p3f2db54188)" d="M 122.146479 151.373251 
L 131.577465 151.508018 
L 141.008451 156.379522 
L 150.439437 151.191721 
L 159.870423 151.769657 
L 169.301408 161.756947 
L 178.732394 160.928689 
L 188.16338 156.424233 
L 197.594366 161.874042 
L 207.025352 160.570235 
L 216.456338 147.379229 
L 225.887324 144.623416 
L 235.31831 147.405322 
L 244.749296 143.895528 
L 254.180282 150.69507 
L 263.611268 162.370213 
L 273.042254 160.235766 
L 282.473239 156.601212 
L 291.904225 162.400543 
L 301.335211 159.630294 
L 310.766197 150.150164 
L 320.197183 152.886391 
L 329.628169 156.027347 
L 339.059155 150.144975 
L 348.490141 153.643242 
L 357.921127 162.824391 
L 367.352113 159.527334 
L 376.783099 156.912301 
L 386.214085 162.81452 
L 405.076056 143.291696 
L 414.507042 141.454195 
L 423.938028 142.593508 
L 433.369014 140.898878 
L 452.230986 163.111249 
L 461.661972 158.833277 
L 471.092958 157.344965 
L 480.523944 163.094652 
L 489.95493 157.507807 
L 499.385915 149.57706 
L 508.816901 154.267275 
L 518.247887 155.166401 
L 527.678873 149.588941 
L 537.109859 155.820111 
L 546.540845 163.228341 
L 555.971831 158.182446 
L 565.402817 157.881712 
L 574.833803 163.224059 
" style="fill:none;stroke:#000000;stroke-dasharray:5.55,2.4;stroke-dashoffset:0;stroke-width:1.5;"/>
    <defs>
     <path d="M -3 3 
L 3 -3 
M -3 -3 
L 3 3 
" id="mf8332db969" style="stroke:#000000;"/>
    </defs>
    <g clip-path="url(#p3f2db54188)">
     <use style="stroke:#000000;" x="122.146479" xlink:href="#mf8332db969" y="151.373251"/>
     <use style="stroke:#000000;" x="131.577465" xlink:href="#mf8332db969" y="151.508018"/>
     <use style="stroke:#000000;" x="141.008451" xlink:href="#mf8332db969" y="156.379522"/>
     <use style="stroke:#000000;" x="150.439437" xlink:href="#mf8332db969" y="151.191721"/>
     <use style="stroke:#000000;" x="159.870423" xlink:href="#mf8332db969" y="151.769657"/>
     <use style="stroke:#000000;" x="169.301408" xlink:href="#mf8332db969" y="161.756947"/>
     <use style="stroke:#000000;" x="178.732394" xlink:href="#mf8332db969" y="160.928689"/>
     <use style="stroke:#000000;" x="188.16338" xlink:href="#mf8332db969" y="156.424233"/>
     <use style="stroke:#000000;" x="197.594366" xlink:href="#mf8332db969" y="161.874042"/>
     <use style="stroke:#000000;" x="207.025352" xlink:href="#mf8332db969" y="160.570235"/>
     <use style="stroke:#000000;" x="216.456338" xlink:href="#mf8332db969" y="147.379229"/>
     <use style="stroke:#000000;" x="225.887324" xlink:href="#mf8332db969" y="144.623416"/>
     <use style="stroke:#000000;" x="235.31831" xlink:href="#mf8332db969" y="147.405322"/>
     <use style="stroke:#000000;" x="244.749296" xlink:href="#mf8332db969" y="143.895528"/>
     <use style="stroke:#000000;" x="254.180282" xlink:href="#mf8332db969" y="150.69507"/>
     <use style="stroke:#000000;" x="263.611268" xlink:href="#mf8332db969" y="162.370213"/>
     <use style="stroke:#000000;" x="273.042254" xlink:href="#mf8332db969" y="160.235766"/>
     <use style="stroke:#000000;" x="282.473239" xlink:href="#mf8332db969" y="156.601212"/>
     <use style="stroke:#000000;" x="291.904225" xlink:href="#mf8332db969" y="162.400543"/>
     <use style="stroke:#000000;" x="301.335211" xlink:href="#mf8332db969" y="159.630294"/>
     <use style="stroke:#000000;" x="310.766197" xlink:href="#mf8332db969" y="150.150164"/>
     <use style="stroke:#000000;" x="320.197183" xlink:href="#mf8332db969" y="152.886391"/>
     <use style="stroke:#000000;" x="329.628169" xlink:href="#mf8332db969" y="156.027347"/>
     <use style="stroke:#000000;" x="339.059155" xlink:href="#mf8332db969" y="150.144975"/>
     <use style="stroke:#000000;" x="348.490141" xlink:href="#mf8332db969" y="153.643242"/>
     <use style="stroke:#000000;" x="357.921127" xlink:href="#mf8332db969" y="162.824391"/>
     <use style="stroke:#000000;" x="367.352113" xlink:href="#mf8332db969" y="159.527334"/>
     <use style="stroke:#000000;" x="376.783099" xlink:href="#mf8332db969" y="156.912301"/>
     <use style="stroke:#000000;" x="386.214085" xlink:href="#mf8332db969" y="162.81452"/>
     <use style="stroke:#000000;" x="405.076056" xlink:href="#mf8332db969" y="143.291696"/>
     <use style="stroke:#000000;" x="414.507042" xlink:href="#mf8332db969" y="141.454195"/>
     <use style="stroke:#000000;" x="423.938028" xlink:href="#mf8332db969" y="142.593508"/>
     <use style="stroke:#000000;" x="433.369014" xlink:href="#mf8332db969" y="140.898878"/>
     <use style="stroke:#000000;" x="452.230986" xlink:href="#mf8332db969" y="163.111249"/>
     <use style="stroke:#000000;" x="461.661972" xlink:href="#mf8332db969" y="158.833277"/>
     <use style="stroke:#000000;" x="471.092958" xlink:href="#mf8332db969" y="157.344965"/>
     <use style="stroke:#000000;" x="480.523944" xlink:href="#mf8332db969" y="163.094652"/>
     <use style="stroke:#000000;" x="489.95493" xlink:href="#mf8332db969" y="157.507807"/>
     <use style="stroke:#000000;" x="499.385915" xlink:href="#mf8332db969" y="149.57706"/>
     <use style="stroke:#000000;" x="508.816901" xlink:href="#mf8332db969" y="154.267275"/>
     <use style="stroke:#000000;" x="518.247887" xlink:href="#mf8332db969" y="155.166401"/>
     <use style="stroke:#000000;" x="527.678873" xlink:href="#mf8332db969" y="149.588941"/>
     <use style="stroke:#000000;" x="537.109859" xlink:href="#mf8332db969" y="155.820111"/>
     <use style="stroke:#000000;" x="546.540845" xlink:href="#mf8332db969" y="163.228341"/>
     <use style="stroke:#000000;" x="555.971831" xlink:href="#mf8332db969" y="158.182446"/>
     <use style="stroke:#000000;" x="565.402817" xlink:href="#mf8332db969" y="157.881712"/>
     <use style="stroke:#000000;" x="574.833803" xlink:href="#mf8332db969" y="163.224059"/>
    </g>
   </g>
   <g id="line2d_3">
    <path clip-path="url(#p3f2db54188)" d="M 122.146479 136.547797 
L 150.439437 136.366267 
L 188.16338 141.598778 
L 225.887324 129.797962 
L 244.749296 129.070074 
L 282.473239 141.775758 
L 310.766197 135.32471 
L 339.059155 135.31952 
L 376.783099 142.086846 
L 414.507042 126.62874 
L 433.369014 126.073424 
L 471.092958 142.519511 
L 499.385915 134.751606 
L 527.678873 134.763487 
L 565.402817 143.056257 
" style="fill:none;stroke:#000000;stroke-dasharray:5.55,2.4;stroke-dashoffset:0;stroke-width:1.5;"/>
    <g clip-path="url(#p3f2db54188)">
     <use style="stroke:#000000;" x="122.146479" xlink:href="#mf8332db969" y="136.547797"/>
     <use style="stroke:#000000;" x="150.439437" xlink:href="#mf8332db969" y="136.366267"/>
     <use style="stroke:#000000;" x="188.16338" xlink:href="#mf8332db969" y="141.598778"/>
     <use style="stroke:#000000;" x="225.887324" xlink:href="#mf8332db969" y="129.797962"/>
     <use style="stroke:#000000;" x="244.749296" xlink:href="#mf8332db969" y="129.070074"/>
     <use style="stroke:#000000;" x="282.473239" xlink:href="#mf8332db969" y="141.775758"/>
     <use style="stroke:#000000;" x="310.766197" xlink:href="#mf8332db969" y="135.32471"/>
     <use style="stroke:#000000;" x="339.059155" xlink:href="#mf8332db969" y="135.31952"/>
     <use style="stroke:#000000;" x="376.783099" xlink:href="#mf8332db969" y="142.086846"/>
     <use style="stroke:#000000;" x="414.507042" xlink:href="#mf8332db969" y="126.62874"/>
     <use style="stroke:#000000;" x="433.369014" xlink:href="#mf8332db969" y="126.073424"/>
     <use style="stroke:#000000;" x="471.092958" xlink:href="#mf8332db969" y="142.519511"/>
     <use style="stroke:#000000;" x="499.385915" xlink:href="#mf8332db969" y="134.751606"/>
     <use style="stroke:#000000;" x="527.678873" xlink:href="#mf8332db969" y="134.763487"/>
     <use style="stroke:#000000;" x="565.402817" xlink:href="#mf8332db969" y="143.056257"/>
    </g>
   </g>
   <g id="line2d_4">
    <path clip-path="url(#p3f2db54188)" d="M 150.439437 106.715358 
L 244.749296 99.419165 
L 339.059155 105.668611 
L 433.369014 96.422515 
L 499.385915 105.100697 
" style="fill:none;stroke:#000000;stroke-dasharray:5.55,2.4;stroke-dashoffset:0;stroke-width:1.5;"/>
    <g clip-path="url(#p3f2db54188)">
     <use style="stroke:#000000;" x="150.439437" xlink:href="#mf8332db969" y="106.715358"/>
     <use style="stroke:#000000;" x="244.749296" xlink:href="#mf8332db969" y="99.419165"/>
     <use style="stroke:#000000;" x="339.059155" xlink:href="#mf8332db969" y="105.668611"/>
     <use style="stroke:#000000;" x="433.369014" xlink:href="#mf8332db969" y="96.422515"/>
     <use style="stroke:#000000;" x="499.385915" xlink:href="#mf8332db969" y="105.100697"/>
    </g>
   </g>
   <g id="line2d_5">
    <path clip-path="url(#p3f2db54188)" d="M 244.749296 69.768256 
L 433.369014 66.771605 
" style="fill:none;stroke:#000000;stroke-dasharray:5.55,2.4;stroke-dashoffset:0;stroke-width:1.5;"/>
    <g clip-path="url(#p3f2db54188)">
     <use style="stroke:#000000;" x="244.749296" xlink:href="#mf8332db969" y="69.768256"/>
     <use style="stroke:#000000;" x="433.369014" xlink:href="#mf8332db969" y="66.771605"/>
    </g>
   </g>
   <g id="line2d_6">
    <path clip-path="url(#p3f2db54188)" d="M 433.369014 37.120696 
" style="fill:none;stroke:#000000;stroke-dasharray:5.55,2.4;stroke-dashoffset:0;stroke-width:1.5;"/>
    <g clip-path="url(#p3f2db54188)">
     <use style="stroke:#000000;" x="433.369014" xlink:href="#mf8332db969" y="37.120696"/>
    </g>
   </g>
   <g id="text_1">
    <text style="font-family:DejaVu Sans;font-size:10px;font-style:normal;font-weight:normal;text-anchor:start;" transform="rotate(-0, 588.980282, 181.587273)" x="588.980282" y="181.587273">Original profile</text>
   </g>
   <g id="text_2">
    <text style="font-family:DejaVu Sans;font-size:10px;font-style:normal;font-weight:normal;text-anchor:start;" transform="rotate(-0, 588.980282, 159.349091)" x="588.980282" y="159.349091">First level</text>
   </g>
   <g id="text_3">
    <text style="font-family:DejaVu Sans;font-size:10px;font-style:normal;font-weight:normal;text-anchor:start;" transform="rotate(-0, 588.980282, 144.523636)" x="588.980282" y="144.523636">Second level</text>
   </g>
   <g id="text_4">
    <text style="font-family:DejaVu Sans;font-size:10px;font-style:normal;font-weight:normal;text-anchor:start;" transform="rotate(-0, 588.980282, 100.047273)" x="588.980282" y="100.047273">Third level</text>
   </g>
   <g id="text_5">
    <text style="font-family:DejaVu Sans;font-size:10px;font-style:normal;font-weight:normal;text-anchor:start;" transform="rotate(-0, 588.980282, 70.396364)" x="588.980282" y="70.396364">Forth level</text>
   </g>
   <g id="text_6">
    <text style="font-family:DejaVu Sans;font-size:10px;font-style:normal;font-weight:normal;text-anchor:start;" transform="rotate(-0, 588.980282, 40.745455)" x="588.980282" y="40.745455">Fifth level</text>
   </g>
  </g>
 </g>
 <defs>
  <clipPath id="p3f2db54188">
   <rect height="163.08" width="669.6" x="108" y="25.92"/>
  </clipPath>
 </defs>
 <defs>
  <pattern height="72" id="hf0bcd9687d" patternUnits="userSpaceOnUse" width="72" x="0" y="0">
   <rect fill="none" height="73" width="73" x="0" y="0"/>
   <path d="M -36 36 
L 36 -36 
M -24 48 
L 48 -24 
M -12 60 
L 60 -12 
M 0 72 
L 72 0 
M 12 84 
L 84 12 
M 24 96 
L 96 24 
M 36 108 
L 108 36 
" style="fill:#000000;stroke:#000000;stroke-linecap:butt;stroke-linejoin:miter;stroke-width:1.0;"/>
  </pattern>
 </defs>
</svg>
