<?xml version="1.0" encoding="utf-8" standalone="no"?>
<!DOCTYPE svg PUBLIC "-//W3C//DTD SVG 1.1//EN"
  "http://www.w3.org/Graphics/SVG/1.1/DTD/svg11.dtd">
<!-- Created with matplotlib (http://matplotlib.org/) -->
<svg height="430pt" version="1.1" viewBox="0 0 576 430" width="576pt" xmlns="http://www.w3.org/2000/svg" xmlns:xlink="http://www.w3.org/1999/xlink">
 <defs>
  <style type="text/css">
*{stroke-linecap:butt;stroke-linejoin:round;}
  </style>
 </defs>
 <g id="figure_1">
  <g id="patch_1">
   <path d="M 0 430.2 
L 576 430.2 
L 576 0 
L 0 0 
z
" style="fill:#ffffff;"/>
  </g>
  <g id="axes_1">
   <g id="patch_2">
    <path d="M 123.12 387.18 
L 467.28 387.18 
L 467.28 43.02 
L 123.12 43.02 
z
" style="fill:#ffffff;"/>
   </g>
   <g id="patch_3">
    <path clip-path="url(#p0841bcc8f1)" d="M 180.48 356.7792 
C 184.054832 356.7792 187.483729 353.938609 190.011517 348.883033 
C 192.539304 343.827458 193.9596 336.969663 193.9596 329.82 
C 193.9596 322.670337 192.539304 315.812542 190.011517 310.756967 
C 187.483729 305.701391 184.054832 302.8608 180.48 302.8608 
C 176.905168 302.8608 173.476271 305.701391 170.948483 310.756967 
C 168.420696 315.812542 167.0004 322.670337 167.0004 329.82 
C 167.0004 336.969663 168.420696 343.827458 170.948483 348.883033 
C 173.476271 353.938609 176.905168 356.7792 180.48 356.7792 
z
" style="fill:none;opacity:0.7;stroke:#000000;stroke-linejoin:miter;"/>
   </g>
   <g id="patch_4">
    <path clip-path="url(#p0841bcc8f1)" d="M 237.84 356.7792 
C 241.414832 356.7792 244.843729 353.938609 247.371517 348.883033 
C 249.899304 343.827458 251.3196 336.969663 251.3196 329.82 
C 251.3196 322.670337 249.899304 315.812542 247.371517 310.756967 
C 244.843729 305.701391 241.414832 302.8608 237.84 302.8608 
C 234.265168 302.8608 230.836271 305.701391 228.308483 310.756967 
C 225.780696 315.812542 224.3604 322.670337 224.3604 329.82 
C 224.3604 336.969663 225.780696 343.827458 228.308483 348.883033 
C 230.836271 353.938609 234.265168 356.7792 237.84 356.7792 
z
" style="fill:none;opacity:0.7;stroke:#000000;stroke-linejoin:miter;"/>
   </g>
   <g id="patch_5">
    <path clip-path="url(#p0841bcc8f1)" d="M 295.2 356.7792 
C 298.774832 356.7792 302.203729 353.938609 304.731517 348.883033 
C 307.259304 343.827458 308.6796 336.969663 308.6796 329.82 
C 308.6796 322.670337 307.259304 315.812542 304.731517 310.756967 
C 302.203729 305.701391 298.774832 302.8608 295.2 302.8608 
C 291.625168 302.8608 288.196271 305.701391 285.668483 310.756967 
C 283.140696 315.812542 281.7204 322.670337 281.7204 329.82 
C 281.7204 336.969663 283.140696 343.827458 285.668483 348.883033 
C 288.196271 353.938609 291.625168 356.7792 295.2 356.7792 
z
" style="fill:none;opacity:0.7;stroke:#000000;stroke-linejoin:miter;"/>
   </g>
   <g id="patch_6">
    <path clip-path="url(#p0841bcc8f1)" d="M 352.56 356.7792 
C 356.134832 356.7792 359.563729 353.938609 362.091517 348.883033 
C 364.619304 343.827458 366.0396 336.969663 366.0396 329.82 
C 366.0396 322.670337 364.619304 315.812542 362.091517 310.756967 
C 359.563729 305.701391 356.134832 302.8608 352.56 302.8608 
C 348.985168 302.8608 345.556271 305.701391 343.028483 310.756967 
C 340.500696 315.812542 339.0804 322.670337 339.0804 329.82 
C 339.0804 336.969663 340.500696 343.827458 343.028483 348.883033 
C 345.556271 353.938609 348.985168 356.7792 352.56 356.7792 
z
" style="fill:none;opacity:0.7;stroke:#000000;stroke-linejoin:miter;"/>
   </g>
   <g id="patch_7">
    <path clip-path="url(#p0841bcc8f1)" d="M 409.92 356.7792 
C 413.494832 356.7792 416.923729 353.938609 419.451517 348.883033 
C 421.979304 343.827458 423.3996 336.969663 423.3996 329.82 
C 423.3996 322.670337 421.979304 315.812542 419.451517 310.756967 
C 416.923729 305.701391 413.494832 302.8608 409.92 302.8608 
C 406.345168 302.8608 402.916271 305.701391 400.388483 310.756967 
C 397.860696 315.812542 396.4404 322.670337 396.4404 329.82 
C 396.4404 336.969663 397.860696 343.827458 400.388483 348.883033 
C 402.916271 353.938609 406.345168 356.7792 409.92 356.7792 
z
" style="fill:none;opacity:0.7;stroke:#000000;stroke-linejoin:miter;"/>
   </g>
   <g id="patch_8">
    <path clip-path="url(#p0841bcc8f1)" d="M 180.48 299.4192 
C 184.054832 299.4192 187.483729 296.578609 190.011517 291.523033 
C 192.539304 286.467458 193.9596 279.609663 193.9596 272.46 
C 193.9596 265.310337 192.539304 258.452542 190.011517 253.396967 
C 187.483729 248.341391 184.054832 245.5008 180.48 245.5008 
C 176.905168 245.5008 173.476271 248.341391 170.948483 253.396967 
C 168.420696 258.452542 167.0004 265.310337 167.0004 272.46 
C 167.0004 279.609663 168.420696 286.467458 170.948483 291.523033 
C 173.476271 296.578609 176.905168 299.4192 180.48 299.4192 
z
" style="fill:none;opacity:0.7;stroke:#000000;stroke-linejoin:miter;"/>
   </g>
   <g id="patch_9">
    <path clip-path="url(#p0841bcc8f1)" d="M 237.84 299.4192 
C 241.414832 299.4192 244.843729 296.578609 247.371517 291.523033 
C 249.899304 286.467458 251.3196 279.609663 251.3196 272.46 
C 251.3196 265.310337 249.899304 258.452542 247.371517 253.396967 
C 244.843729 248.341391 241.414832 245.5008 237.84 245.5008 
C 234.265168 245.5008 230.836271 248.341391 228.308483 253.396967 
C 225.780696 258.452542 224.3604 265.310337 224.3604 272.46 
C 224.3604 279.609663 225.780696 286.467458 228.308483 291.523033 
C 230.836271 296.578609 234.265168 299.4192 237.84 299.4192 
z
" style="fill:none;opacity:0.7;stroke:#000000;stroke-linejoin:miter;"/>
   </g>
   <g id="patch_10">
    <path clip-path="url(#p0841bcc8f1)" d="M 295.2 299.4192 
C 298.774832 299.4192 302.203729 296.578609 304.731517 291.523033 
C 307.259304 286.467458 308.6796 279.609663 308.6796 272.46 
C 308.6796 265.310337 307.259304 258.452542 304.731517 253.396967 
C 302.203729 248.341391 298.774832 245.5008 295.2 245.5008 
C 291.625168 245.5008 288.196271 248.341391 285.668483 253.396967 
C 283.140696 258.452542 281.7204 265.310337 281.7204 272.46 
C 281.7204 279.609663 283.140696 286.467458 285.668483 291.523033 
C 288.196271 296.578609 291.625168 299.4192 295.2 299.4192 
z
" style="fill:none;opacity:0.7;stroke:#000000;stroke-linejoin:miter;"/>
   </g>
   <g id="patch_11">
    <path clip-path="url(#p0841bcc8f1)" d="M 352.56 299.4192 
C 356.134832 299.4192 359.563729 296.578609 362.091517 291.523033 
C 364.619304 286.467458 366.0396 279.609663 366.0396 272.46 
C 366.0396 265.310337 364.619304 258.452542 362.091517 253.396967 
C 359.563729 248.341391 356.134832 245.5008 352.56 245.5008 
C 348.985168 245.5008 345.556271 248.341391 343.028483 253.396967 
C 340.500696 258.452542 339.0804 265.310337 339.0804 272.46 
C 339.0804 279.609663 340.500696 286.467458 343.028483 291.523033 
C 345.556271 296.578609 348.985168 299.4192 352.56 299.4192 
z
" style="fill:none;opacity:0.7;stroke:#000000;stroke-linejoin:miter;"/>
   </g>
   <g id="patch_12">
    <path clip-path="url(#p0841bcc8f1)" d="M 409.92 299.4192 
C 413.494832 299.4192 416.923729 296.578609 419.451517 291.523033 
C 421.979304 286.467458 423.3996 279.609663 423.3996 272.46 
C 423.3996 265.310337 421.979304 258.452542 419.451517 253.396967 
C 416.923729 248.341391 413.494832 245.5008 409.92 245.5008 
C 406.345168 245.5008 402.916271 248.341391 400.388483 253.396967 
C 397.860696 258.452542 396.4404 265.310337 396.4404 272.46 
C 396.4404 279.609663 397.860696 286.467458 400.388483 291.523033 
C 402.916271 296.578609 406.345168 299.4192 409.92 299.4192 
z
" style="fill:none;opacity:0.7;stroke:#000000;stroke-linejoin:miter;"/>
   </g>
   <g id="patch_13">
    <path clip-path="url(#p0841bcc8f1)" d="M 180.48 242.0592 
C 184.054832 242.0592 187.483729 239.218609 190.011517 234.163033 
C 192.539304 229.107458 193.9596 222.249663 193.9596 215.1 
C 193.9596 207.950337 192.539304 201.092542 190.011517 196.036967 
C 187.483729 190.981391 184.054832 188.1408 180.48 188.1408 
C 176.905168 188.1408 173.476271 190.981391 170.948483 196.036967 
C 168.420696 201.092542 167.0004 207.950337 167.0004 215.1 
C 167.0004 222.249663 168.420696 229.107458 170.948483 234.163033 
C 173.476271 239.218609 176.905168 242.0592 180.48 242.0592 
z
" style="fill:none;opacity:0.7;stroke:#000000;stroke-linejoin:miter;"/>
   </g>
   <g id="patch_14">
    <path clip-path="url(#p0841bcc8f1)" d="M 237.84 242.0592 
C 241.414832 242.0592 244.843729 239.218609 247.371517 234.163033 
C 249.899304 229.107458 251.3196 222.249663 251.3196 215.1 
C 251.3196 207.950337 249.899304 201.092542 247.371517 196.036967 
C 244.843729 190.981391 241.414832 188.1408 237.84 188.1408 
C 234.265168 188.1408 230.836271 190.981391 228.308483 196.036967 
C 225.780696 201.092542 224.3604 207.950337 224.3604 215.1 
C 224.3604 222.249663 225.780696 229.107458 228.308483 234.163033 
C 230.836271 239.218609 234.265168 242.0592 237.84 242.0592 
z
" style="fill:none;opacity:0.7;stroke:#000000;stroke-linejoin:miter;"/>
   </g>
   <g id="patch_15">
    <path clip-path="url(#p0841bcc8f1)" d="M 295.2 242.0592 
C 298.774832 242.0592 302.203729 239.218609 304.731517 234.163033 
C 307.259304 229.107458 308.6796 222.249663 308.6796 215.1 
C 308.6796 207.950337 307.259304 201.092542 304.731517 196.036967 
C 302.203729 190.981391 298.774832 188.1408 295.2 188.1408 
C 291.625168 188.1408 288.196271 190.981391 285.668483 196.036967 
C 283.140696 201.092542 281.7204 207.950337 281.7204 215.1 
C 281.7204 222.249663 283.140696 229.107458 285.668483 234.163033 
C 288.196271 239.218609 291.625168 242.0592 295.2 242.0592 
z
" style="fill:none;opacity:0.7;stroke:#000000;stroke-linejoin:miter;"/>
   </g>
   <g id="patch_16">
    <path clip-path="url(#p0841bcc8f1)" d="M 352.56 242.0592 
C 356.134832 242.0592 359.563729 239.218609 362.091517 234.163033 
C 364.619304 229.107458 366.0396 222.249663 366.0396 215.1 
C 366.0396 207.950337 364.619304 201.092542 362.091517 196.036967 
C 359.563729 190.981391 356.134832 188.1408 352.56 188.1408 
C 348.985168 188.1408 345.556271 190.981391 343.028483 196.036967 
C 340.500696 201.092542 339.0804 207.950337 339.0804 215.1 
C 339.0804 222.249663 340.500696 229.107458 343.028483 234.163033 
C 345.556271 239.218609 348.985168 242.0592 352.56 242.0592 
z
" style="fill:none;opacity:0.7;stroke:#000000;stroke-linejoin:miter;"/>
   </g>
   <g id="patch_17">
    <path clip-path="url(#p0841bcc8f1)" d="M 409.92 242.0592 
C 413.494832 242.0592 416.923729 239.218609 419.451517 234.163033 
C 421.979304 229.107458 423.3996 222.249663 423.3996 215.1 
C 423.3996 207.950337 421.979304 201.092542 419.451517 196.036967 
C 416.923729 190.981391 413.494832 188.1408 409.92 188.1408 
C 406.345168 188.1408 402.916271 190.981391 400.388483 196.036967 
C 397.860696 201.092542 396.4404 207.950337 396.4404 215.1 
C 396.4404 222.249663 397.860696 229.107458 400.388483 234.163033 
C 402.916271 239.218609 406.345168 242.0592 409.92 242.0592 
z
" style="fill:none;opacity:0.7;stroke:#000000;stroke-linejoin:miter;"/>
   </g>
   <g id="patch_18">
    <path clip-path="url(#p0841bcc8f1)" d="M 180.48 184.6992 
C 184.054832 184.6992 187.483729 181.858609 190.011517 176.803033 
C 192.539304 171.747458 193.9596 164.889663 193.9596 157.74 
C 193.9596 150.590337 192.539304 143.732542 190.011517 138.676967 
C 187.483729 133.621391 184.054832 130.7808 180.48 130.7808 
C 176.905168 130.7808 173.476271 133.621391 170.948483 138.676967 
C 168.420696 143.732542 167.0004 150.590337 167.0004 157.74 
C 167.0004 164.889663 168.420696 171.747458 170.948483 176.803033 
C 173.476271 181.858609 176.905168 184.6992 180.48 184.6992 
z
" style="fill:none;opacity:0.7;stroke:#000000;stroke-linejoin:miter;"/>
   </g>
   <g id="patch_19">
    <path clip-path="url(#p0841bcc8f1)" d="M 237.84 184.6992 
C 241.414832 184.6992 244.843729 181.858609 247.371517 176.803033 
C 249.899304 171.747458 251.3196 164.889663 251.3196 157.74 
C 251.3196 150.590337 249.899304 143.732542 247.371517 138.676967 
C 244.843729 133.621391 241.414832 130.7808 237.84 130.7808 
C 234.265168 130.7808 230.836271 133.621391 228.308483 138.676967 
C 225.780696 143.732542 224.3604 150.590337 224.3604 157.74 
C 224.3604 164.889663 225.780696 171.747458 228.308483 176.803033 
C 230.836271 181.858609 234.265168 184.6992 237.84 184.6992 
z
" style="fill:none;opacity:0.7;stroke:#000000;stroke-linejoin:miter;"/>
   </g>
   <g id="patch_20">
    <path clip-path="url(#p0841bcc8f1)" d="M 295.2 184.6992 
C 298.774832 184.6992 302.203729 181.858609 304.731517 176.803033 
C 307.259304 171.747458 308.6796 164.889663 308.6796 157.74 
C 308.6796 150.590337 307.259304 143.732542 304.731517 138.676967 
C 302.203729 133.621391 298.774832 130.7808 295.2 130.7808 
C 291.625168 130.7808 288.196271 133.621391 285.668483 138.676967 
C 283.140696 143.732542 281.7204 150.590337 281.7204 157.74 
C 281.7204 164.889663 283.140696 171.747458 285.668483 176.803033 
C 288.196271 181.858609 291.625168 184.6992 295.2 184.6992 
z
" style="fill:none;opacity:0.7;stroke:#000000;stroke-linejoin:miter;"/>
   </g>
   <g id="patch_21">
    <path clip-path="url(#p0841bcc8f1)" d="M 352.56 184.6992 
C 356.134832 184.6992 359.563729 181.858609 362.091517 176.803033 
C 364.619304 171.747458 366.0396 164.889663 366.0396 157.74 
C 366.0396 150.590337 364.619304 143.732542 362.091517 138.676967 
C 359.563729 133.621391 356.134832 130.7808 352.56 130.7808 
C 348.985168 130.7808 345.556271 133.621391 343.028483 138.676967 
C 340.500696 143.732542 339.0804 150.590337 339.0804 157.74 
C 339.0804 164.889663 340.500696 171.747458 343.028483 176.803033 
C 345.556271 181.858609 348.985168 184.6992 352.56 184.6992 
z
" style="fill:none;opacity:0.7;stroke:#000000;stroke-linejoin:miter;"/>
   </g>
   <g id="patch_22">
    <path clip-path="url(#p0841bcc8f1)" d="M 409.92 184.6992 
C 413.494832 184.6992 416.923729 181.858609 419.451517 176.803033 
C 421.979304 171.747458 423.3996 164.889663 423.3996 157.74 
C 423.3996 150.590337 421.979304 143.732542 419.451517 138.676967 
C 416.923729 133.621391 413.494832 130.7808 409.92 130.7808 
C 406.345168 130.7808 402.916271 133.621391 400.388483 138.676967 
C 397.860696 143.732542 396.4404 150.590337 396.4404 157.74 
C 396.4404 164.889663 397.860696 171.747458 400.388483 176.803033 
C 402.916271 181.858609 406.345168 184.6992 409.92 184.6992 
z
" style="fill:none;opacity:0.7;stroke:#000000;stroke-linejoin:miter;"/>
   </g>
   <g id="patch_23">
    <path clip-path="url(#p0841bcc8f1)" d="M 180.48 127.3392 
C 184.054832 127.3392 187.483729 124.498609 190.011517 119.443033 
C 192.539304 114.387458 193.9596 107.529663 193.9596 100.38 
C 193.9596 93.230337 192.539304 86.372542 190.011517 81.316967 
C 187.483729 76.261391 184.054832 73.4208 180.48 73.4208 
C 176.905168 73.4208 173.476271 76.261391 170.948483 81.316967 
C 168.420696 86.372542 167.0004 93.230337 167.0004 100.38 
C 167.0004 107.529663 168.420696 114.387458 170.948483 119.443033 
C 173.476271 124.498609 176.905168 127.3392 180.48 127.3392 
z
" style="fill:none;opacity:0.7;stroke:#000000;stroke-linejoin:miter;"/>
   </g>
   <g id="patch_24">
    <path clip-path="url(#p0841bcc8f1)" d="M 237.84 127.3392 
C 241.414832 127.3392 244.843729 124.498609 247.371517 119.443033 
C 249.899304 114.387458 251.3196 107.529663 251.3196 100.38 
C 251.3196 93.230337 249.899304 86.372542 247.371517 81.316967 
C 244.843729 76.261391 241.414832 73.4208 237.84 73.4208 
C 234.265168 73.4208 230.836271 76.261391 228.308483 81.316967 
C 225.780696 86.372542 224.3604 93.230337 224.3604 100.38 
C 224.3604 107.529663 225.780696 114.387458 228.308483 119.443033 
C 230.836271 124.498609 234.265168 127.3392 237.84 127.3392 
z
" style="fill:none;opacity:0.7;stroke:#000000;stroke-linejoin:miter;"/>
   </g>
   <g id="patch_25">
    <path clip-path="url(#p0841bcc8f1)" d="M 295.2 127.3392 
C 298.774832 127.3392 302.203729 124.498609 304.731517 119.443033 
C 307.259304 114.387458 308.6796 107.529663 308.6796 100.38 
C 308.6796 93.230337 307.259304 86.372542 304.731517 81.316967 
C 302.203729 76.261391 298.774832 73.4208 295.2 73.4208 
C 291.625168 73.4208 288.196271 76.261391 285.668483 81.316967 
C 283.140696 86.372542 281.7204 93.230337 281.7204 100.38 
C 281.7204 107.529663 283.140696 114.387458 285.668483 119.443033 
C 288.196271 124.498609 291.625168 127.3392 295.2 127.3392 
z
" style="fill:none;opacity:0.7;stroke:#000000;stroke-linejoin:miter;"/>
   </g>
   <g id="patch_26">
    <path clip-path="url(#p0841bcc8f1)" d="M 352.56 127.3392 
C 356.134832 127.3392 359.563729 124.498609 362.091517 119.443033 
C 364.619304 114.387458 366.0396 107.529663 366.0396 100.38 
C 366.0396 93.230337 364.619304 86.372542 362.091517 81.316967 
C 359.563729 76.261391 356.134832 73.4208 352.56 73.4208 
C 348.985168 73.4208 345.556271 76.261391 343.028483 81.316967 
C 340.500696 86.372542 339.0804 93.230337 339.0804 100.38 
C 339.0804 107.529663 340.500696 114.387458 343.028483 119.443033 
C 345.556271 124.498609 348.985168 127.3392 352.56 127.3392 
z
" style="fill:none;opacity:0.7;stroke:#000000;stroke-linejoin:miter;"/>
   </g>
   <g id="patch_27">
    <path clip-path="url(#p0841bcc8f1)" d="M 409.92 127.3392 
C 413.494832 127.3392 416.923729 124.498609 419.451517 119.443033 
C 421.979304 114.387458 423.3996 107.529663 423.3996 100.38 
C 423.3996 93.230337 421.979304 86.372542 419.451517 81.316967 
C 416.923729 76.261391 413.494832 73.4208 409.92 73.4208 
C 406.345168 73.4208 402.916271 76.261391 400.388483 81.316967 
C 397.860696 86.372542 396.4404 93.230337 396.4404 100.38 
C 396.4404 107.529663 397.860696 114.387458 400.388483 119.443033 
C 402.916271 124.498609 406.345168 127.3392 409.92 127.3392 
z
" style="fill:none;opacity:0.7;stroke:#000000;stroke-linejoin:miter;"/>
   </g>
   <g id="patch_28">
    <path clip-path="url(#p0841bcc8f1)" d="M 209.16 356.7792 
C 212.734832 356.7792 216.163729 353.938609 218.691517 348.883033 
C 221.219304 343.827458 222.6396 336.969663 222.6396 329.82 
C 222.6396 322.670337 221.219304 315.812542 218.691517 310.756967 
C 216.163729 305.701391 212.734832 302.8608 209.16 302.8608 
C 205.585168 302.8608 202.156271 305.701391 199.628483 310.756967 
C 197.100696 315.812542 195.6804 322.670337 195.6804 329.82 
C 195.6804 336.969663 197.100696 343.827458 199.628483 348.883033 
C 202.156271 353.938609 205.585168 356.7792 209.16 356.7792 
z
" style="fill:none;opacity:0.4;stroke:#000000;stroke-dasharray:6,6;stroke-dashoffset:0;stroke-linejoin:miter;"/>
   </g>
   <g id="patch_29">
    <path clip-path="url(#p0841bcc8f1)" d="M 266.52 356.7792 
C 270.094832 356.7792 273.523729 353.938609 276.051517 348.883033 
C 278.579304 343.827458 279.9996 336.969663 279.9996 329.82 
C 279.9996 322.670337 278.579304 315.812542 276.051517 310.756967 
C 273.523729 305.701391 270.094832 302.8608 266.52 302.8608 
C 262.945168 302.8608 259.516271 305.701391 256.988483 310.756967 
C 254.460696 315.812542 253.0404 322.670337 253.0404 329.82 
C 253.0404 336.969663 254.460696 343.827458 256.988483 348.883033 
C 259.516271 353.938609 262.945168 356.7792 266.52 356.7792 
z
" style="fill:none;opacity:0.4;stroke:#000000;stroke-dasharray:6,6;stroke-dashoffset:0;stroke-linejoin:miter;"/>
   </g>
   <g id="patch_30">
    <path clip-path="url(#p0841bcc8f1)" d="M 323.88 356.7792 
C 327.454832 356.7792 330.883729 353.938609 333.411517 348.883033 
C 335.939304 343.827458 337.3596 336.969663 337.3596 329.82 
C 337.3596 322.670337 335.939304 315.812542 333.411517 310.756967 
C 330.883729 305.701391 327.454832 302.8608 323.88 302.8608 
C 320.305168 302.8608 316.876271 305.701391 314.348483 310.756967 
C 311.820696 315.812542 310.4004 322.670337 310.4004 329.82 
C 310.4004 336.969663 311.820696 343.827458 314.348483 348.883033 
C 316.876271 353.938609 320.305168 356.7792 323.88 356.7792 
z
" style="fill:none;opacity:0.4;stroke:#000000;stroke-dasharray:6,6;stroke-dashoffset:0;stroke-linejoin:miter;"/>
   </g>
   <g id="patch_31">
    <path clip-path="url(#p0841bcc8f1)" d="M 381.24 356.7792 
C 384.814832 356.7792 388.243729 353.938609 390.771517 348.883033 
C 393.299304 343.827458 394.7196 336.969663 394.7196 329.82 
C 394.7196 322.670337 393.299304 315.812542 390.771517 310.756967 
C 388.243729 305.701391 384.814832 302.8608 381.24 302.8608 
C 377.665168 302.8608 374.236271 305.701391 371.708483 310.756967 
C 369.180696 315.812542 367.7604 322.670337 367.7604 329.82 
C 367.7604 336.969663 369.180696 343.827458 371.708483 348.883033 
C 374.236271 353.938609 377.665168 356.7792 381.24 356.7792 
z
" style="fill:none;opacity:0.4;stroke:#000000;stroke-dasharray:6,6;stroke-dashoffset:0;stroke-linejoin:miter;"/>
   </g>
   <g id="patch_32">
    <path clip-path="url(#p0841bcc8f1)" d="M 438.6 356.7792 
C 442.174832 356.7792 445.603729 353.938609 448.131517 348.883033 
C 450.659304 343.827458 452.0796 336.969663 452.0796 329.82 
C 452.0796 322.670337 450.659304 315.812542 448.131517 310.756967 
C 445.603729 305.701391 442.174832 302.8608 438.6 302.8608 
C 435.025168 302.8608 431.596271 305.701391 429.068483 310.756967 
C 426.540696 315.812542 425.1204 322.670337 425.1204 329.82 
C 425.1204 336.969663 426.540696 343.827458 429.068483 348.883033 
C 431.596271 353.938609 435.025168 356.7792 438.6 356.7792 
z
" style="fill:none;opacity:0.4;stroke:#000000;stroke-dasharray:6,6;stroke-dashoffset:0;stroke-linejoin:miter;"/>
   </g>
   <g id="patch_33">
    <path clip-path="url(#p0841bcc8f1)" d="M 151.8 299.4192 
C 155.374832 299.4192 158.803729 296.578609 161.331517 291.523033 
C 163.859304 286.467458 165.2796 279.609663 165.2796 272.46 
C 165.2796 265.310337 163.859304 258.452542 161.331517 253.396967 
C 158.803729 248.341391 155.374832 245.5008 151.8 245.5008 
C 148.225168 245.5008 144.796271 248.341391 142.268483 253.396967 
C 139.740696 258.452542 138.3204 265.310337 138.3204 272.46 
C 138.3204 279.609663 139.740696 286.467458 142.268483 291.523033 
C 144.796271 296.578609 148.225168 299.4192 151.8 299.4192 
z
" style="fill:none;opacity:0.4;stroke:#000000;stroke-dasharray:6,6;stroke-dashoffset:0;stroke-linejoin:miter;"/>
   </g>
   <g id="patch_34">
    <path clip-path="url(#p0841bcc8f1)" d="M 209.16 299.4192 
C 212.734832 299.4192 216.163729 296.578609 218.691517 291.523033 
C 221.219304 286.467458 222.6396 279.609663 222.6396 272.46 
C 222.6396 265.310337 221.219304 258.452542 218.691517 253.396967 
C 216.163729 248.341391 212.734832 245.5008 209.16 245.5008 
C 205.585168 245.5008 202.156271 248.341391 199.628483 253.396967 
C 197.100696 258.452542 195.6804 265.310337 195.6804 272.46 
C 195.6804 279.609663 197.100696 286.467458 199.628483 291.523033 
C 202.156271 296.578609 205.585168 299.4192 209.16 299.4192 
z
" style="fill:none;opacity:0.4;stroke:#000000;stroke-dasharray:6,6;stroke-dashoffset:0;stroke-linejoin:miter;"/>
   </g>
   <g id="patch_35">
    <path clip-path="url(#p0841bcc8f1)" d="M 266.52 299.4192 
C 270.094832 299.4192 273.523729 296.578609 276.051517 291.523033 
C 278.579304 286.467458 279.9996 279.609663 279.9996 272.46 
C 279.9996 265.310337 278.579304 258.452542 276.051517 253.396967 
C 273.523729 248.341391 270.094832 245.5008 266.52 245.5008 
C 262.945168 245.5008 259.516271 248.341391 256.988483 253.396967 
C 254.460696 258.452542 253.0404 265.310337 253.0404 272.46 
C 253.0404 279.609663 254.460696 286.467458 256.988483 291.523033 
C 259.516271 296.578609 262.945168 299.4192 266.52 299.4192 
z
" style="fill:none;opacity:0.4;stroke:#000000;stroke-dasharray:6,6;stroke-dashoffset:0;stroke-linejoin:miter;"/>
   </g>
   <g id="patch_36">
    <path clip-path="url(#p0841bcc8f1)" d="M 323.88 299.4192 
C 327.454832 299.4192 330.883729 296.578609 333.411517 291.523033 
C 335.939304 286.467458 337.3596 279.609663 337.3596 272.46 
C 337.3596 265.310337 335.939304 258.452542 333.411517 253.396967 
C 330.883729 248.341391 327.454832 245.5008 323.88 245.5008 
C 320.305168 245.5008 316.876271 248.341391 314.348483 253.396967 
C 311.820696 258.452542 310.4004 265.310337 310.4004 272.46 
C 310.4004 279.609663 311.820696 286.467458 314.348483 291.523033 
C 316.876271 296.578609 320.305168 299.4192 323.88 299.4192 
z
" style="fill:none;opacity:0.4;stroke:#000000;stroke-dasharray:6,6;stroke-dashoffset:0;stroke-linejoin:miter;"/>
   </g>
   <g id="patch_37">
    <path clip-path="url(#p0841bcc8f1)" d="M 381.24 299.4192 
C 384.814832 299.4192 388.243729 296.578609 390.771517 291.523033 
C 393.299304 286.467458 394.7196 279.609663 394.7196 272.46 
C 394.7196 265.310337 393.299304 258.452542 390.771517 253.396967 
C 388.243729 248.341391 384.814832 245.5008 381.24 245.5008 
C 377.665168 245.5008 374.236271 248.341391 371.708483 253.396967 
C 369.180696 258.452542 367.7604 265.310337 367.7604 272.46 
C 367.7604 279.609663 369.180696 286.467458 371.708483 291.523033 
C 374.236271 296.578609 377.665168 299.4192 381.24 299.4192 
z
" style="fill:none;opacity:0.4;stroke:#000000;stroke-dasharray:6,6;stroke-dashoffset:0;stroke-linejoin:miter;"/>
   </g>
   <g id="patch_38">
    <path clip-path="url(#p0841bcc8f1)" d="M 209.16 242.0592 
C 212.734832 242.0592 216.163729 239.218609 218.691517 234.163033 
C 221.219304 229.107458 222.6396 222.249663 222.6396 215.1 
C 222.6396 207.950337 221.219304 201.092542 218.691517 196.036967 
C 216.163729 190.981391 212.734832 188.1408 209.16 188.1408 
C 205.585168 188.1408 202.156271 190.981391 199.628483 196.036967 
C 197.100696 201.092542 195.6804 207.950337 195.6804 215.1 
C 195.6804 222.249663 197.100696 229.107458 199.628483 234.163033 
C 202.156271 239.218609 205.585168 242.0592 209.16 242.0592 
z
" style="fill:none;opacity:0.4;stroke:#000000;stroke-dasharray:6,6;stroke-dashoffset:0;stroke-linejoin:miter;"/>
   </g>
   <g id="patch_39">
    <path clip-path="url(#p0841bcc8f1)" d="M 266.52 242.0592 
C 270.094832 242.0592 273.523729 239.218609 276.051517 234.163033 
C 278.579304 229.107458 279.9996 222.249663 279.9996 215.1 
C 279.9996 207.950337 278.579304 201.092542 276.051517 196.036967 
C 273.523729 190.981391 270.094832 188.1408 266.52 188.1408 
C 262.945168 188.1408 259.516271 190.981391 256.988483 196.036967 
C 254.460696 201.092542 253.0404 207.950337 253.0404 215.1 
C 253.0404 222.249663 254.460696 229.107458 256.988483 234.163033 
C 259.516271 239.218609 262.945168 242.0592 266.52 242.0592 
z
" style="fill:none;opacity:0.4;stroke:#000000;stroke-dasharray:6,6;stroke-dashoffset:0;stroke-linejoin:miter;"/>
   </g>
   <g id="patch_40">
    <path clip-path="url(#p0841bcc8f1)" d="M 323.88 242.0592 
C 327.454832 242.0592 330.883729 239.218609 333.411517 234.163033 
C 335.939304 229.107458 337.3596 222.249663 337.3596 215.1 
C 337.3596 207.950337 335.939304 201.092542 333.411517 196.036967 
C 330.883729 190.981391 327.454832 188.1408 323.88 188.1408 
C 320.305168 188.1408 316.876271 190.981391 314.348483 196.036967 
C 311.820696 201.092542 310.4004 207.950337 310.4004 215.1 
C 310.4004 222.249663 311.820696 229.107458 314.348483 234.163033 
C 316.876271 239.218609 320.305168 242.0592 323.88 242.0592 
z
" style="fill:none;opacity:0.4;stroke:#000000;stroke-dasharray:6,6;stroke-dashoffset:0;stroke-linejoin:miter;"/>
   </g>
   <g id="patch_41">
    <path clip-path="url(#p0841bcc8f1)" d="M 381.24 242.0592 
C 384.814832 242.0592 388.243729 239.218609 390.771517 234.163033 
C 393.299304 229.107458 394.7196 222.249663 394.7196 215.1 
C 394.7196 207.950337 393.299304 201.092542 390.771517 196.036967 
C 388.243729 190.981391 384.814832 188.1408 381.24 188.1408 
C 377.665168 188.1408 374.236271 190.981391 371.708483 196.036967 
C 369.180696 201.092542 367.7604 207.950337 367.7604 215.1 
C 367.7604 222.249663 369.180696 229.107458 371.708483 234.163033 
C 374.236271 239.218609 377.665168 242.0592 381.24 242.0592 
z
" style="fill:none;opacity:0.4;stroke:#000000;stroke-dasharray:6,6;stroke-dashoffset:0;stroke-linejoin:miter;"/>
   </g>
   <g id="patch_42">
    <path clip-path="url(#p0841bcc8f1)" d="M 438.6 242.0592 
C 442.174832 242.0592 445.603729 239.218609 448.131517 234.163033 
C 450.659304 229.107458 452.0796 222.249663 452.0796 215.1 
C 452.0796 207.950337 450.659304 201.092542 448.131517 196.036967 
C 445.603729 190.981391 442.174832 188.1408 438.6 188.1408 
C 435.025168 188.1408 431.596271 190.981391 429.068483 196.036967 
C 426.540696 201.092542 425.1204 207.950337 425.1204 215.1 
C 425.1204 222.249663 426.540696 229.107458 429.068483 234.163033 
C 431.596271 239.218609 435.025168 242.0592 438.6 242.0592 
z
" style="fill:none;opacity:0.4;stroke:#000000;stroke-dasharray:6,6;stroke-dashoffset:0;stroke-linejoin:miter;"/>
   </g>
   <g id="patch_43">
    <path clip-path="url(#p0841bcc8f1)" d="M 151.8 184.6992 
C 155.374832 184.6992 158.803729 181.858609 161.331517 176.803033 
C 163.859304 171.747458 165.2796 164.889663 165.2796 157.74 
C 165.2796 150.590337 163.859304 143.732542 161.331517 138.676967 
C 158.803729 133.621391 155.374832 130.7808 151.8 130.7808 
C 148.225168 130.7808 144.796271 133.621391 142.268483 138.676967 
C 139.740696 143.732542 138.3204 150.590337 138.3204 157.74 
C 138.3204 164.889663 139.740696 171.747458 142.268483 176.803033 
C 144.796271 181.858609 148.225168 184.6992 151.8 184.6992 
z
" style="fill:none;opacity:0.4;stroke:#000000;stroke-dasharray:6,6;stroke-dashoffset:0;stroke-linejoin:miter;"/>
   </g>
   <g id="patch_44">
    <path clip-path="url(#p0841bcc8f1)" d="M 209.16 184.6992 
C 212.734832 184.6992 216.163729 181.858609 218.691517 176.803033 
C 221.219304 171.747458 222.6396 164.889663 222.6396 157.74 
C 222.6396 150.590337 221.219304 143.732542 218.691517 138.676967 
C 216.163729 133.621391 212.734832 130.7808 209.16 130.7808 
C 205.585168 130.7808 202.156271 133.621391 199.628483 138.676967 
C 197.100696 143.732542 195.6804 150.590337 195.6804 157.74 
C 195.6804 164.889663 197.100696 171.747458 199.628483 176.803033 
C 202.156271 181.858609 205.585168 184.6992 209.16 184.6992 
z
" style="fill:none;opacity:0.4;stroke:#000000;stroke-dasharray:6,6;stroke-dashoffset:0;stroke-linejoin:miter;"/>
   </g>
   <g id="patch_45">
    <path clip-path="url(#p0841bcc8f1)" d="M 266.52 184.6992 
C 270.094832 184.6992 273.523729 181.858609 276.051517 176.803033 
C 278.579304 171.747458 279.9996 164.889663 279.9996 157.74 
C 279.9996 150.590337 278.579304 143.732542 276.051517 138.676967 
C 273.523729 133.621391 270.094832 130.7808 266.52 130.7808 
C 262.945168 130.7808 259.516271 133.621391 256.988483 138.676967 
C 254.460696 143.732542 253.0404 150.590337 253.0404 157.74 
C 253.0404 164.889663 254.460696 171.747458 256.988483 176.803033 
C 259.516271 181.858609 262.945168 184.6992 266.52 184.6992 
z
" style="fill:none;opacity:0.4;stroke:#000000;stroke-dasharray:6,6;stroke-dashoffset:0;stroke-linejoin:miter;"/>
   </g>
   <g id="patch_46">
    <path clip-path="url(#p0841bcc8f1)" d="M 323.88 184.6992 
C 327.454832 184.6992 330.883729 181.858609 333.411517 176.803033 
C 335.939304 171.747458 337.3596 164.889663 337.3596 157.74 
C 337.3596 150.590337 335.939304 143.732542 333.411517 138.676967 
C 330.883729 133.621391 327.454832 130.7808 323.88 130.7808 
C 320.305168 130.7808 316.876271 133.621391 314.348483 138.676967 
C 311.820696 143.732542 310.4004 150.590337 310.4004 157.74 
C 310.4004 164.889663 311.820696 171.747458 314.348483 176.803033 
C 316.876271 181.858609 320.305168 184.6992 323.88 184.6992 
z
" style="fill:none;opacity:0.4;stroke:#000000;stroke-dasharray:6,6;stroke-dashoffset:0;stroke-linejoin:miter;"/>
   </g>
   <g id="patch_47">
    <path clip-path="url(#p0841bcc8f1)" d="M 381.24 184.6992 
C 384.814832 184.6992 388.243729 181.858609 390.771517 176.803033 
C 393.299304 171.747458 394.7196 164.889663 394.7196 157.74 
C 394.7196 150.590337 393.299304 143.732542 390.771517 138.676967 
C 388.243729 133.621391 384.814832 130.7808 381.24 130.7808 
C 377.665168 130.7808 374.236271 133.621391 371.708483 138.676967 
C 369.180696 143.732542 367.7604 150.590337 367.7604 157.74 
C 367.7604 164.889663 369.180696 171.747458 371.708483 176.803033 
C 374.236271 181.858609 377.665168 184.6992 381.24 184.6992 
z
" style="fill:none;opacity:0.4;stroke:#000000;stroke-dasharray:6,6;stroke-dashoffset:0;stroke-linejoin:miter;"/>
   </g>
   <g id="patch_48">
    <path clip-path="url(#p0841bcc8f1)" d="M 209.16 127.3392 
C 212.734832 127.3392 216.163729 124.498609 218.691517 119.443033 
C 221.219304 114.387458 222.6396 107.529663 222.6396 100.38 
C 222.6396 93.230337 221.219304 86.372542 218.691517 81.316967 
C 216.163729 76.261391 212.734832 73.4208 209.16 73.4208 
C 205.585168 73.4208 202.156271 76.261391 199.628483 81.316967 
C 197.100696 86.372542 195.6804 93.230337 195.6804 100.38 
C 195.6804 107.529663 197.100696 114.387458 199.628483 119.443033 
C 202.156271 124.498609 205.585168 127.3392 209.16 127.3392 
z
" style="fill:none;opacity:0.4;stroke:#000000;stroke-dasharray:6,6;stroke-dashoffset:0;stroke-linejoin:miter;"/>
   </g>
   <g id="patch_49">
    <path clip-path="url(#p0841bcc8f1)" d="M 266.52 127.3392 
C 270.094832 127.3392 273.523729 124.498609 276.051517 119.443033 
C 278.579304 114.387458 279.9996 107.529663 279.9996 100.38 
C 279.9996 93.230337 278.579304 86.372542 276.051517 81.316967 
C 273.523729 76.261391 270.094832 73.4208 266.52 73.4208 
C 262.945168 73.4208 259.516271 76.261391 256.988483 81.316967 
C 254.460696 86.372542 253.0404 93.230337 253.0404 100.38 
C 253.0404 107.529663 254.460696 114.387458 256.988483 119.443033 
C 259.516271 124.498609 262.945168 127.3392 266.52 127.3392 
z
" style="fill:none;opacity:0.4;stroke:#000000;stroke-dasharray:6,6;stroke-dashoffset:0;stroke-linejoin:miter;"/>
   </g>
   <g id="patch_50">
    <path clip-path="url(#p0841bcc8f1)" d="M 323.88 127.3392 
C 327.454832 127.3392 330.883729 124.498609 333.411517 119.443033 
C 335.939304 114.387458 337.3596 107.529663 337.3596 100.38 
C 337.3596 93.230337 335.939304 86.372542 333.411517 81.316967 
C 330.883729 76.261391 327.454832 73.4208 323.88 73.4208 
C 320.305168 73.4208 316.876271 76.261391 314.348483 81.316967 
C 311.820696 86.372542 310.4004 93.230337 310.4004 100.38 
C 310.4004 107.529663 311.820696 114.387458 314.348483 119.443033 
C 316.876271 124.498609 320.305168 127.3392 323.88 127.3392 
z
" style="fill:none;opacity:0.4;stroke:#000000;stroke-dasharray:6,6;stroke-dashoffset:0;stroke-linejoin:miter;"/>
   </g>
   <g id="patch_51">
    <path clip-path="url(#p0841bcc8f1)" d="M 381.24 127.3392 
C 384.814832 127.3392 388.243729 124.498609 390.771517 119.443033 
C 393.299304 114.387458 394.7196 107.529663 394.7196 100.38 
C 394.7196 93.230337 393.299304 86.372542 390.771517 81.316967 
C 388.243729 76.261391 384.814832 73.4208 381.24 73.4208 
C 377.665168 73.4208 374.236271 76.261391 371.708483 81.316967 
C 369.180696 86.372542 367.7604 93.230337 367.7604 100.38 
C 367.7604 107.529663 369.180696 114.387458 371.708483 119.443033 
C 374.236271 124.498609 377.665168 127.3392 381.24 127.3392 
z
" style="fill:none;opacity:0.4;stroke:#000000;stroke-dasharray:6,6;stroke-dashoffset:0;stroke-linejoin:miter;"/>
   </g>
   <g id="patch_52">
    <path clip-path="url(#p0841bcc8f1)" d="M 438.6 127.3392 
C 442.174832 127.3392 445.603729 124.498609 448.131517 119.443033 
C 450.659304 114.387458 452.0796 107.529663 452.0796 100.38 
C 452.0796 93.230337 450.659304 86.372542 448.131517 81.316967 
C 445.603729 76.261391 442.174832 73.4208 438.6 73.4208 
C 435.025168 73.4208 431.596271 76.261391 429.068483 81.316967 
C 426.540696 86.372542 425.1204 93.230337 425.1204 100.38 
C 425.1204 107.529663 426.540696 114.387458 429.068483 119.443033 
C 431.596271 124.498609 435.025168 127.3392 438.6 127.3392 
z
" style="fill:none;opacity:0.4;stroke:#000000;stroke-dasharray:6,6;stroke-dashoffset:0;stroke-linejoin:miter;"/>
   </g>
   <g id="line2d_1">
    <defs>
     <path d="M -3 3 
L 3 -3 
M -3 -3 
L 3 3 
" id="m4078c24ec1" style="stroke:#000000;stroke-width:0.5;"/>
    </defs>
    <g clip-path="url(#p0841bcc8f1)">
     <use style="stroke:#000000;stroke-width:0.5;" x="180.48" xlink:href="#m4078c24ec1" y="329.82"/>
     <use style="stroke:#000000;stroke-width:0.5;" x="180.48" xlink:href="#m4078c24ec1" y="272.46"/>
     <use style="stroke:#000000;stroke-width:0.5;" x="180.48" xlink:href="#m4078c24ec1" y="215.1"/>
     <use style="stroke:#000000;stroke-width:0.5;" x="180.48" xlink:href="#m4078c24ec1" y="157.74"/>
     <use style="stroke:#000000;stroke-width:0.5;" x="180.48" xlink:href="#m4078c24ec1" y="100.38"/>
    </g>
   </g>
   <g id="line2d_2">
    <g clip-path="url(#p0841bcc8f1)">
     <use style="stroke:#000000;stroke-width:0.5;" x="237.84" xlink:href="#m4078c24ec1" y="329.82"/>
     <use style="stroke:#000000;stroke-width:0.5;" x="237.84" xlink:href="#m4078c24ec1" y="272.46"/>
     <use style="stroke:#000000;stroke-width:0.5;" x="237.84" xlink:href="#m4078c24ec1" y="215.1"/>
     <use style="stroke:#000000;stroke-width:0.5;" x="237.84" xlink:href="#m4078c24ec1" y="157.74"/>
     <use style="stroke:#000000;stroke-width:0.5;" x="237.84" xlink:href="#m4078c24ec1" y="100.38"/>
    </g>
   </g>
   <g id="line2d_3">
    <g clip-path="url(#p0841bcc8f1)">
     <use style="stroke:#000000;stroke-width:0.5;" x="295.2" xlink:href="#m4078c24ec1" y="329.82"/>
     <use style="stroke:#000000;stroke-width:0.5;" x="295.2" xlink:href="#m4078c24ec1" y="272.46"/>
     <use style="stroke:#000000;stroke-width:0.5;" x="295.2" xlink:href="#m4078c24ec1" y="215.1"/>
     <use style="stroke:#000000;stroke-width:0.5;" x="295.2" xlink:href="#m4078c24ec1" y="157.74"/>
     <use style="stroke:#000000;stroke-width:0.5;" x="295.2" xlink:href="#m4078c24ec1" y="100.38"/>
    </g>
   </g>
   <g id="line2d_4">
    <g clip-path="url(#p0841bcc8f1)">
     <use style="stroke:#000000;stroke-width:0.5;" x="352.56" xlink:href="#m4078c24ec1" y="329.82"/>
     <use style="stroke:#000000;stroke-width:0.5;" x="352.56" xlink:href="#m4078c24ec1" y="272.46"/>
     <use style="stroke:#000000;stroke-width:0.5;" x="352.56" xlink:href="#m4078c24ec1" y="215.1"/>
     <use style="stroke:#000000;stroke-width:0.5;" x="352.56" xlink:href="#m4078c24ec1" y="157.74"/>
     <use style="stroke:#000000;stroke-width:0.5;" x="352.56" xlink:href="#m4078c24ec1" y="100.38"/>
    </g>
   </g>
   <g id="line2d_5">
    <g clip-path="url(#p0841bcc8f1)">
     <use style="stroke:#000000;stroke-width:0.5;" x="409.92" xlink:href="#m4078c24ec1" y="329.82"/>
     <use style="stroke:#000000;stroke-width:0.5;" x="409.92" xlink:href="#m4078c24ec1" y="272.46"/>
     <use style="stroke:#000000;stroke-width:0.5;" x="409.92" xlink:href="#m4078c24ec1" y="215.1"/>
     <use style="stroke:#000000;stroke-width:0.5;" x="409.92" xlink:href="#m4078c24ec1" y="157.74"/>
     <use style="stroke:#000000;stroke-width:0.5;" x="409.92" xlink:href="#m4078c24ec1" y="100.38"/>
    </g>
   </g>
   <g id="patch_53">
    <path d="M 123.12 387.18 
L 123.12 43.02 
" style="fill:none;stroke:#000000;stroke-linecap:square;stroke-linejoin:miter;"/>
   </g>
   <g id="patch_54">
    <path d="M 467.28 387.18 
L 467.28 43.02 
" style="fill:none;stroke:#000000;stroke-linecap:square;stroke-linejoin:miter;"/>
   </g>
   <g id="patch_55">
    <path d="M 123.12 387.18 
L 467.28 387.18 
" style="fill:none;stroke:#000000;stroke-linecap:square;stroke-linejoin:miter;"/>
   </g>
   <g id="patch_56">
    <path d="M 123.12 43.02 
L 467.28 43.02 
" style="fill:none;stroke:#000000;stroke-linecap:square;stroke-linejoin:miter;"/>
   </g>
   <g id="matplotlib.axis_1">
    <g id="xtick_1">
     <g id="line2d_6">
      <defs>
       <path d="M 0 0 
L 0 -4 
" id="mab22c0f45c" style="stroke:#000000;stroke-width:0.5;"/>
      </defs>
      <g>
       <use style="stroke:#000000;stroke-width:0.5;" x="123.12" xlink:href="#mab22c0f45c" y="387.18"/>
      </g>
     </g>
     <g id="line2d_7">
      <defs>
       <path d="M 0 0 
L 0 4 
" id="m5e035aeb7d" style="stroke:#000000;stroke-width:0.5;"/>
      </defs>
      <g>
       <use style="stroke:#000000;stroke-width:0.5;" x="123.12" xlink:href="#m5e035aeb7d" y="43.02"/>
      </g>
     </g>
     <g id="text_1">
      <text style="font-family:DejaVu Sans;font-size:12px;font-style:normal;font-weight:400;text-anchor:middle;" transform="rotate(-0, 123.12, 400.298125)" x="123.12" y="400.298125">−0.1</text>
     </g>
    </g>
    <g id="xtick_2">
     <g id="line2d_8">
      <g>
       <use style="stroke:#000000;stroke-width:0.5;" x="180.48" xlink:href="#mab22c0f45c" y="387.18"/>
      </g>
     </g>
     <g id="line2d_9">
      <g>
       <use style="stroke:#000000;stroke-width:0.5;" x="180.48" xlink:href="#m5e035aeb7d" y="43.02"/>
      </g>
     </g>
     <g id="text_2">
      <text style="font-family:DejaVu Sans;font-size:12px;font-style:normal;font-weight:400;text-anchor:middle;" transform="rotate(-0, 180.48, 400.298125)" x="180.48" y="400.298125">0.0</text>
     </g>
    </g>
    <g id="xtick_3">
     <g id="line2d_10">
      <g>
       <use style="stroke:#000000;stroke-width:0.5;" x="237.84" xlink:href="#mab22c0f45c" y="387.18"/>
      </g>
     </g>
     <g id="line2d_11">
      <g>
       <use style="stroke:#000000;stroke-width:0.5;" x="237.84" xlink:href="#m5e035aeb7d" y="43.02"/>
      </g>
     </g>
     <g id="text_3">
      <text style="font-family:DejaVu Sans;font-size:12px;font-style:normal;font-weight:400;text-anchor:middle;" transform="rotate(-0, 237.84, 400.298125)" x="237.84" y="400.298125">0.1</text>
     </g>
    </g>
    <g id="xtick_4">
     <g id="line2d_12">
      <g>
       <use style="stroke:#000000;stroke-width:0.5;" x="295.2" xlink:href="#mab22c0f45c" y="387.18"/>
      </g>
     </g>
     <g id="line2d_13">
      <g>
       <use style="stroke:#000000;stroke-width:0.5;" x="295.2" xlink:href="#m5e035aeb7d" y="43.02"/>
      </g>
     </g>
     <g id="text_4">
      <text style="font-family:DejaVu Sans;font-size:12px;font-style:normal;font-weight:400;text-anchor:middle;" transform="rotate(-0, 295.2, 400.298125)" x="295.2" y="400.298125">0.2</text>
     </g>
    </g>
    <g id="xtick_5">
     <g id="line2d_14">
      <g>
       <use style="stroke:#000000;stroke-width:0.5;" x="352.56" xlink:href="#mab22c0f45c" y="387.18"/>
      </g>
     </g>
     <g id="line2d_15">
      <g>
       <use style="stroke:#000000;stroke-width:0.5;" x="352.56" xlink:href="#m5e035aeb7d" y="43.02"/>
      </g>
     </g>
     <g id="text_5">
      <text style="font-family:DejaVu Sans;font-size:12px;font-style:normal;font-weight:400;text-anchor:middle;" transform="rotate(-0, 352.56, 400.298125)" x="352.56" y="400.298125">0.3</text>
     </g>
    </g>
    <g id="xtick_6">
     <g id="line2d_16">
      <g>
       <use style="stroke:#000000;stroke-width:0.5;" x="409.92" xlink:href="#mab22c0f45c" y="387.18"/>
      </g>
     </g>
     <g id="line2d_17">
      <g>
       <use style="stroke:#000000;stroke-width:0.5;" x="409.92" xlink:href="#m5e035aeb7d" y="43.02"/>
      </g>
     </g>
     <g id="text_6">
      <text style="font-family:DejaVu Sans;font-size:12px;font-style:normal;font-weight:400;text-anchor:middle;" transform="rotate(-0, 409.92, 400.298125)" x="409.92" y="400.298125">0.4</text>
     </g>
    </g>
    <g id="xtick_7">
     <g id="line2d_18">
      <g>
       <use style="stroke:#000000;stroke-width:0.5;" x="467.28" xlink:href="#mab22c0f45c" y="387.18"/>
      </g>
     </g>
     <g id="line2d_19">
      <g>
       <use style="stroke:#000000;stroke-width:0.5;" x="467.28" xlink:href="#m5e035aeb7d" y="43.02"/>
      </g>
     </g>
     <g id="text_7">
      <text style="font-family:DejaVu Sans;font-size:12px;font-style:normal;font-weight:400;text-anchor:middle;" transform="rotate(-0, 467.28, 400.298125)" x="467.28" y="400.298125">0.5</text>
     </g>
    </g>
    <g id="text_8">
     <text style="font-family:DejaVu Sans;font-size:12px;font-style:normal;font-weight:400;text-anchor:middle;" transform="rotate(-0, 295.2, 416.911875)" x="295.2" y="416.911875">mm</text>
    </g>
   </g>
   <g id="matplotlib.axis_2">
    <g id="ytick_1">
     <g id="line2d_20">
      <defs>
       <path d="M 0 0 
L 4 0 
" id="m991138024c" style="stroke:#000000;stroke-width:0.5;"/>
      </defs>
      <g>
       <use style="stroke:#000000;stroke-width:0.5;" x="123.12" xlink:href="#m991138024c" y="387.18"/>
      </g>
     </g>
     <g id="line2d_21">
      <defs>
       <path d="M 0 0 
L -4 0 
" id="mb63a863346" style="stroke:#000000;stroke-width:0.5;"/>
      </defs>
      <g>
       <use style="stroke:#000000;stroke-width:0.5;" x="467.28" xlink:href="#mb63a863346" y="387.18"/>
      </g>
     </g>
     <g id="text_9">
      <text style="font-family:DejaVu Sans;font-size:12px;font-style:normal;font-weight:400;text-anchor:end;" transform="rotate(-0, 119.12, 390.49125)" x="119.12" y="390.49125">−0.1</text>
     </g>
    </g>
    <g id="ytick_2">
     <g id="line2d_22">
      <g>
       <use style="stroke:#000000;stroke-width:0.5;" x="123.12" xlink:href="#m991138024c" y="329.82"/>
      </g>
     </g>
     <g id="line2d_23">
      <g>
       <use style="stroke:#000000;stroke-width:0.5;" x="467.28" xlink:href="#mb63a863346" y="329.82"/>
      </g>
     </g>
     <g id="text_10">
      <text style="font-family:DejaVu Sans;font-size:12px;font-style:normal;font-weight:400;text-anchor:end;" transform="rotate(-0, 119.12, 333.13125)" x="119.12" y="333.13125">0.0</text>
     </g>
    </g>
    <g id="ytick_3">
     <g id="line2d_24">
      <g>
       <use style="stroke:#000000;stroke-width:0.5;" x="123.12" xlink:href="#m991138024c" y="272.46"/>
      </g>
     </g>
     <g id="line2d_25">
      <g>
       <use style="stroke:#000000;stroke-width:0.5;" x="467.28" xlink:href="#mb63a863346" y="272.46"/>
      </g>
     </g>
     <g id="text_11">
      <text style="font-family:DejaVu Sans;font-size:12px;font-style:normal;font-weight:400;text-anchor:end;" transform="rotate(-0, 119.12, 275.77125)" x="119.12" y="275.77125">0.1</text>
     </g>
    </g>
    <g id="ytick_4">
     <g id="line2d_26">
      <g>
       <use style="stroke:#000000;stroke-width:0.5;" x="123.12" xlink:href="#m991138024c" y="215.1"/>
      </g>
     </g>
     <g id="line2d_27">
      <g>
       <use style="stroke:#000000;stroke-width:0.5;" x="467.28" xlink:href="#mb63a863346" y="215.1"/>
      </g>
     </g>
     <g id="text_12">
      <text style="font-family:DejaVu Sans;font-size:12px;font-style:normal;font-weight:400;text-anchor:end;" transform="rotate(-0, 119.12, 218.41125)" x="119.12" y="218.41125">0.2</text>
     </g>
    </g>
    <g id="ytick_5">
     <g id="line2d_28">
      <g>
       <use style="stroke:#000000;stroke-width:0.5;" x="123.12" xlink:href="#m991138024c" y="157.74"/>
      </g>
     </g>
     <g id="line2d_29">
      <g>
       <use style="stroke:#000000;stroke-width:0.5;" x="467.28" xlink:href="#mb63a863346" y="157.74"/>
      </g>
     </g>
     <g id="text_13">
      <text style="font-family:DejaVu Sans;font-size:12px;font-style:normal;font-weight:400;text-anchor:end;" transform="rotate(-0, 119.12, 161.05125)" x="119.12" y="161.05125">0.3</text>
     </g>
    </g>
    <g id="ytick_6">
     <g id="line2d_30">
      <g>
       <use style="stroke:#000000;stroke-width:0.5;" x="123.12" xlink:href="#m991138024c" y="100.38"/>
      </g>
     </g>
     <g id="line2d_31">
      <g>
       <use style="stroke:#000000;stroke-width:0.5;" x="467.28" xlink:href="#mb63a863346" y="100.38"/>
      </g>
     </g>
     <g id="text_14">
      <text style="font-family:DejaVu Sans;font-size:12px;font-style:normal;font-weight:400;text-anchor:end;" transform="rotate(-0, 119.12, 103.69125)" x="119.12" y="103.69125">0.4</text>
     </g>
    </g>
    <g id="ytick_7">
     <g id="line2d_32">
      <g>
       <use style="stroke:#000000;stroke-width:0.5;" x="123.12" xlink:href="#m991138024c" y="43.02"/>
      </g>
     </g>
     <g id="line2d_33">
      <g>
       <use style="stroke:#000000;stroke-width:0.5;" x="467.28" xlink:href="#mb63a863346" y="43.02"/>
      </g>
     </g>
     <g id="text_15">
      <text style="font-family:DejaVu Sans;font-size:12px;font-style:normal;font-weight:400;text-anchor:end;" transform="rotate(-0, 119.12, 46.33125)" x="119.12" y="46.33125">0.5</text>
     </g>
    </g>
    <g id="text_16">
     <text style="font-family:DejaVu Sans;font-size:12px;font-style:normal;font-weight:400;text-anchor:middle;" transform="rotate(-90, 82.485, 215.1)" x="82.485" y="215.1">mm</text>
    </g>
   </g>
  </g>
 </g>
 <defs>
  <clipPath id="p0841bcc8f1">
   <rect height="344.16" width="344.16" x="123.12" y="43.02"/>
  </clipPath>
 </defs>
</svg>
