<?xml version="1.0" encoding="utf-8" standalone="no"?>
<!DOCTYPE svg PUBLIC "-//W3C//DTD SVG 1.1//EN"
  "http://www.w3.org/Graphics/SVG/1.1/DTD/svg11.dtd">
<!-- Created with matplotlib (http://matplotlib.org/) -->
<svg height="345pt" version="1.1" viewBox="0 0 460 345" width="460pt" xmlns="http://www.w3.org/2000/svg" xmlns:xlink="http://www.w3.org/1999/xlink">
 <defs>
  <style type="text/css">
*{stroke-linecap:butt;stroke-linejoin:round;}
  </style>
 </defs>
 <g id="figure_1">
  <g id="patch_1">
   <path d="M 0 345.6 
L 460.8 345.6 
L 460.8 0 
L 0 0 
z
" style="fill:#ffffff;"/>
  </g>
  <g id="axes_1">
   <g id="patch_2">
    <path d="M 57.6 307.584 
L 414.72 307.584 
L 414.72 41.472 
L 57.6 41.472 
z
" style="fill:#ffffff;"/>
   </g>
   <g id="patch_3">
    <path clip-path="url(#peef62e6eb5)" d="M 87.36 68.0832 
L 94.8 88.0416 
L 87.37488 88.0416 
L 87.37488 280.9728 
L 87.34512 280.9728 
L 87.34512 88.0416 
L 79.92 88.0416 
z
" style="fill:#808080;opacity:0.7;stroke:#808080;stroke-linejoin:miter;stroke-width:2;"/>
   </g>
   <g id="patch_4">
    <path clip-path="url(#peef62e6eb5)" d="M 206.4 68.0832 
L 213.84 88.0416 
L 206.41488 88.0416 
L 206.41488 280.9728 
L 206.38512 280.9728 
L 206.38512 88.0416 
L 198.96 88.0416 
z
" style="fill:#808080;opacity:0.7;stroke:#808080;stroke-linejoin:miter;stroke-width:2;"/>
   </g>
   <g id="patch_5">
    <path clip-path="url(#peef62e6eb5)" d="M 325.44 68.0832 
L 332.88 88.0416 
L 325.45488 88.0416 
L 325.45488 280.9728 
L 325.42512 280.9728 
L 325.42512 88.0416 
L 318 88.0416 
z
" style="fill:#808080;opacity:0.7;stroke:#808080;stroke-linejoin:miter;stroke-width:2;"/>
   </g>
   <g id="patch_6">
    <path clip-path="url(#peef62e6eb5)" d="M 444.48 68.0832 
L 451.92 88.0416 
L 444.49488 88.0416 
L 444.49488 280.9728 
L 444.46512 280.9728 
L 444.46512 88.0416 
L 437.04 88.0416 
z
" style="fill:#808080;opacity:0.7;stroke:#808080;stroke-linejoin:miter;stroke-width:2;"/>
   </g>
   <g id="patch_7">
    <path clip-path="url(#peef62e6eb5)" d="M 146.88 280.9728 
L 139.44 261.0144 
L 146.86512 261.0144 
L 146.86512 68.0832 
L 146.89488 68.0832 
L 146.89488 261.0144 
L 154.32 261.0144 
z
" style="fill:#808080;opacity:0.7;stroke:#808080;stroke-linejoin:miter;stroke-width:2;"/>
   </g>
   <g id="patch_8">
    <path clip-path="url(#peef62e6eb5)" d="M 265.92 280.9728 
L 258.48 261.0144 
L 265.90512 261.0144 
L 265.90512 68.0832 
L 265.93488 68.0832 
L 265.93488 261.0144 
L 273.36 261.0144 
z
" style="fill:#808080;opacity:0.7;stroke:#808080;stroke-linejoin:miter;stroke-width:2;"/>
   </g>
   <g id="patch_9">
    <path clip-path="url(#peef62e6eb5)" d="M 384.96 280.9728 
L 377.52 261.0144 
L 384.94512 261.0144 
L 384.94512 68.0832 
L 384.97488 68.0832 
L 384.97488 261.0144 
L 392.4 261.0144 
z
" style="fill:#808080;opacity:0.7;stroke:#808080;stroke-linejoin:miter;stroke-width:2;"/>
   </g>
   <g id="patch_10">
    <path clip-path="url(#peef62e6eb5)" d="M 504 280.9728 
L 496.56 261.0144 
L 503.98512 261.0144 
L 503.98512 68.0832 
L 504.01488 68.0832 
L 504.01488 261.0144 
L 511.44 261.0144 
z
" style="fill:#808080;opacity:0.7;stroke:#808080;stroke-linejoin:miter;stroke-width:2;"/>
   </g>
   <g id="patch_11">
    <path clip-path="url(#peef62e6eb5)" d="M 146.88 68.0832 
L 124.56 74.736 
L 124.56 68.096506 
L 87.36 68.096506 
L 87.36 68.069894 
L 124.56 68.069894 
L 124.56 61.4304 
z
" style="fill:#808080;opacity:0.7;stroke:#808080;stroke-linejoin:miter;stroke-width:2;"/>
   </g>
   <g id="patch_12">
    <path clip-path="url(#peef62e6eb5)" d="M 265.92 68.0832 
L 243.6 74.736 
L 243.6 68.096506 
L 206.4 68.096506 
L 206.4 68.069894 
L 243.6 68.069894 
L 243.6 61.4304 
z
" style="fill:#808080;opacity:0.7;stroke:#808080;stroke-linejoin:miter;stroke-width:2;"/>
   </g>
   <g id="patch_13">
    <path clip-path="url(#peef62e6eb5)" d="M 384.96 68.0832 
L 362.64 74.736 
L 362.64 68.096506 
L 325.44 68.096506 
L 325.44 68.069894 
L 362.64 68.069894 
L 362.64 61.4304 
z
" style="fill:#808080;opacity:0.7;stroke:#808080;stroke-linejoin:miter;stroke-width:2;"/>
   </g>
   <g id="patch_14">
    <path clip-path="url(#peef62e6eb5)" d="M 504 68.0832 
L 481.68 74.736 
L 481.68 68.096506 
L 444.48 68.096506 
L 444.48 68.069894 
L 481.68 68.069894 
L 481.68 61.4304 
z
" style="fill:#808080;opacity:0.7;stroke:#808080;stroke-linejoin:miter;stroke-width:2;"/>
   </g>
   <g id="patch_15">
    <path clip-path="url(#peef62e6eb5)" d="M 206.4 280.9728 
L 184.08 287.6256 
L 184.08 280.986106 
L 146.88 280.986106 
L 146.88 280.959494 
L 184.08 280.959494 
L 184.08 274.32 
z
" style="fill:#808080;opacity:0.7;stroke:#808080;stroke-linejoin:miter;stroke-width:2;"/>
   </g>
   <g id="patch_16">
    <path clip-path="url(#peef62e6eb5)" d="M 325.44 280.9728 
L 303.12 287.6256 
L 303.12 280.986106 
L 265.92 280.986106 
L 265.92 280.959494 
L 303.12 280.959494 
L 303.12 274.32 
z
" style="fill:#808080;opacity:0.7;stroke:#808080;stroke-linejoin:miter;stroke-width:2;"/>
   </g>
   <g id="patch_17">
    <path clip-path="url(#peef62e6eb5)" d="M 444.48 280.9728 
L 422.16 287.6256 
L 422.16 280.986106 
L 384.96 280.986106 
L 384.96 280.959494 
L 422.16 280.959494 
L 422.16 274.32 
z
" style="fill:#808080;opacity:0.7;stroke:#808080;stroke-linejoin:miter;stroke-width:2;"/>
   </g>
   <g id="patch_18">
    <path clip-path="url(#peef62e6eb5)" d="M 563.52 280.9728 
L 541.2 287.6256 
L 541.2 280.986106 
L 504 280.986106 
L 504 280.959494 
L 541.2 280.959494 
L 541.2 274.32 
z
" style="fill:#808080;opacity:0.7;stroke:#808080;stroke-linejoin:miter;stroke-width:2;"/>
   </g>
   <g id="matplotlib.axis_1">
    <g id="xtick_1">
     <g id="line2d_1">
      <defs>
       <path d="M 0 0 
L 0 3.5 
" id="m3dc591166f" style="stroke:#000000;stroke-width:0.8;"/>
      </defs>
      <g>
       <use style="stroke:#000000;stroke-width:0.8;" x="87.36" xlink:href="#m3dc591166f" y="307.584"/>
      </g>
     </g>
     <g id="text_1">
      <text style="font-family:DejaVu Sans;font-size:10px;font-style:normal;font-weight:400;text-anchor:middle;" transform="rotate(-0, 87.36, 322.182437)" x="87.36" y="322.182437">25</text>
     </g>
    </g>
    <g id="xtick_2">
     <g id="line2d_2">
      <g>
       <use style="stroke:#000000;stroke-width:0.8;" x="117.12" xlink:href="#m3dc591166f" y="307.584"/>
      </g>
     </g>
     <g id="text_2">
      <text style="font-family:DejaVu Sans;font-size:10px;font-style:normal;font-weight:400;text-anchor:middle;" transform="rotate(-0, 117.12, 322.182437)" x="117.12" y="322.182437">26</text>
     </g>
    </g>
    <g id="xtick_3">
     <g id="line2d_3">
      <g>
       <use style="stroke:#000000;stroke-width:0.8;" x="146.88" xlink:href="#m3dc591166f" y="307.584"/>
      </g>
     </g>
     <g id="text_3">
      <text style="font-family:DejaVu Sans;font-size:10px;font-style:normal;font-weight:400;text-anchor:middle;" transform="rotate(-0, 146.88, 322.182437)" x="146.88" y="322.182437">27</text>
     </g>
    </g>
    <g id="xtick_4">
     <g id="line2d_4">
      <g>
       <use style="stroke:#000000;stroke-width:0.8;" x="176.64" xlink:href="#m3dc591166f" y="307.584"/>
      </g>
     </g>
     <g id="text_4">
      <text style="font-family:DejaVu Sans;font-size:10px;font-style:normal;font-weight:400;text-anchor:middle;" transform="rotate(-0, 176.64, 322.182437)" x="176.64" y="322.182437">28</text>
     </g>
    </g>
    <g id="xtick_5">
     <g id="line2d_5">
      <g>
       <use style="stroke:#000000;stroke-width:0.8;" x="206.4" xlink:href="#m3dc591166f" y="307.584"/>
      </g>
     </g>
     <g id="text_5">
      <text style="font-family:DejaVu Sans;font-size:10px;font-style:normal;font-weight:400;text-anchor:middle;" transform="rotate(-0, 206.4, 322.182437)" x="206.4" y="322.182437">29</text>
     </g>
    </g>
    <g id="xtick_6">
     <g id="line2d_6">
      <g>
       <use style="stroke:#000000;stroke-width:0.8;" x="236.16" xlink:href="#m3dc591166f" y="307.584"/>
      </g>
     </g>
     <g id="text_6">
      <text style="font-family:DejaVu Sans;font-size:10px;font-style:normal;font-weight:400;text-anchor:middle;" transform="rotate(-0, 236.16, 322.182437)" x="236.16" y="322.182437">30</text>
     </g>
    </g>
    <g id="xtick_7">
     <g id="line2d_7">
      <g>
       <use style="stroke:#000000;stroke-width:0.8;" x="265.92" xlink:href="#m3dc591166f" y="307.584"/>
      </g>
     </g>
     <g id="text_7">
      <text style="font-family:DejaVu Sans;font-size:10px;font-style:normal;font-weight:400;text-anchor:middle;" transform="rotate(-0, 265.92, 322.182437)" x="265.92" y="322.182437">31</text>
     </g>
    </g>
    <g id="xtick_8">
     <g id="line2d_8">
      <g>
       <use style="stroke:#000000;stroke-width:0.8;" x="295.68" xlink:href="#m3dc591166f" y="307.584"/>
      </g>
     </g>
     <g id="text_8">
      <text style="font-family:DejaVu Sans;font-size:10px;font-style:normal;font-weight:400;text-anchor:middle;" transform="rotate(-0, 295.68, 322.182437)" x="295.68" y="322.182437">32</text>
     </g>
    </g>
    <g id="xtick_9">
     <g id="line2d_9">
      <g>
       <use style="stroke:#000000;stroke-width:0.8;" x="325.44" xlink:href="#m3dc591166f" y="307.584"/>
      </g>
     </g>
     <g id="text_9">
      <text style="font-family:DejaVu Sans;font-size:10px;font-style:normal;font-weight:400;text-anchor:middle;" transform="rotate(-0, 325.44, 322.182437)" x="325.44" y="322.182437">33</text>
     </g>
    </g>
    <g id="xtick_10">
     <g id="line2d_10">
      <g>
       <use style="stroke:#000000;stroke-width:0.8;" x="355.2" xlink:href="#m3dc591166f" y="307.584"/>
      </g>
     </g>
     <g id="text_10">
      <text style="font-family:DejaVu Sans;font-size:10px;font-style:normal;font-weight:400;text-anchor:middle;" transform="rotate(-0, 355.2, 322.182437)" x="355.2" y="322.182437">34</text>
     </g>
    </g>
    <g id="text_11">
     <text style="font-family:DejaVu Sans;font-size:10px;font-style:normal;font-weight:400;text-anchor:middle;" transform="rotate(-0, 236.16, 335.860562)" x="236.16" y="335.860562">Instrument reference system (mm)</text>
    </g>
   </g>
   <g id="matplotlib.axis_2">
    <g id="ytick_1">
     <g id="line2d_11">
      <defs>
       <path d="M 0 0 
L -3.5 0 
" id="madaf43979a" style="stroke:#000000;stroke-width:0.8;"/>
      </defs>
      <g>
       <use style="stroke:#000000;stroke-width:0.8;" x="57.6" xlink:href="#madaf43979a" y="307.584"/>
      </g>
     </g>
     <g id="text_12">
      <text style="font-family:DejaVu Sans;font-size:10px;font-style:normal;font-weight:400;text-anchor:end;" transform="rotate(-0, 50.6, 311.383219)" x="50.6" y="311.383219">189</text>
     </g>
    </g>
    <g id="ytick_2">
     <g id="line2d_12">
      <g>
       <use style="stroke:#000000;stroke-width:0.8;" x="57.6" xlink:href="#madaf43979a" y="280.9728"/>
      </g>
     </g>
     <g id="text_13">
      <text style="font-family:DejaVu Sans;font-size:10px;font-style:normal;font-weight:400;text-anchor:end;" transform="rotate(-0, 50.6, 284.772019)" x="50.6" y="284.772019">188</text>
     </g>
    </g>
    <g id="ytick_3">
     <g id="line2d_13">
      <g>
       <use style="stroke:#000000;stroke-width:0.8;" x="57.6" xlink:href="#madaf43979a" y="254.3616"/>
      </g>
     </g>
     <g id="text_14">
      <text style="font-family:DejaVu Sans;font-size:10px;font-style:normal;font-weight:400;text-anchor:end;" transform="rotate(-0, 50.6, 258.160819)" x="50.6" y="258.160819">187</text>
     </g>
    </g>
    <g id="ytick_4">
     <g id="line2d_14">
      <g>
       <use style="stroke:#000000;stroke-width:0.8;" x="57.6" xlink:href="#madaf43979a" y="227.7504"/>
      </g>
     </g>
     <g id="text_15">
      <text style="font-family:DejaVu Sans;font-size:10px;font-style:normal;font-weight:400;text-anchor:end;" transform="rotate(-0, 50.6, 231.549619)" x="50.6" y="231.549619">186</text>
     </g>
    </g>
    <g id="ytick_5">
     <g id="line2d_15">
      <g>
       <use style="stroke:#000000;stroke-width:0.8;" x="57.6" xlink:href="#madaf43979a" y="201.1392"/>
      </g>
     </g>
     <g id="text_16">
      <text style="font-family:DejaVu Sans;font-size:10px;font-style:normal;font-weight:400;text-anchor:end;" transform="rotate(-0, 50.6, 204.938419)" x="50.6" y="204.938419">185</text>
     </g>
    </g>
    <g id="ytick_6">
     <g id="line2d_16">
      <g>
       <use style="stroke:#000000;stroke-width:0.8;" x="57.6" xlink:href="#madaf43979a" y="174.528"/>
      </g>
     </g>
     <g id="text_17">
      <text style="font-family:DejaVu Sans;font-size:10px;font-style:normal;font-weight:400;text-anchor:end;" transform="rotate(-0, 50.6, 178.327219)" x="50.6" y="178.327219">184</text>
     </g>
    </g>
    <g id="ytick_7">
     <g id="line2d_17">
      <g>
       <use style="stroke:#000000;stroke-width:0.8;" x="57.6" xlink:href="#madaf43979a" y="147.9168"/>
      </g>
     </g>
     <g id="text_18">
      <text style="font-family:DejaVu Sans;font-size:10px;font-style:normal;font-weight:400;text-anchor:end;" transform="rotate(-0, 50.6, 151.716019)" x="50.6" y="151.716019">183</text>
     </g>
    </g>
    <g id="ytick_8">
     <g id="line2d_18">
      <g>
       <use style="stroke:#000000;stroke-width:0.8;" x="57.6" xlink:href="#madaf43979a" y="121.3056"/>
      </g>
     </g>
     <g id="text_19">
      <text style="font-family:DejaVu Sans;font-size:10px;font-style:normal;font-weight:400;text-anchor:end;" transform="rotate(-0, 50.6, 125.104819)" x="50.6" y="125.104819">182</text>
     </g>
    </g>
    <g id="ytick_9">
     <g id="line2d_19">
      <g>
       <use style="stroke:#000000;stroke-width:0.8;" x="57.6" xlink:href="#madaf43979a" y="94.6944"/>
      </g>
     </g>
     <g id="text_20">
      <text style="font-family:DejaVu Sans;font-size:10px;font-style:normal;font-weight:400;text-anchor:end;" transform="rotate(-0, 50.6, 98.493619)" x="50.6" y="98.493619">181</text>
     </g>
    </g>
    <g id="ytick_10">
     <g id="line2d_20">
      <g>
       <use style="stroke:#000000;stroke-width:0.8;" x="57.6" xlink:href="#madaf43979a" y="68.0832"/>
      </g>
     </g>
     <g id="text_21">
      <text style="font-family:DejaVu Sans;font-size:10px;font-style:normal;font-weight:400;text-anchor:end;" transform="rotate(-0, 50.6, 71.882419)" x="50.6" y="71.882419">180</text>
     </g>
    </g>
    <g id="text_22">
     <text style="font-family:DejaVu Sans;font-size:10px;font-style:normal;font-weight:400;text-anchor:middle;" transform="rotate(-90, 25.432812, 174.528)" x="25.432812" y="174.528">Instrument reference system (mm)</text>
    </g>
   </g>
   <g id="LineCollection_1">
    <path clip-path="url(#peef62e6eb5)" d="M 146.88 307.584 
L 146.88 41.472 
" style="fill:none;stroke:#000000;stroke-width:1.5;"/>
   </g>
   <g id="LineCollection_2">
    <path clip-path="url(#peef62e6eb5)" d="M 325.44 307.584 
L 325.44 41.472 
" style="fill:none;stroke:#000000;stroke-width:1.5;"/>
   </g>
   <g id="patch_19">
    <path d="M 57.6 307.584 
L 57.6 41.472 
" style="fill:none;stroke:#000000;stroke-linecap:square;stroke-linejoin:miter;stroke-width:0.8;"/>
   </g>
   <g id="patch_20">
    <path d="M 414.72 307.584 
L 414.72 41.472 
" style="fill:none;stroke:#000000;stroke-linecap:square;stroke-linejoin:miter;stroke-width:0.8;"/>
   </g>
   <g id="patch_21">
    <path d="M 57.6 307.584 
L 414.72 307.584 
" style="fill:none;stroke:#000000;stroke-linecap:square;stroke-linejoin:miter;stroke-width:0.8;"/>
   </g>
   <g id="patch_22">
    <path d="M 57.6 41.472 
L 414.72 41.472 
" style="fill:none;stroke:#000000;stroke-linecap:square;stroke-linejoin:miter;stroke-width:0.8;"/>
   </g>
   <g id="text_23">
    <g id="patch_23">
     <path d="M 146.88 292.731394 
C 149.998416 292.731394 152.989529 291.492434 155.194581 289.287381 
C 157.399634 287.082329 158.638594 284.091216 158.638594 280.9728 
C 158.638594 277.854384 157.399634 274.863271 155.194581 272.658219 
C 152.989529 270.453166 149.998416 269.214206 146.88 269.214206 
C 143.761584 269.214206 140.770471 270.453166 138.565419 272.658219 
C 136.360366 274.863271 135.121406 277.854384 135.121406 280.9728 
C 135.121406 284.091216 136.360366 287.082329 138.565419 289.287381 
C 140.770471 291.492434 143.761584 292.731394 146.88 292.731394 
z
" style="stroke:#ffffff;stroke-linejoin:miter;stroke-width:2;"/>
    </g>
    <text style="fill:#ffffff;font-family:DejaVu Sans;font-size:15px;font-style:normal;font-weight:400;text-anchor:middle;" transform="rotate(-0, 146.88, 285.111862)" x="146.88" y="285.111862">4</text>
   </g>
   <g id="text_24">
    <g id="patch_24">
     <path d="M 206.4 292.731394 
C 209.518416 292.731394 212.509529 291.492434 214.714581 289.287381 
C 216.919634 287.082329 218.158594 284.091216 218.158594 280.9728 
C 218.158594 277.854384 216.919634 274.863271 214.714581 272.658219 
C 212.509529 270.453166 209.518416 269.214206 206.4 269.214206 
C 203.281584 269.214206 200.290471 270.453166 198.085419 272.658219 
C 195.880366 274.863271 194.641406 277.854384 194.641406 280.9728 
C 194.641406 284.091216 195.880366 287.082329 198.085419 289.287381 
C 200.290471 291.492434 203.281584 292.731394 206.4 292.731394 
z
" style="stroke:#ffffff;stroke-linejoin:miter;stroke-width:2;"/>
    </g>
    <text style="fill:#ffffff;font-family:DejaVu Sans;font-size:15px;font-style:normal;font-weight:400;text-anchor:middle;" transform="rotate(-0, 206.4, 285.111862)" x="206.4" y="285.111862">3</text>
   </g>
   <g id="text_25">
    <g id="patch_25">
     <path d="M 265.92 292.731394 
C 269.038416 292.731394 272.029529 291.492434 274.234581 289.287381 
C 276.439634 287.082329 277.678594 284.091216 277.678594 280.9728 
C 277.678594 277.854384 276.439634 274.863271 274.234581 272.658219 
C 272.029529 270.453166 269.038416 269.214206 265.92 269.214206 
C 262.801584 269.214206 259.810471 270.453166 257.605419 272.658219 
C 255.400366 274.863271 254.161406 277.854384 254.161406 280.9728 
C 254.161406 284.091216 255.400366 287.082329 257.605419 289.287381 
C 259.810471 291.492434 262.801584 292.731394 265.92 292.731394 
z
" style="stroke:#ffffff;stroke-linejoin:miter;stroke-width:2;"/>
    </g>
    <text style="fill:#ffffff;font-family:DejaVu Sans;font-size:15px;font-style:normal;font-weight:400;text-anchor:middle;" transform="rotate(-0, 265.92, 285.111862)" x="265.92" y="285.111862">2</text>
   </g>
   <g id="text_26">
    <g id="patch_26">
     <path d="M 325.44 292.731394 
C 328.558416 292.731394 331.549529 291.492434 333.754581 289.287381 
C 335.959634 287.082329 337.198594 284.091216 337.198594 280.9728 
C 337.198594 277.854384 335.959634 274.863271 333.754581 272.658219 
C 331.549529 270.453166 328.558416 269.214206 325.44 269.214206 
C 322.321584 269.214206 319.330471 270.453166 317.125419 272.658219 
C 314.920366 274.863271 313.681406 277.854384 313.681406 280.9728 
C 313.681406 284.091216 314.920366 287.082329 317.125419 289.287381 
C 319.330471 291.492434 322.321584 292.731394 325.44 292.731394 
z
" style="stroke:#ffffff;stroke-linejoin:miter;stroke-width:2;"/>
    </g>
    <text style="fill:#ffffff;font-family:DejaVu Sans;font-size:15px;font-style:normal;font-weight:400;text-anchor:middle;" transform="rotate(-0, 325.44, 285.111862)" x="325.44" y="285.111862">1</text>
   </g>
   <g id="text_27">
    <g id="patch_27">
     <path d="M 146.88 241.79415 
C 150.604446 241.79415 154.17685 240.314412 156.810431 237.680831 
C 159.444012 235.04725 160.92375 231.474846 160.92375 227.7504 
C 160.92375 224.025954 159.444012 220.45355 156.810431 217.819969 
C 154.17685 215.186388 150.604446 213.70665 146.88 213.70665 
C 143.155554 213.70665 139.58315 215.186388 136.949569 217.819969 
C 134.315988 220.45355 132.83625 224.025954 132.83625 227.7504 
C 132.83625 231.474846 134.315988 235.04725 136.949569 237.680831 
C 139.58315 240.314412 143.155554 241.79415 146.88 241.79415 
z
" style="stroke:#ffffff;stroke-linejoin:miter;stroke-width:2;"/>
    </g>
    <text style="fill:#ffffff;font-family:DejaVu Sans;font-size:15px;font-style:normal;font-weight:400;text-anchor:middle;" transform="rotate(-0, 146.88, 231.889462)" x="146.88" y="231.889462">16</text>
   </g>
   <g id="text_28">
    <g id="patch_28">
     <path d="M 206.4 241.79415 
C 210.124446 241.79415 213.69685 240.314412 216.330431 237.680831 
C 218.964012 235.04725 220.44375 231.474846 220.44375 227.7504 
C 220.44375 224.025954 218.964012 220.45355 216.330431 217.819969 
C 213.69685 215.186388 210.124446 213.70665 206.4 213.70665 
C 202.675554 213.70665 199.10315 215.186388 196.469569 217.819969 
C 193.835988 220.45355 192.35625 224.025954 192.35625 227.7504 
C 192.35625 231.474846 193.835988 235.04725 196.469569 237.680831 
C 199.10315 240.314412 202.675554 241.79415 206.4 241.79415 
z
" style="stroke:#ffffff;stroke-linejoin:miter;stroke-width:2;"/>
    </g>
    <text style="fill:#ffffff;font-family:DejaVu Sans;font-size:15px;font-style:normal;font-weight:400;text-anchor:middle;" transform="rotate(-0, 206.4, 231.889462)" x="206.4" y="231.889462">15</text>
   </g>
   <g id="text_29">
    <g id="patch_29">
     <path d="M 265.92 241.79415 
C 269.644446 241.79415 273.21685 240.314412 275.850431 237.680831 
C 278.484012 235.04725 279.96375 231.474846 279.96375 227.7504 
C 279.96375 224.025954 278.484012 220.45355 275.850431 217.819969 
C 273.21685 215.186388 269.644446 213.70665 265.92 213.70665 
C 262.195554 213.70665 258.62315 215.186388 255.989569 217.819969 
C 253.355988 220.45355 251.87625 224.025954 251.87625 227.7504 
C 251.87625 231.474846 253.355988 235.04725 255.989569 237.680831 
C 258.62315 240.314412 262.195554 241.79415 265.92 241.79415 
z
" style="stroke:#ffffff;stroke-linejoin:miter;stroke-width:2;"/>
    </g>
    <text style="fill:#ffffff;font-family:DejaVu Sans;font-size:15px;font-style:normal;font-weight:400;text-anchor:middle;" transform="rotate(-0, 265.92, 231.889462)" x="265.92" y="231.889462">14</text>
   </g>
   <g id="text_30">
    <g id="patch_30">
     <path d="M 325.44 241.79415 
C 329.164446 241.79415 332.73685 240.314412 335.370431 237.680831 
C 338.004012 235.04725 339.48375 231.474846 339.48375 227.7504 
C 339.48375 224.025954 338.004012 220.45355 335.370431 217.819969 
C 332.73685 215.186388 329.164446 213.70665 325.44 213.70665 
C 321.715554 213.70665 318.14315 215.186388 315.509569 217.819969 
C 312.875988 220.45355 311.39625 224.025954 311.39625 227.7504 
C 311.39625 231.474846 312.875988 235.04725 315.509569 237.680831 
C 318.14315 240.314412 321.715554 241.79415 325.44 241.79415 
z
" style="stroke:#ffffff;stroke-linejoin:miter;stroke-width:2;"/>
    </g>
    <text style="fill:#ffffff;font-family:DejaVu Sans;font-size:15px;font-style:normal;font-weight:400;text-anchor:middle;" transform="rotate(-0, 325.44, 231.889462)" x="325.44" y="231.889462">13</text>
   </g>
   <g id="text_31">
    <g id="patch_31">
     <path d="M 146.88 188.57175 
C 150.604446 188.57175 154.17685 187.092012 156.810431 184.458431 
C 159.444012 181.82485 160.92375 178.252446 160.92375 174.528 
C 160.92375 170.803554 159.444012 167.23115 156.810431 164.597569 
C 154.17685 161.963988 150.604446 160.48425 146.88 160.48425 
C 143.155554 160.48425 139.58315 161.963988 136.949569 164.597569 
C 134.315988 167.23115 132.83625 170.803554 132.83625 174.528 
C 132.83625 178.252446 134.315988 181.82485 136.949569 184.458431 
C 139.58315 187.092012 143.155554 188.57175 146.88 188.57175 
z
" style="stroke:#ffffff;stroke-linejoin:miter;stroke-width:2;"/>
    </g>
    <text style="fill:#ffffff;font-family:DejaVu Sans;font-size:15px;font-style:normal;font-weight:400;text-anchor:middle;" transform="rotate(-0, 146.88, 178.667062)" x="146.88" y="178.667062">12</text>
   </g>
   <g id="text_32">
    <g id="patch_32">
     <path d="M 206.4 188.57175 
C 210.124446 188.57175 213.69685 187.092012 216.330431 184.458431 
C 218.964012 181.82485 220.44375 178.252446 220.44375 174.528 
C 220.44375 170.803554 218.964012 167.23115 216.330431 164.597569 
C 213.69685 161.963988 210.124446 160.48425 206.4 160.48425 
C 202.675554 160.48425 199.10315 161.963988 196.469569 164.597569 
C 193.835988 167.23115 192.35625 170.803554 192.35625 174.528 
C 192.35625 178.252446 193.835988 181.82485 196.469569 184.458431 
C 199.10315 187.092012 202.675554 188.57175 206.4 188.57175 
z
" style="stroke:#ffffff;stroke-linejoin:miter;stroke-width:2;"/>
    </g>
    <text style="fill:#ffffff;font-family:DejaVu Sans;font-size:15px;font-style:normal;font-weight:400;text-anchor:middle;" transform="rotate(-0, 206.4, 178.667062)" x="206.4" y="178.667062">11</text>
   </g>
   <g id="text_33">
    <g id="patch_33">
     <path d="M 265.92 188.57175 
C 269.644446 188.57175 273.21685 187.092012 275.850431 184.458431 
C 278.484012 181.82485 279.96375 178.252446 279.96375 174.528 
C 279.96375 170.803554 278.484012 167.23115 275.850431 164.597569 
C 273.21685 161.963988 269.644446 160.48425 265.92 160.48425 
C 262.195554 160.48425 258.62315 161.963988 255.989569 164.597569 
C 253.355988 167.23115 251.87625 170.803554 251.87625 174.528 
C 251.87625 178.252446 253.355988 181.82485 255.989569 184.458431 
C 258.62315 187.092012 262.195554 188.57175 265.92 188.57175 
z
" style="stroke:#ffffff;stroke-linejoin:miter;stroke-width:2;"/>
    </g>
    <text style="fill:#ffffff;font-family:DejaVu Sans;font-size:15px;font-style:normal;font-weight:400;text-anchor:middle;" transform="rotate(-0, 265.92, 178.667062)" x="265.92" y="178.667062">10</text>
   </g>
   <g id="text_34">
    <g id="patch_34">
     <path d="M 325.44 186.286594 
C 328.558416 186.286594 331.549529 185.047634 333.754581 182.842581 
C 335.959634 180.637529 337.198594 177.646416 337.198594 174.528 
C 337.198594 171.409584 335.959634 168.418471 333.754581 166.213419 
C 331.549529 164.008366 328.558416 162.769406 325.44 162.769406 
C 322.321584 162.769406 319.330471 164.008366 317.125419 166.213419 
C 314.920366 168.418471 313.681406 171.409584 313.681406 174.528 
C 313.681406 177.646416 314.920366 180.637529 317.125419 182.842581 
C 319.330471 185.047634 322.321584 186.286594 325.44 186.286594 
z
" style="stroke:#ffffff;stroke-linejoin:miter;stroke-width:2;"/>
    </g>
    <text style="fill:#ffffff;font-family:DejaVu Sans;font-size:15px;font-style:normal;font-weight:400;text-anchor:middle;" transform="rotate(-0, 325.44, 178.667062)" x="325.44" y="178.667062">9</text>
   </g>
   <g id="text_35">
    <g id="patch_35">
     <path d="M 146.88 133.064194 
C 149.998416 133.064194 152.989529 131.825234 155.194581 129.620181 
C 157.399634 127.415129 158.638594 124.424016 158.638594 121.3056 
C 158.638594 118.187184 157.399634 115.196071 155.194581 112.991019 
C 152.989529 110.785966 149.998416 109.547006 146.88 109.547006 
C 143.761584 109.547006 140.770471 110.785966 138.565419 112.991019 
C 136.360366 115.196071 135.121406 118.187184 135.121406 121.3056 
C 135.121406 124.424016 136.360366 127.415129 138.565419 129.620181 
C 140.770471 131.825234 143.761584 133.064194 146.88 133.064194 
z
" style="stroke:#ffffff;stroke-linejoin:miter;stroke-width:2;"/>
    </g>
    <text style="fill:#ffffff;font-family:DejaVu Sans;font-size:15px;font-style:normal;font-weight:400;text-anchor:middle;" transform="rotate(-0, 146.88, 125.444662)" x="146.88" y="125.444662">8</text>
   </g>
   <g id="text_36">
    <g id="patch_36">
     <path d="M 206.4 133.064194 
C 209.518416 133.064194 212.509529 131.825234 214.714581 129.620181 
C 216.919634 127.415129 218.158594 124.424016 218.158594 121.3056 
C 218.158594 118.187184 216.919634 115.196071 214.714581 112.991019 
C 212.509529 110.785966 209.518416 109.547006 206.4 109.547006 
C 203.281584 109.547006 200.290471 110.785966 198.085419 112.991019 
C 195.880366 115.196071 194.641406 118.187184 194.641406 121.3056 
C 194.641406 124.424016 195.880366 127.415129 198.085419 129.620181 
C 200.290471 131.825234 203.281584 133.064194 206.4 133.064194 
z
" style="stroke:#ffffff;stroke-linejoin:miter;stroke-width:2;"/>
    </g>
    <text style="fill:#ffffff;font-family:DejaVu Sans;font-size:15px;font-style:normal;font-weight:400;text-anchor:middle;" transform="rotate(-0, 206.4, 125.444662)" x="206.4" y="125.444662">7</text>
   </g>
   <g id="text_37">
    <g id="patch_37">
     <path d="M 265.92 133.064194 
C 269.038416 133.064194 272.029529 131.825234 274.234581 129.620181 
C 276.439634 127.415129 277.678594 124.424016 277.678594 121.3056 
C 277.678594 118.187184 276.439634 115.196071 274.234581 112.991019 
C 272.029529 110.785966 269.038416 109.547006 265.92 109.547006 
C 262.801584 109.547006 259.810471 110.785966 257.605419 112.991019 
C 255.400366 115.196071 254.161406 118.187184 254.161406 121.3056 
C 254.161406 124.424016 255.400366 127.415129 257.605419 129.620181 
C 259.810471 131.825234 262.801584 133.064194 265.92 133.064194 
z
" style="stroke:#ffffff;stroke-linejoin:miter;stroke-width:2;"/>
    </g>
    <text style="fill:#ffffff;font-family:DejaVu Sans;font-size:15px;font-style:normal;font-weight:400;text-anchor:middle;" transform="rotate(-0, 265.92, 125.444662)" x="265.92" y="125.444662">6</text>
   </g>
   <g id="text_38">
    <g id="patch_38">
     <path d="M 325.44 133.064194 
C 328.558416 133.064194 331.549529 131.825234 333.754581 129.620181 
C 335.959634 127.415129 337.198594 124.424016 337.198594 121.3056 
C 337.198594 118.187184 335.959634 115.196071 333.754581 112.991019 
C 331.549529 110.785966 328.558416 109.547006 325.44 109.547006 
C 322.321584 109.547006 319.330471 110.785966 317.125419 112.991019 
C 314.920366 115.196071 313.681406 118.187184 313.681406 121.3056 
C 313.681406 124.424016 314.920366 127.415129 317.125419 129.620181 
C 319.330471 131.825234 322.321584 133.064194 325.44 133.064194 
z
" style="stroke:#ffffff;stroke-linejoin:miter;stroke-width:2;"/>
    </g>
    <text style="fill:#ffffff;font-family:DejaVu Sans;font-size:15px;font-style:normal;font-weight:400;text-anchor:middle;" transform="rotate(-0, 325.44, 125.444662)" x="325.44" y="125.444662">5</text>
   </g>
   <g id="text_39">
    <g id="patch_39">
     <path d="M 146.88 82.12695 
C 150.604446 82.12695 154.17685 80.647212 156.810431 78.013631 
C 159.444012 75.38005 160.92375 71.807646 160.92375 68.0832 
C 160.92375 64.358754 159.444012 60.78635 156.810431 58.152769 
C 154.17685 55.519188 150.604446 54.03945 146.88 54.03945 
C 143.155554 54.03945 139.58315 55.519188 136.949569 58.152769 
C 134.315988 60.78635 132.83625 64.358754 132.83625 68.0832 
C 132.83625 71.807646 134.315988 75.38005 136.949569 78.013631 
C 139.58315 80.647212 143.155554 82.12695 146.88 82.12695 
z
" style="stroke:#ffffff;stroke-linejoin:miter;stroke-width:2;"/>
    </g>
    <text style="fill:#ffffff;font-family:DejaVu Sans;font-size:15px;font-style:normal;font-weight:400;text-anchor:middle;" transform="rotate(-0, 146.88, 72.222262)" x="146.88" y="72.222262">20</text>
   </g>
   <g id="text_40">
    <g id="patch_40">
     <path d="M 206.4 82.12695 
C 210.124446 82.12695 213.69685 80.647212 216.330431 78.013631 
C 218.964012 75.38005 220.44375 71.807646 220.44375 68.0832 
C 220.44375 64.358754 218.964012 60.78635 216.330431 58.152769 
C 213.69685 55.519188 210.124446 54.03945 206.4 54.03945 
C 202.675554 54.03945 199.10315 55.519188 196.469569 58.152769 
C 193.835988 60.78635 192.35625 64.358754 192.35625 68.0832 
C 192.35625 71.807646 193.835988 75.38005 196.469569 78.013631 
C 199.10315 80.647212 202.675554 82.12695 206.4 82.12695 
z
" style="stroke:#ffffff;stroke-linejoin:miter;stroke-width:2;"/>
    </g>
    <text style="fill:#ffffff;font-family:DejaVu Sans;font-size:15px;font-style:normal;font-weight:400;text-anchor:middle;" transform="rotate(-0, 206.4, 72.222262)" x="206.4" y="72.222262">19</text>
   </g>
   <g id="text_41">
    <g id="patch_41">
     <path d="M 265.92 82.12695 
C 269.644446 82.12695 273.21685 80.647212 275.850431 78.013631 
C 278.484012 75.38005 279.96375 71.807646 279.96375 68.0832 
C 279.96375 64.358754 278.484012 60.78635 275.850431 58.152769 
C 273.21685 55.519188 269.644446 54.03945 265.92 54.03945 
C 262.195554 54.03945 258.62315 55.519188 255.989569 58.152769 
C 253.355988 60.78635 251.87625 64.358754 251.87625 68.0832 
C 251.87625 71.807646 253.355988 75.38005 255.989569 78.013631 
C 258.62315 80.647212 262.195554 82.12695 265.92 82.12695 
z
" style="stroke:#ffffff;stroke-linejoin:miter;stroke-width:2;"/>
    </g>
    <text style="fill:#ffffff;font-family:DejaVu Sans;font-size:15px;font-style:normal;font-weight:400;text-anchor:middle;" transform="rotate(-0, 265.92, 72.222262)" x="265.92" y="72.222262">18</text>
   </g>
   <g id="text_42">
    <g id="patch_42">
     <path d="M 325.44 82.12695 
C 329.164446 82.12695 332.73685 80.647212 335.370431 78.013631 
C 338.004012 75.38005 339.48375 71.807646 339.48375 68.0832 
C 339.48375 64.358754 338.004012 60.78635 335.370431 58.152769 
C 332.73685 55.519188 329.164446 54.03945 325.44 54.03945 
C 321.715554 54.03945 318.14315 55.519188 315.509569 58.152769 
C 312.875988 60.78635 311.39625 64.358754 311.39625 68.0832 
C 311.39625 71.807646 312.875988 75.38005 315.509569 78.013631 
C 318.14315 80.647212 321.715554 82.12695 325.44 82.12695 
z
" style="stroke:#ffffff;stroke-linejoin:miter;stroke-width:2;"/>
    </g>
    <text style="fill:#ffffff;font-family:DejaVu Sans;font-size:15px;font-style:normal;font-weight:400;text-anchor:middle;" transform="rotate(-0, 325.44, 72.222262)" x="325.44" y="72.222262">17</text>
   </g>
   <g id="text_43">
    <text style="font-family:DejaVu Sans;font-size:16px;font-style:normal;font-weight:400;text-anchor:start;" transform="rotate(-0, 87.36, 60.09984)" x="87.36" y="60.09984">Offset</text>
   </g>
   <g id="text_44">
    <text style="font-family:DejaVu Sans;font-size:16px;font-style:normal;font-weight:400;text-anchor:start;" transform="rotate(-0, 355.2, 60.09984)" x="355.2" y="60.09984">Offset</text>
   </g>
  </g>
 </g>
 <defs>
  <clipPath id="peef62e6eb5">
   <rect height="266.112" width="357.12" x="57.6" y="41.472"/>
  </clipPath>
 </defs>
</svg>
