<?xml version="1.0" encoding="utf-8" standalone="no"?>
<!DOCTYPE svg PUBLIC "-//W3C//DTD SVG 1.1//EN"
  "http://www.w3.org/Graphics/SVG/1.1/DTD/svg11.dtd">
<!-- Created with matplotlib (https://matplotlib.org/) -->
<svg height="720pt" version="1.1" viewBox="0 0 1440 720" width="1440pt" xmlns="http://www.w3.org/2000/svg" xmlns:xlink="http://www.w3.org/1999/xlink">
 <defs>
  <style type="text/css">
*{stroke-linecap:butt;stroke-linejoin:round;}
  </style>
 </defs>
 <g id="figure_1">
  <g id="patch_1">
   <path d="M 0 720 
L 1440 720 
L 1440 0 
L 0 0 
z
" style="fill:#ffffff;"/>
  </g>
  <g id="axes_1">
   <g id="patch_2">
    <path d="M 180 533.794406 
L 687.272727 533.794406 
L 687.272727 182.605594 
L 180 182.605594 
z
" style="fill:#ffffff;"/>
   </g>
   <g id="matplotlib.axis_1">
    <g id="xtick_1">
     <g id="line2d_1">
      <defs>
       <path d="M 0 0 
L 0 3.5 
" id="m30d6223cce" style="stroke:#000000;stroke-width:0.8;"/>
      </defs>
      <g>
       <use style="stroke:#000000;stroke-width:0.8;" x="219.020979" xlink:href="#m30d6223cce" y="533.794406"/>
      </g>
     </g>
     <g id="text_1">
      <text style="font-family:DejaVu Sans;font-size:10px;font-style:normal;font-weight:normal;text-anchor:middle;" transform="rotate(-0, 219.020979, 548.392843)" x="219.020979" y="548.392843">5</text>
     </g>
    </g>
    <g id="xtick_2">
     <g id="line2d_2">
      <g>
       <use style="stroke:#000000;stroke-width:0.8;" x="316.573427" xlink:href="#m30d6223cce" y="533.794406"/>
      </g>
     </g>
     <g id="text_2">
      <text style="font-family:DejaVu Sans;font-size:10px;font-style:normal;font-weight:normal;text-anchor:middle;" transform="rotate(-0, 316.573427, 548.392843)" x="316.573427" y="548.392843">10</text>
     </g>
    </g>
    <g id="xtick_3">
     <g id="line2d_3">
      <g>
       <use style="stroke:#000000;stroke-width:0.8;" x="414.125874" xlink:href="#m30d6223cce" y="533.794406"/>
      </g>
     </g>
     <g id="text_3">
      <text style="font-family:DejaVu Sans;font-size:10px;font-style:normal;font-weight:normal;text-anchor:middle;" transform="rotate(-0, 414.125874, 548.392843)" x="414.125874" y="548.392843">15</text>
     </g>
    </g>
    <g id="xtick_4">
     <g id="line2d_4">
      <g>
       <use style="stroke:#000000;stroke-width:0.8;" x="511.678322" xlink:href="#m30d6223cce" y="533.794406"/>
      </g>
     </g>
     <g id="text_4">
      <text style="font-family:DejaVu Sans;font-size:10px;font-style:normal;font-weight:normal;text-anchor:middle;" transform="rotate(-0, 511.678322, 548.392843)" x="511.678322" y="548.392843">20</text>
     </g>
    </g>
    <g id="xtick_5">
     <g id="line2d_5">
      <g>
       <use style="stroke:#000000;stroke-width:0.8;" x="609.230769" xlink:href="#m30d6223cce" y="533.794406"/>
      </g>
     </g>
     <g id="text_5">
      <text style="font-family:DejaVu Sans;font-size:10px;font-style:normal;font-weight:normal;text-anchor:middle;" transform="rotate(-0, 609.230769, 548.392843)" x="609.230769" y="548.392843">25</text>
     </g>
    </g>
    <g id="text_6">
     <text style="font-family:DejaVu Sans;font-size:10px;font-style:normal;font-weight:normal;text-anchor:middle;" transform="rotate(-0, 433.636364, 562.070968)" x="433.636364" y="562.070968">Coordinates (a.u.)</text>
    </g>
   </g>
   <g id="matplotlib.axis_2">
    <g id="ytick_1">
     <g id="line2d_6">
      <defs>
       <path d="M 0 0 
L -3.5 0 
" id="m15ec8384c0" style="stroke:#000000;stroke-width:0.8;"/>
      </defs>
      <g>
       <use style="stroke:#000000;stroke-width:0.8;" x="180" xlink:href="#m15ec8384c0" y="533.794406"/>
      </g>
     </g>
     <g id="text_7">
      <text style="font-family:DejaVu Sans;font-size:10px;font-style:normal;font-weight:normal;text-anchor:end;" transform="rotate(-0, 173, 537.593624)" x="173" y="537.593624">−4</text>
     </g>
    </g>
    <g id="ytick_2">
     <g id="line2d_7">
      <g>
       <use style="stroke:#000000;stroke-width:0.8;" x="180" xlink:href="#m15ec8384c0" y="494.773427"/>
      </g>
     </g>
     <g id="text_8">
      <text style="font-family:DejaVu Sans;font-size:10px;font-style:normal;font-weight:normal;text-anchor:end;" transform="rotate(-0, 173, 498.572645)" x="173" y="498.572645">−2</text>
     </g>
    </g>
    <g id="ytick_3">
     <g id="line2d_8">
      <g>
       <use style="stroke:#000000;stroke-width:0.8;" x="180" xlink:href="#m15ec8384c0" y="455.752448"/>
      </g>
     </g>
     <g id="text_9">
      <text style="font-family:DejaVu Sans;font-size:10px;font-style:normal;font-weight:normal;text-anchor:end;" transform="rotate(-0, 173, 459.551666)" x="173" y="459.551666">0</text>
     </g>
    </g>
    <g id="ytick_4">
     <g id="line2d_9">
      <g>
       <use style="stroke:#000000;stroke-width:0.8;" x="180" xlink:href="#m15ec8384c0" y="416.731469"/>
      </g>
     </g>
     <g id="text_10">
      <text style="font-family:DejaVu Sans;font-size:10px;font-style:normal;font-weight:normal;text-anchor:end;" transform="rotate(-0, 173, 420.530687)" x="173" y="420.530687">2</text>
     </g>
    </g>
    <g id="ytick_5">
     <g id="line2d_10">
      <g>
       <use style="stroke:#000000;stroke-width:0.8;" x="180" xlink:href="#m15ec8384c0" y="377.71049"/>
      </g>
     </g>
     <g id="text_11">
      <text style="font-family:DejaVu Sans;font-size:10px;font-style:normal;font-weight:normal;text-anchor:end;" transform="rotate(-0, 173, 381.509708)" x="173" y="381.509708">4</text>
     </g>
    </g>
    <g id="ytick_6">
     <g id="line2d_11">
      <g>
       <use style="stroke:#000000;stroke-width:0.8;" x="180" xlink:href="#m15ec8384c0" y="338.68951"/>
      </g>
     </g>
     <g id="text_12">
      <text style="font-family:DejaVu Sans;font-size:10px;font-style:normal;font-weight:normal;text-anchor:end;" transform="rotate(-0, 173, 342.488729)" x="173" y="342.488729">6</text>
     </g>
    </g>
    <g id="ytick_7">
     <g id="line2d_12">
      <g>
       <use style="stroke:#000000;stroke-width:0.8;" x="180" xlink:href="#m15ec8384c0" y="299.668531"/>
      </g>
     </g>
     <g id="text_13">
      <text style="font-family:DejaVu Sans;font-size:10px;font-style:normal;font-weight:normal;text-anchor:end;" transform="rotate(-0, 173, 303.46775)" x="173" y="303.46775">8</text>
     </g>
    </g>
    <g id="ytick_8">
     <g id="line2d_13">
      <g>
       <use style="stroke:#000000;stroke-width:0.8;" x="180" xlink:href="#m15ec8384c0" y="260.647552"/>
      </g>
     </g>
     <g id="text_14">
      <text style="font-family:DejaVu Sans;font-size:10px;font-style:normal;font-weight:normal;text-anchor:end;" transform="rotate(-0, 173, 264.446771)" x="173" y="264.446771">10</text>
     </g>
    </g>
    <g id="ytick_9">
     <g id="line2d_14">
      <g>
       <use style="stroke:#000000;stroke-width:0.8;" x="180" xlink:href="#m15ec8384c0" y="221.626573"/>
      </g>
     </g>
     <g id="text_15">
      <text style="font-family:DejaVu Sans;font-size:10px;font-style:normal;font-weight:normal;text-anchor:end;" transform="rotate(-0, 173, 225.425792)" x="173" y="225.425792">12</text>
     </g>
    </g>
    <g id="ytick_10">
     <g id="line2d_15">
      <g>
       <use style="stroke:#000000;stroke-width:0.8;" x="180" xlink:href="#m15ec8384c0" y="182.605594"/>
      </g>
     </g>
     <g id="text_16">
      <text style="font-family:DejaVu Sans;font-size:10px;font-style:normal;font-weight:normal;text-anchor:end;" transform="rotate(-0, 173, 186.404813)" x="173" y="186.404813">14</text>
     </g>
    </g>
    <g id="text_17">
     <text style="font-family:DejaVu Sans;font-size:10px;font-style:normal;font-weight:normal;text-anchor:middle;" transform="rotate(-90, 152.178125, 358.2)" x="152.178125" y="358.2">Heights (a.u.)</text>
    </g>
   </g>
   <g id="LineCollection_1">
    <path clip-path="url(#p38a8f34a7e)" d="M 207.54422 475.692705 
L 207.54422 431.607294 
" style="fill:none;stroke:#808080;stroke-dasharray:5.55,2.4;stroke-dashoffset:0;stroke-width:1.5;"/>
   </g>
   <g id="LineCollection_2">
    <path clip-path="url(#p38a8f34a7e)" d="M 224.759358 465.575961 
L 224.759358 412.188154 
" style="fill:none;stroke:#808080;stroke-dasharray:5.55,2.4;stroke-dashoffset:0;stroke-width:1.5;"/>
   </g>
   <g id="LineCollection_3">
    <path clip-path="url(#p38a8f34a7e)" d="M 241.974496 433.113095 
L 241.974496 370.422893 
" style="fill:none;stroke:#808080;stroke-dasharray:5.55,2.4;stroke-dashoffset:0;stroke-width:1.5;"/>
   </g>
   <g id="LineCollection_4">
    <path clip-path="url(#p38a8f34a7e)" d="M 259.189634 436.231987 
L 259.189634 364.23939 
" style="fill:none;stroke:#808080;stroke-dasharray:5.55,2.4;stroke-dashoffset:0;stroke-width:1.5;"/>
   </g>
   <g id="LineCollection_5">
    <path clip-path="url(#p38a8f34a7e)" d="M 276.404772 448.472071 
L 276.404772 367.177079 
" style="fill:none;stroke:#808080;stroke-dasharray:5.55,2.4;stroke-dashoffset:0;stroke-width:1.5;"/>
   </g>
   <g id="LineCollection_6">
    <path clip-path="url(#p38a8f34a7e)" d="M 293.61991 462.869858 
L 293.61991 372.272471 
" style="fill:none;stroke:#808080;stroke-dasharray:5.55,2.4;stroke-dashoffset:0;stroke-width:1.5;"/>
   </g>
   <g id="LineCollection_7">
    <path clip-path="url(#p38a8f34a7e)" d="M 310.835047 474.529957 
L 310.835047 374.630175 
" style="fill:none;stroke:#808080;stroke-dasharray:5.55,2.4;stroke-dashoffset:0;stroke-width:1.5;"/>
   </g>
   <g id="LineCollection_8">
    <path clip-path="url(#p38a8f34a7e)" d="M 328.050185 473.929356 
L 328.050185 364.727178 
" style="fill:none;stroke:#808080;stroke-dasharray:5.55,2.4;stroke-dashoffset:0;stroke-width:1.5;"/>
   </g>
   <g id="LineCollection_9">
    <path clip-path="url(#p38a8f34a7e)" d="M 345.265323 439.027164 
L 345.265323 320.522591 
" style="fill:none;stroke:#808080;stroke-dasharray:5.55,2.4;stroke-dashoffset:0;stroke-width:1.5;"/>
   </g>
   <g id="LineCollection_10">
    <path clip-path="url(#p38a8f34a7e)" d="M 362.480461 434.780232 
L 362.480461 306.973264 
" style="fill:none;stroke:#808080;stroke-dasharray:5.55,2.4;stroke-dashoffset:0;stroke-width:1.5;"/>
   </g>
   <g id="LineCollection_11">
    <path clip-path="url(#p38a8f34a7e)" d="M 379.695599 445.432222 
L 379.695599 308.322859 
" style="fill:none;stroke:#808080;stroke-dasharray:5.55,2.4;stroke-dashoffset:0;stroke-width:1.5;"/>
   </g>
   <g id="LineCollection_12">
    <path clip-path="url(#p38a8f34a7e)" d="M 396.910736 459.750816 
L 396.910736 313.339057 
" style="fill:none;stroke:#808080;stroke-dasharray:5.55,2.4;stroke-dashoffset:0;stroke-width:1.5;"/>
   </g>
   <g id="LineCollection_13">
    <path clip-path="url(#p38a8f34a7e)" d="M 414.125874 472.684171 
L 414.125874 316.970017 
" style="fill:none;stroke:#808080;stroke-dasharray:5.55,2.4;stroke-dashoffset:0;stroke-width:1.5;"/>
   </g>
   <g id="LineCollection_14">
    <path clip-path="url(#p38a8f34a7e)" d="M 431.341012 477.949936 
L 431.341012 312.933387 
" style="fill:none;stroke:#808080;stroke-dasharray:5.55,2.4;stroke-dashoffset:0;stroke-width:1.5;"/>
   </g>
   <g id="LineCollection_15">
    <path clip-path="url(#p38a8f34a7e)" d="M 448.55615 450.127794 
L 448.55615 275.808849 
" style="fill:none;stroke:#808080;stroke-dasharray:5.55,2.4;stroke-dashoffset:0;stroke-width:1.5;"/>
   </g>
   <g id="LineCollection_16">
    <path clip-path="url(#p38a8f34a7e)" d="M 465.771288 434.328607 
L 465.771288 250.707268 
" style="fill:none;stroke:#808080;stroke-dasharray:5.55,2.4;stroke-dashoffset:0;stroke-width:1.5;"/>
   </g>
   <g id="LineCollection_17">
    <path clip-path="url(#p38a8f34a7e)" d="M 482.986425 442.676451 
L 482.986425 249.752716 
" style="fill:none;stroke:#808080;stroke-dasharray:5.55,2.4;stroke-dashoffset:0;stroke-width:1.5;"/>
   </g>
   <g id="LineCollection_18">
    <path clip-path="url(#p38a8f34a7e)" d="M 500.201563 456.516993 
L 500.201563 254.290863 
" style="fill:none;stroke:#808080;stroke-dasharray:5.55,2.4;stroke-dashoffset:0;stroke-width:1.5;"/>
   </g>
   <g id="LineCollection_19">
    <path clip-path="url(#p38a8f34a7e)" d="M 517.416701 470.32902 
L 517.416701 258.800494 
" style="fill:none;stroke:#808080;stroke-dasharray:5.55,2.4;stroke-dashoffset:0;stroke-width:1.5;"/>
   </g>
   <g id="LineCollection_20">
    <path clip-path="url(#p38a8f34a7e)" d="M 534.631839 479.082888 
L 534.631839 258.251967 
" style="fill:none;stroke:#808080;stroke-dasharray:5.55,2.4;stroke-dashoffset:0;stroke-width:1.5;"/>
   </g>
   <g id="LineCollection_21">
    <path clip-path="url(#p38a8f34a7e)" d="M 551.846977 463.869943 
L 551.846977 233.736627 
" style="fill:none;stroke:#808080;stroke-dasharray:5.55,2.4;stroke-dashoffset:0;stroke-width:1.5;"/>
   </g>
   <g id="LineCollection_22">
    <path clip-path="url(#p38a8f34a7e)" d="M 569.062114 435.530899 
L 569.062114 196.095188 
" style="fill:none;stroke:#808080;stroke-dasharray:5.55,2.4;stroke-dashoffset:0;stroke-width:1.5;"/>
   </g>
   <g id="LineCollection_23">
    <path clip-path="url(#p38a8f34a7e)" d="M 586.277252 440.301879 
L 586.277252 191.563773 
" style="fill:none;stroke:#808080;stroke-dasharray:5.55,2.4;stroke-dashoffset:0;stroke-width:1.5;"/>
   </g>
   <g id="LineCollection_24">
    <path clip-path="url(#p38a8f34a7e)" d="M 603.49239 453.255474 
L 603.49239 195.214972 
" style="fill:none;stroke:#808080;stroke-dasharray:5.55,2.4;stroke-dashoffset:0;stroke-width:1.5;"/>
   </g>
   <g id="LineCollection_25">
    <path clip-path="url(#p38a8f34a7e)" d="M 620.707528 467.751708 
L 620.707528 200.408811 
" style="fill:none;stroke:#808080;stroke-dasharray:5.55,2.4;stroke-dashoffset:0;stroke-width:1.5;"/>
   </g>
   <g id="line2d_16">
    <path clip-path="url(#p38a8f34a7e)" d="M 207.54422 431.607294 
L 224.759358 412.188154 
L 241.974496 370.422893 
L 259.189634 364.23939 
L 276.404772 367.177079 
L 293.61991 372.272471 
L 310.835047 374.630175 
L 328.050185 364.727178 
L 345.265323 320.522591 
L 362.480461 306.973264 
L 379.695599 308.322859 
L 396.910736 313.339057 
L 414.125874 316.970017 
L 431.341012 312.933387 
L 448.55615 275.808849 
L 465.771288 250.707268 
L 482.986425 249.752716 
L 500.201563 254.290863 
L 517.416701 258.800494 
L 534.631839 258.251967 
L 551.846977 233.736627 
L 569.062114 196.095188 
L 586.277252 191.563773 
L 603.49239 195.214972 
L 620.707528 200.408811 
" style="fill:none;stroke:#808080;stroke-linecap:square;stroke-width:1.5;"/>
    <defs>
     <path d="M -5 5 
L 5 -5 
M -5 -5 
L 5 5 
" id="m4061101df1" style="stroke:#808080;"/>
    </defs>
    <g clip-path="url(#p38a8f34a7e)">
     <use style="fill:#808080;stroke:#808080;" x="207.54422" xlink:href="#m4061101df1" y="431.607294"/>
     <use style="fill:#808080;stroke:#808080;" x="224.759358" xlink:href="#m4061101df1" y="412.188154"/>
     <use style="fill:#808080;stroke:#808080;" x="241.974496" xlink:href="#m4061101df1" y="370.422893"/>
     <use style="fill:#808080;stroke:#808080;" x="259.189634" xlink:href="#m4061101df1" y="364.23939"/>
     <use style="fill:#808080;stroke:#808080;" x="276.404772" xlink:href="#m4061101df1" y="367.177079"/>
     <use style="fill:#808080;stroke:#808080;" x="293.61991" xlink:href="#m4061101df1" y="372.272471"/>
     <use style="fill:#808080;stroke:#808080;" x="310.835047" xlink:href="#m4061101df1" y="374.630175"/>
     <use style="fill:#808080;stroke:#808080;" x="328.050185" xlink:href="#m4061101df1" y="364.727178"/>
     <use style="fill:#808080;stroke:#808080;" x="345.265323" xlink:href="#m4061101df1" y="320.522591"/>
     <use style="fill:#808080;stroke:#808080;" x="362.480461" xlink:href="#m4061101df1" y="306.973264"/>
     <use style="fill:#808080;stroke:#808080;" x="379.695599" xlink:href="#m4061101df1" y="308.322859"/>
     <use style="fill:#808080;stroke:#808080;" x="396.910736" xlink:href="#m4061101df1" y="313.339057"/>
     <use style="fill:#808080;stroke:#808080;" x="414.125874" xlink:href="#m4061101df1" y="316.970017"/>
     <use style="fill:#808080;stroke:#808080;" x="431.341012" xlink:href="#m4061101df1" y="312.933387"/>
     <use style="fill:#808080;stroke:#808080;" x="448.55615" xlink:href="#m4061101df1" y="275.808849"/>
     <use style="fill:#808080;stroke:#808080;" x="465.771288" xlink:href="#m4061101df1" y="250.707268"/>
     <use style="fill:#808080;stroke:#808080;" x="482.986425" xlink:href="#m4061101df1" y="249.752716"/>
     <use style="fill:#808080;stroke:#808080;" x="500.201563" xlink:href="#m4061101df1" y="254.290863"/>
     <use style="fill:#808080;stroke:#808080;" x="517.416701" xlink:href="#m4061101df1" y="258.800494"/>
     <use style="fill:#808080;stroke:#808080;" x="534.631839" xlink:href="#m4061101df1" y="258.251967"/>
     <use style="fill:#808080;stroke:#808080;" x="551.846977" xlink:href="#m4061101df1" y="233.736627"/>
     <use style="fill:#808080;stroke:#808080;" x="569.062114" xlink:href="#m4061101df1" y="196.095188"/>
     <use style="fill:#808080;stroke:#808080;" x="586.277252" xlink:href="#m4061101df1" y="191.563773"/>
     <use style="fill:#808080;stroke:#808080;" x="603.49239" xlink:href="#m4061101df1" y="195.214972"/>
     <use style="fill:#808080;stroke:#808080;" x="620.707528" xlink:href="#m4061101df1" y="200.408811"/>
    </g>
   </g>
   <g id="line2d_17">
    <path clip-path="url(#p38a8f34a7e)" d="M 207.54422 411.667036 
L 224.759358 402.364641 
L 241.974496 393.062246 
L 259.189634 383.75985 
L 276.404772 374.457455 
L 293.61991 365.15506 
L 310.835047 355.852665 
L 328.050185 346.55027 
L 345.265323 337.247874 
L 362.480461 327.945479 
L 379.695599 318.643084 
L 396.910736 309.340689 
L 414.125874 300.038293 
L 431.341012 290.735898 
L 448.55615 281.433503 
L 465.771288 272.131108 
L 482.986425 262.828713 
L 500.201563 253.526317 
L 517.416701 244.223922 
L 534.631839 234.921527 
L 551.846977 225.619132 
L 569.062114 216.316736 
L 586.277252 207.014341 
L 603.49239 197.711946 
L 620.707528 188.409551 
" style="fill:none;stroke:#808080;stroke-dasharray:5.55,2.4;stroke-dashoffset:0;stroke-width:1.5;"/>
   </g>
   <g id="line2d_18">
    <path clip-path="url(#p38a8f34a7e)" d="M 207.54422 475.692705 
L 224.759358 465.575961 
L 241.974496 433.113095 
L 259.189634 436.231987 
L 276.404772 448.472071 
L 293.61991 462.869858 
L 310.835047 474.529957 
L 328.050185 473.929356 
L 345.265323 439.027164 
L 362.480461 434.780232 
L 379.695599 445.432222 
L 396.910736 459.750816 
L 414.125874 472.684171 
L 431.341012 477.949936 
L 448.55615 450.127794 
L 465.771288 434.328607 
L 482.986425 442.676451 
L 500.201563 456.516993 
L 517.416701 470.32902 
L 534.631839 479.082888 
L 551.846977 463.869943 
L 569.062114 435.530899 
L 586.277252 440.301879 
L 603.49239 453.255474 
L 620.707528 467.751708 
" style="fill:none;stroke:#000000;stroke-linecap:square;stroke-width:1.5;"/>
    <defs>
     <path d="M -5 5 
L 5 -5 
M -5 -5 
L 5 5 
" id="m50dfd47742" style="stroke:#000000;"/>
    </defs>
    <g clip-path="url(#p38a8f34a7e)">
     <use style="stroke:#000000;" x="207.54422" xlink:href="#m50dfd47742" y="475.692705"/>
     <use style="stroke:#000000;" x="224.759358" xlink:href="#m50dfd47742" y="465.575961"/>
     <use style="stroke:#000000;" x="241.974496" xlink:href="#m50dfd47742" y="433.113095"/>
     <use style="stroke:#000000;" x="259.189634" xlink:href="#m50dfd47742" y="436.231987"/>
     <use style="stroke:#000000;" x="276.404772" xlink:href="#m50dfd47742" y="448.472071"/>
     <use style="stroke:#000000;" x="293.61991" xlink:href="#m50dfd47742" y="462.869858"/>
     <use style="stroke:#000000;" x="310.835047" xlink:href="#m50dfd47742" y="474.529957"/>
     <use style="stroke:#000000;" x="328.050185" xlink:href="#m50dfd47742" y="473.929356"/>
     <use style="stroke:#000000;" x="345.265323" xlink:href="#m50dfd47742" y="439.027164"/>
     <use style="stroke:#000000;" x="362.480461" xlink:href="#m50dfd47742" y="434.780232"/>
     <use style="stroke:#000000;" x="379.695599" xlink:href="#m50dfd47742" y="445.432222"/>
     <use style="stroke:#000000;" x="396.910736" xlink:href="#m50dfd47742" y="459.750816"/>
     <use style="stroke:#000000;" x="414.125874" xlink:href="#m50dfd47742" y="472.684171"/>
     <use style="stroke:#000000;" x="431.341012" xlink:href="#m50dfd47742" y="477.949936"/>
     <use style="stroke:#000000;" x="448.55615" xlink:href="#m50dfd47742" y="450.127794"/>
     <use style="stroke:#000000;" x="465.771288" xlink:href="#m50dfd47742" y="434.328607"/>
     <use style="stroke:#000000;" x="482.986425" xlink:href="#m50dfd47742" y="442.676451"/>
     <use style="stroke:#000000;" x="500.201563" xlink:href="#m50dfd47742" y="456.516993"/>
     <use style="stroke:#000000;" x="517.416701" xlink:href="#m50dfd47742" y="470.32902"/>
     <use style="stroke:#000000;" x="534.631839" xlink:href="#m50dfd47742" y="479.082888"/>
     <use style="stroke:#000000;" x="551.846977" xlink:href="#m50dfd47742" y="463.869943"/>
     <use style="stroke:#000000;" x="569.062114" xlink:href="#m50dfd47742" y="435.530899"/>
     <use style="stroke:#000000;" x="586.277252" xlink:href="#m50dfd47742" y="440.301879"/>
     <use style="stroke:#000000;" x="603.49239" xlink:href="#m50dfd47742" y="453.255474"/>
     <use style="stroke:#000000;" x="620.707528" xlink:href="#m50dfd47742" y="467.751708"/>
    </g>
   </g>
   <g id="patch_3">
    <path d="M 180 533.794406 
L 180 182.605594 
" style="fill:none;stroke:#000000;stroke-linecap:square;stroke-linejoin:miter;stroke-width:0.8;"/>
   </g>
   <g id="patch_4">
    <path d="M 687.272727 533.794406 
L 687.272727 182.605594 
" style="fill:none;stroke:#000000;stroke-linecap:square;stroke-linejoin:miter;stroke-width:0.8;"/>
   </g>
   <g id="patch_5">
    <path d="M 180 533.794406 
L 687.272727 533.794406 
" style="fill:none;stroke:#000000;stroke-linecap:square;stroke-linejoin:miter;stroke-width:0.8;"/>
   </g>
   <g id="patch_6">
    <path d="M 180 182.605594 
L 687.272727 182.605594 
" style="fill:none;stroke:#000000;stroke-linecap:square;stroke-linejoin:miter;stroke-width:0.8;"/>
   </g>
   <g id="text_18">
    <text style="font-family:DejaVu Sans;font-size:12px;font-style:normal;font-weight:normal;text-anchor:middle;" transform="rotate(-0, 433.636364, 176.605594)" x="433.636364" y="176.605594">Subtraction</text>
   </g>
  </g>
  <g id="axes_2">
   <g id="patch_7">
    <path d="M 788.727273 533.794406 
L 1296 533.794406 
L 1296 182.605594 
L 788.727273 182.605594 
z
" style="fill:#ffffff;"/>
   </g>
   <g id="patch_8">
    <path clip-path="url(#p62a3236ee4)" d="M 730.195804 545.150505 
C 753.904446 545.150505 776.645235 535.730962 793.409777 518.96642 
C 810.174318 502.201879 819.593862 479.46109 819.593862 455.752448 
C 819.593862 432.043806 810.174318 409.303016 793.409777 392.538475 
C 776.645235 375.773933 753.904446 366.35439 730.195804 366.35439 
C 706.487162 366.35439 683.746373 375.773933 666.981831 392.538475 
C 650.21729 409.303016 640.797747 432.043806 640.797747 455.752448 
C 640.797747 479.46109 650.21729 502.201879 666.981831 518.96642 
C 683.746373 535.730962 706.487162 545.150505 730.195804 545.150505 
z
" style="fill:none;stroke:#000000;stroke-dasharray:3.7,1.6;stroke-dashoffset:0;stroke-linejoin:miter;"/>
   </g>
   <g id="patch_9">
    <path clip-path="url(#p62a3236ee4)" d="M 730.195804 567.854377 
C 759.925583 567.854377 788.44171 556.042611 809.463839 535.020482 
C 830.485967 513.998354 842.297734 485.482227 842.297734 455.752448 
C 842.297734 426.022668 830.485967 397.506542 809.463839 376.484413 
C 788.44171 355.462285 759.925583 343.650518 730.195804 343.650518 
C 700.466025 343.650518 671.949898 355.462285 650.92777 376.484413 
C 629.905641 397.506542 618.093875 426.022668 618.093875 455.752448 
C 618.093875 485.482227 629.905641 513.998354 650.92777 535.020482 
C 671.949898 556.042611 700.466025 567.854377 730.195804 567.854377 
z
" style="fill:none;stroke:#000000;stroke-dasharray:3.7,1.6;stroke-dashoffset:0;stroke-linejoin:miter;"/>
   </g>
   <g id="patch_10">
    <path clip-path="url(#p62a3236ee4)" d="M 730.195804 603.410229 
C 769.355106 603.410229 806.915815 587.852074 834.605623 560.162266 
C 862.29543 532.472458 877.853586 494.911749 877.853586 455.752448 
C 877.853586 416.593146 862.29543 379.032437 834.605623 351.342629 
C 806.915815 323.652822 769.355106 308.094666 730.195804 308.094666 
C 691.036503 308.094666 653.475793 323.652822 625.785986 351.342629 
C 598.096178 379.032437 582.538023 416.593146 582.538023 455.752448 
C 582.538023 494.911749 598.096178 532.472458 625.785986 560.162266 
C 653.475793 587.852074 691.036503 603.410229 730.195804 603.410229 
z
" style="fill:none;stroke:#000000;stroke-dasharray:3.7,1.6;stroke-dashoffset:0;stroke-linejoin:miter;"/>
   </g>
   <g id="patch_11">
    <path clip-path="url(#p62a3236ee4)" d="M 730.195804 621.105832 
C 774.048034 621.105832 816.110094 603.683156 847.118304 572.674947 
C 878.126513 541.666738 895.549189 499.604678 895.549189 455.752448 
C 895.549189 411.900217 878.126513 369.838157 847.118304 338.829948 
C 816.110094 307.821739 774.048034 290.399063 730.195804 290.399063 
C 686.343574 290.399063 644.281514 307.821739 613.273305 338.829948 
C 582.265095 369.838157 564.84242 411.900217 564.84242 455.752448 
C 564.84242 499.604678 582.265095 541.666738 613.273305 572.674947 
C 644.281514 603.683156 686.343574 621.105832 730.195804 621.105832 
z
" style="fill:none;stroke:#000000;stroke-dasharray:3.7,1.6;stroke-dashoffset:0;stroke-linejoin:miter;"/>
   </g>
   <g id="patch_12">
    <path clip-path="url(#p62a3236ee4)" d="M 730.195804 634.220468 
C 777.526077 634.220468 822.924195 615.415952 856.391752 581.948395 
C 889.859308 548.480839 908.663825 503.08272 908.663825 455.752448 
C 908.663825 408.422175 889.859308 363.024056 856.391752 329.5565 
C 822.924195 296.088943 777.526077 277.284427 730.195804 277.284427 
C 682.865532 277.284427 637.467413 296.088943 603.999856 329.5565 
C 570.5323 363.024056 551.727783 408.422175 551.727783 455.752448 
C 551.727783 503.08272 570.5323 548.480839 603.999856 581.948395 
C 637.467413 615.415952 682.865532 634.220468 730.195804 634.220468 
z
" style="fill:none;stroke:#000000;stroke-dasharray:3.7,1.6;stroke-dashoffset:0;stroke-linejoin:miter;"/>
   </g>
   <g id="patch_13">
    <path clip-path="url(#p62a3236ee4)" d="M 730.195804 647.076789 
C 780.935613 647.076789 829.604081 626.917649 865.482543 591.039186 
C 901.361006 555.160724 921.520145 506.492256 921.520145 455.752448 
C 921.520145 405.012639 901.361006 356.344171 865.482543 320.465709 
C 829.604081 284.587246 780.935613 264.428107 730.195804 264.428107 
C 679.455996 264.428107 630.787528 284.587246 594.909065 320.465709 
C 559.030603 356.344171 538.871463 405.012639 538.871463 455.752448 
C 538.871463 506.492256 559.030603 555.160724 594.909065 591.039186 
C 630.787528 626.917649 679.455996 647.076789 730.195804 647.076789 
z
" style="fill:none;stroke:#000000;stroke-dasharray:3.7,1.6;stroke-dashoffset:0;stroke-linejoin:miter;"/>
   </g>
   <g id="patch_14">
    <path clip-path="url(#p62a3236ee4)" d="M 730.195804 661.763371 
C 784.83054 661.763371 837.234933 640.05676 875.867525 601.424168 
C 914.500117 562.791576 936.206727 510.387183 936.206727 455.752448 
C 936.206727 401.117712 914.500117 348.713319 875.867525 310.080727 
C 837.234933 271.448135 784.83054 249.741524 730.195804 249.741524 
C 675.561069 249.741524 623.156675 271.448135 584.524083 310.080727 
C 545.891491 348.713319 524.184881 401.117712 524.184881 455.752448 
C 524.184881 510.387183 545.891491 562.791576 584.524083 601.424168 
C 623.156675 640.05676 675.561069 661.763371 730.195804 661.763371 
z
" style="fill:none;stroke:#000000;stroke-dasharray:3.7,1.6;stroke-dashoffset:0;stroke-linejoin:miter;"/>
   </g>
   <g id="patch_15">
    <path clip-path="url(#p62a3236ee4)" d="M 730.195804 681.499163 
C 790.064533 681.499163 847.489253 657.713065 889.822837 615.379481 
C 932.156421 573.045897 955.942519 515.621176 955.942519 455.752448 
C 955.942519 395.883719 932.156421 338.458999 889.822837 296.125415 
C 847.489253 253.791831 790.064533 230.005733 730.195804 230.005733 
C 670.327076 230.005733 612.902355 253.791831 570.568771 296.125415 
C 528.235187 338.458999 504.449089 395.883719 504.449089 455.752448 
C 504.449089 515.621176 528.235187 573.045897 570.568771 615.379481 
C 612.902355 657.713065 670.327076 681.499163 730.195804 681.499163 
z
" style="fill:none;stroke:#000000;stroke-dasharray:3.7,1.6;stroke-dashoffset:0;stroke-linejoin:miter;"/>
   </g>
   <g id="patch_16">
    <path clip-path="url(#p62a3236ee4)" d="M 730.195804 717.233074 
C 799.541277 717.233074 866.055874 689.681826 915.090528 640.647172 
C 964.125182 591.612518 991.676431 525.09792 991.676431 455.752448 
C 991.676431 386.406975 964.125182 319.892378 915.090528 270.857724 
C 866.055874 221.82307 799.541277 194.271821 730.195804 194.271821 
C 660.850332 194.271821 594.335734 221.82307 545.30108 270.857724 
C 496.266426 319.892378 468.715178 386.406975 468.715178 455.752448 
C 468.715178 525.09792 496.266426 591.612518 545.30108 640.647172 
C 594.335734 689.681826 660.850332 717.233074 730.195804 717.233074 
z
" style="fill:none;stroke:#000000;stroke-dasharray:3.7,1.6;stroke-dashoffset:0;stroke-linejoin:miter;"/>
   </g>
   <g id="patch_17">
    <path clip-path="url(#p62a3236ee4)" d="M 730.195804 738.987325 
C 805.310572 738.987325 877.358945 709.143911 930.473106 656.02975 
C 983.587268 602.915588 1013.430681 530.867215 1013.430681 455.752448 
C 1013.430681 380.63768 983.587268 308.589307 930.473106 255.475145 
C 877.358945 202.360984 805.310572 172.51757 730.195804 172.51757 
C 655.081037 172.51757 583.032663 202.360984 529.918502 255.475145 
C 476.80434 308.589307 446.960927 380.63768 446.960927 455.752448 
C 446.960927 530.867215 476.80434 602.915588 529.918502 656.02975 
C 583.032663 709.143911 655.081037 738.987325 730.195804 738.987325 
z
" style="fill:none;stroke:#000000;stroke-dasharray:3.7,1.6;stroke-dashoffset:0;stroke-linejoin:miter;"/>
   </g>
   <g id="patch_18">
    <path clip-path="url(#p62a3236ee4)" d="M 730.195804 753.101908 
C 809.053803 753.101908 884.692599 721.771293 940.453624 666.010268 
C 996.21465 610.249242 1027.545265 534.610446 1027.545265 455.752448 
C 1027.545265 376.894449 996.21465 301.255653 940.453624 245.494627 
C 884.692599 189.733602 809.053803 158.402987 730.195804 158.402987 
C 651.337805 158.402987 575.69901 189.733602 519.937984 245.494627 
C 464.176958 301.255653 432.846343 376.894449 432.846343 455.752448 
C 432.846343 534.610446 464.176958 610.249242 519.937984 666.010268 
C 575.69901 721.771293 651.337805 753.101908 730.195804 753.101908 
z
" style="fill:none;stroke:#000000;stroke-dasharray:3.7,1.6;stroke-dashoffset:0;stroke-linejoin:miter;"/>
   </g>
   <g id="patch_19">
    <path clip-path="url(#p62a3236ee4)" d="M 730.195804 765.833053 
C 812.430142 765.833053 891.307445 733.161004 949.455903 675.012546 
C 1007.604361 616.864089 1040.27641 537.986785 1040.27641 455.752448 
C 1040.27641 373.51811 1007.604361 294.640807 949.455903 236.492349 
C 891.307445 178.343891 812.430142 145.671842 730.195804 145.671842 
C 647.961466 145.671842 569.084163 178.343891 510.935705 236.492349 
C 452.787247 294.640807 420.115199 373.51811 420.115199 455.752448 
C 420.115199 537.986785 452.787247 616.864089 510.935705 675.012546 
C 569.084163 733.161004 647.961466 765.833053 730.195804 765.833053 
z
" style="fill:none;stroke:#000000;stroke-dasharray:3.7,1.6;stroke-dashoffset:0;stroke-linejoin:miter;"/>
   </g>
   <g id="patch_20">
    <path clip-path="url(#p62a3236ee4)" d="M 730.195804 779.648856 
C 816.094136 779.648856 898.485858 745.521087 959.225151 684.781794 
C 1019.964443 624.042501 1054.092212 541.650779 1054.092212 455.752448 
C 1054.092212 369.854116 1019.964443 287.462394 959.225151 226.723101 
C 898.485858 165.983808 816.094136 131.856039 730.195804 131.856039 
C 644.297473 131.856039 561.90575 165.983808 501.166458 226.723101 
C 440.427165 287.462394 406.299396 369.854116 406.299396 455.752448 
C 406.299396 541.650779 440.427165 624.042501 501.166458 684.781794 
C 561.90575 745.521087 644.297473 779.648856 730.195804 779.648856 
z
" style="fill:none;stroke:#000000;stroke-dasharray:3.7,1.6;stroke-dashoffset:0;stroke-linejoin:miter;"/>
   </g>
   <g id="patch_21">
    <path clip-path="url(#p62a3236ee4)" d="M 730.195804 796.953617 
C 820.683412 796.953617 907.477064 761.00251 971.461465 697.018108 
C 1035.445866 633.033707 1071.396974 546.240055 1071.396974 455.752448 
C 1071.396974 365.26484 1035.445866 278.471188 971.461465 214.486787 
C 907.477064 150.502386 820.683412 114.551278 730.195804 114.551278 
C 639.708196 114.551278 552.914545 150.502386 488.930143 214.486787 
C 424.945742 278.471188 388.994634 365.26484 388.994634 455.752448 
C 388.994634 546.240055 424.945742 633.033707 488.930143 697.018108 
C 552.914545 761.00251 639.708196 796.953617 730.195804 796.953617 
z
" style="fill:none;stroke:#000000;stroke-dasharray:3.7,1.6;stroke-dashoffset:0;stroke-linejoin:miter;"/>
   </g>
   <g id="patch_22">
    <path clip-path="url(#p62a3236ee4)" d="M 730.195804 829.070018 
C 829.200781 829.070018 924.164099 789.734924 994.17119 719.727833 
C 1064.178281 649.720743 1103.513375 554.757425 1103.513375 455.752448 
C 1103.513375 356.74747 1064.178281 261.784152 994.17119 191.777062 
C 924.164099 121.769971 829.200781 82.434877 730.195804 82.434877 
C 631.190827 82.434877 536.227509 121.769971 466.220418 191.777062 
C 396.213328 261.784152 356.878233 356.74747 356.878233 455.752448 
C 356.878233 554.757425 396.213328 649.720743 466.220418 719.727833 
C 536.227509 789.734924 631.190827 829.070018 730.195804 829.070018 
z
" style="fill:none;stroke:#000000;stroke-dasharray:3.7,1.6;stroke-dashoffset:0;stroke-linejoin:miter;"/>
   </g>
   <g id="patch_23">
    <path clip-path="url(#p62a3236ee4)" d="M 730.195804 856.486666 
C 836.471761 856.486666 938.409238 814.262781 1013.557687 739.114331 
C 1088.706137 663.965881 1130.930022 562.028405 1130.930022 455.752448 
C 1130.930022 349.476491 1088.706137 247.539014 1013.557687 172.390564 
C 938.409238 97.242115 836.471761 55.018229 730.195804 55.018229 
C 623.919847 55.018229 521.982371 97.242115 446.833921 172.390564 
C 371.685471 247.539014 329.461586 349.476491 329.461586 455.752448 
C 329.461586 562.028405 371.685471 663.965881 446.833921 739.114331 
C 521.982371 814.262781 623.919847 856.486666 730.195804 856.486666 
z
" style="fill:none;stroke:#000000;stroke-dasharray:3.7,1.6;stroke-dashoffset:0;stroke-linejoin:miter;"/>
   </g>
   <g id="patch_24">
    <path clip-path="url(#p62a3236ee4)" d="M 730.195804 871.842674 
C 840.544222 871.842674 946.387911 828.000783 1024.416025 749.972669 
C 1102.44414 671.944554 1146.286031 566.100866 1146.286031 455.752448 
C 1146.286031 345.404029 1102.44414 239.560341 1024.416025 161.532227 
C 946.387911 83.504112 840.544222 39.662221 730.195804 39.662221 
C 619.847386 39.662221 514.003698 83.504112 435.975583 161.532227 
C 357.947468 239.560341 314.105577 345.404029 314.105577 455.752448 
C 314.105577 566.100866 357.947468 671.944554 435.975583 749.972669 
C 514.003698 828.000783 619.847386 871.842674 730.195804 871.842674 
z
" style="fill:none;stroke:#000000;stroke-dasharray:3.7,1.6;stroke-dashoffset:0;stroke-linejoin:miter;"/>
   </g>
   <g id="patch_25">
    <path clip-path="url(#p62a3236ee4)" d="M 730.195804 884.734358 
C 843.963137 884.734358 953.08617 839.534118 1033.531822 759.088465 
C 1113.977474 678.642813 1159.177715 569.51978 1159.177715 455.752448 
C 1159.177715 341.985115 1113.977474 232.862082 1033.531822 152.41643 
C 953.08617 71.970777 843.963137 26.770537 730.195804 26.770537 
C 616.428472 26.770537 507.305439 71.970777 426.859786 152.41643 
C 346.414134 232.862082 301.213894 341.985115 301.213894 455.752448 
C 301.213894 569.51978 346.414134 678.642813 426.859786 759.088465 
C 507.305439 839.534118 616.428472 884.734358 730.195804 884.734358 
z
" style="fill:none;stroke:#000000;stroke-dasharray:3.7,1.6;stroke-dashoffset:0;stroke-linejoin:miter;"/>
   </g>
   <g id="patch_26">
    <path clip-path="url(#p62a3236ee4)" d="M 730.195804 897.979793 
C 847.475867 897.979793 959.968231 851.38393 1042.897759 768.454402 
C 1125.827287 685.524874 1172.423149 573.03251 1172.423149 455.752448 
C 1172.423149 338.472385 1125.827287 225.980021 1042.897759 143.050493 
C 959.968231 60.120965 847.475867 13.525102 730.195804 13.525102 
C 612.915741 13.525102 500.423377 60.120965 417.49385 143.050493 
C 334.564322 225.980021 287.968459 338.472385 287.968459 455.752448 
C 287.968459 573.03251 334.564322 685.524874 417.49385 768.454402 
C 500.423377 851.38393 612.915741 897.979793 730.195804 897.979793 
z
" style="fill:none;stroke:#000000;stroke-dasharray:3.7,1.6;stroke-dashoffset:0;stroke-linejoin:miter;"/>
   </g>
   <g id="patch_27">
    <path clip-path="url(#p62a3236ee4)" d="M 730.195804 913.693883 
C 851.643292 913.693883 968.132956 865.442284 1054.009299 779.565942 
C 1139.885641 693.689599 1188.13724 577.199936 1188.13724 455.752448 
C 1188.13724 334.304959 1139.885641 217.815296 1054.009299 131.938953 
C 968.132956 46.062611 851.643292 -2.188988 730.195804 -2.188988 
C 608.748316 -2.188988 492.258652 46.062611 406.38231 131.938953 
C 320.505967 217.815296 272.254369 334.304959 272.254369 455.752448 
C 272.254369 577.199936 320.505967 693.689599 406.38231 779.565942 
C 492.258652 865.442284 608.748316 913.693883 730.195804 913.693883 
z
" style="fill:none;stroke:#000000;stroke-dasharray:3.7,1.6;stroke-dashoffset:0;stroke-linejoin:miter;"/>
   </g>
   <g id="patch_28">
    <path clip-path="url(#p62a3236ee4)" d="M 730.195804 940.021619 
C 858.62549 940.021619 981.812318 888.995964 1072.625819 798.182463 
C 1163.439321 707.368961 1214.464976 584.182133 1214.464976 455.752448 
C 1214.464976 327.322762 1163.439321 204.135934 1072.625819 113.322432 
C 981.812318 22.508931 858.62549 -28.516724 730.195804 -28.516724 
C 601.766119 -28.516724 478.579291 22.508931 387.765789 113.322432 
C 296.952287 204.135934 245.926633 327.322762 245.926633 455.752448 
C 245.926633 584.182133 296.952287 707.368961 387.765789 798.182463 
C 478.579291 888.995964 601.766119 940.021619 730.195804 940.021619 
z
" style="fill:none;stroke:#000000;stroke-dasharray:3.7,1.6;stroke-dashoffset:0;stroke-linejoin:miter;"/>
   </g>
   <g id="patch_29">
    <path clip-path="url(#p62a3236ee4)" d="M 730.195804 973.209603 
C 867.427046 973.209603 999.056126 918.687053 1096.093268 821.649911 
C 1193.13041 724.61277 1247.65296 592.983689 1247.65296 455.752448 
C 1247.65296 318.521206 1193.13041 186.892125 1096.093268 89.854984 
C 999.056126 -7.182158 867.427046 -61.704708 730.195804 -61.704708 
C 592.964562 -61.704708 461.335482 -7.182158 364.29834 89.854984 
C 267.261199 186.892125 212.738648 318.521206 212.738648 455.752448 
C 212.738648 592.983689 267.261199 724.61277 364.29834 821.649911 
C 461.335482 918.687053 592.964562 973.209603 730.195804 973.209603 
z
" style="fill:none;stroke:#000000;stroke-dasharray:3.7,1.6;stroke-dashoffset:0;stroke-linejoin:miter;"/>
   </g>
   <g id="patch_30">
    <path clip-path="url(#p62a3236ee4)" d="M 730.195804 990.395135 
C 871.984702 990.395135 1007.985382 934.061808 1108.245274 833.801917 
C 1208.505165 733.542026 1264.838491 597.541346 1264.838491 455.752448 
C 1264.838491 313.96355 1208.505165 177.962869 1108.245274 77.702978 
C 1007.985382 -22.556913 871.984702 -78.890239 730.195804 -78.890239 
C 588.406906 -78.890239 452.406226 -22.556913 352.146335 77.702978 
C 251.886443 177.962869 195.553117 313.96355 195.553117 455.752448 
C 195.553117 597.541346 251.886443 733.542026 352.146335 833.801917 
C 452.406226 934.061808 588.406906 990.395135 730.195804 990.395135 
z
" style="fill:none;stroke:#000000;stroke-dasharray:3.7,1.6;stroke-dashoffset:0;stroke-linejoin:miter;"/>
   </g>
   <g id="patch_31">
    <path clip-path="url(#p62a3236ee4)" d="M 730.195804 1003.681983 
C 875.508416 1003.681983 1014.888962 945.948671 1117.640495 843.197138 
C 1220.392028 740.445605 1278.12534 601.065059 1278.12534 455.752448 
C 1278.12534 310.439836 1220.392028 171.05929 1117.640495 68.307757 
C 1014.888962 -34.443776 875.508416 -92.177088 730.195804 -92.177088 
C 584.883193 -92.177088 445.502647 -34.443776 342.751114 68.307757 
C 239.999581 171.05929 182.266268 310.439836 182.266268 455.752448 
C 182.266268 601.065059 239.999581 740.445605 342.751114 843.197138 
C 445.502647 945.948671 584.883193 1003.681983 730.195804 1003.681983 
z
" style="fill:none;stroke:#000000;stroke-dasharray:3.7,1.6;stroke-dashoffset:0;stroke-linejoin:miter;"/>
   </g>
   <g id="patch_32">
    <path clip-path="url(#p62a3236ee4)" d="M 730.195804 1016.5019 
C 878.908297 1016.5019 1021.549932 957.4178 1126.705544 852.262188 
C 1231.861157 747.106575 1290.945256 604.464941 1290.945256 455.752448 
C 1290.945256 307.039955 1231.861157 164.39832 1126.705544 59.242707 
C 1021.549932 -45.912905 878.908297 -104.997005 730.195804 -104.997005 
C 581.483311 -104.997005 438.841676 -45.912905 333.686064 59.242707 
C 228.530452 164.39832 169.446352 307.039955 169.446352 455.752448 
C 169.446352 604.464941 228.530452 747.106575 333.686064 852.262188 
C 438.841676 957.4178 581.483311 1016.5019 730.195804 1016.5019 
z
" style="fill:none;stroke:#000000;stroke-dasharray:3.7,1.6;stroke-dashoffset:0;stroke-linejoin:miter;"/>
   </g>
   <g id="matplotlib.axis_3">
    <g id="xtick_6">
     <g id="line2d_19">
      <g>
       <use style="stroke:#000000;stroke-width:0.8;" x="827.748252" xlink:href="#m30d6223cce" y="533.794406"/>
      </g>
     </g>
     <g id="text_19">
      <text style="font-family:DejaVu Sans;font-size:10px;font-style:normal;font-weight:normal;text-anchor:middle;" transform="rotate(-0, 827.748252, 548.392843)" x="827.748252" y="548.392843">5</text>
     </g>
    </g>
    <g id="xtick_7">
     <g id="line2d_20">
      <g>
       <use style="stroke:#000000;stroke-width:0.8;" x="925.300699" xlink:href="#m30d6223cce" y="533.794406"/>
      </g>
     </g>
     <g id="text_20">
      <text style="font-family:DejaVu Sans;font-size:10px;font-style:normal;font-weight:normal;text-anchor:middle;" transform="rotate(-0, 925.300699, 548.392843)" x="925.300699" y="548.392843">10</text>
     </g>
    </g>
    <g id="xtick_8">
     <g id="line2d_21">
      <g>
       <use style="stroke:#000000;stroke-width:0.8;" x="1022.853147" xlink:href="#m30d6223cce" y="533.794406"/>
      </g>
     </g>
     <g id="text_21">
      <text style="font-family:DejaVu Sans;font-size:10px;font-style:normal;font-weight:normal;text-anchor:middle;" transform="rotate(-0, 1022.853147, 548.392843)" x="1022.853147" y="548.392843">15</text>
     </g>
    </g>
    <g id="xtick_9">
     <g id="line2d_22">
      <g>
       <use style="stroke:#000000;stroke-width:0.8;" x="1120.405594" xlink:href="#m30d6223cce" y="533.794406"/>
      </g>
     </g>
     <g id="text_22">
      <text style="font-family:DejaVu Sans;font-size:10px;font-style:normal;font-weight:normal;text-anchor:middle;" transform="rotate(-0, 1120.405594, 548.392843)" x="1120.405594" y="548.392843">20</text>
     </g>
    </g>
    <g id="xtick_10">
     <g id="line2d_23">
      <g>
       <use style="stroke:#000000;stroke-width:0.8;" x="1217.958042" xlink:href="#m30d6223cce" y="533.794406"/>
      </g>
     </g>
     <g id="text_23">
      <text style="font-family:DejaVu Sans;font-size:10px;font-style:normal;font-weight:normal;text-anchor:middle;" transform="rotate(-0, 1217.958042, 548.392843)" x="1217.958042" y="548.392843">25</text>
     </g>
    </g>
    <g id="text_24">
     <text style="font-family:DejaVu Sans;font-size:10px;font-style:normal;font-weight:normal;text-anchor:middle;" transform="rotate(-0, 1042.363636, 562.070968)" x="1042.363636" y="562.070968">Coordinates (a.u.)</text>
    </g>
   </g>
   <g id="matplotlib.axis_4">
    <g id="ytick_11">
     <g id="line2d_24">
      <g>
       <use style="stroke:#000000;stroke-width:0.8;" x="788.727273" xlink:href="#m15ec8384c0" y="533.794406"/>
      </g>
     </g>
     <g id="text_25">
      <text style="font-family:DejaVu Sans;font-size:10px;font-style:normal;font-weight:normal;text-anchor:end;" transform="rotate(-0, 781.727273, 537.593624)" x="781.727273" y="537.593624">−4</text>
     </g>
    </g>
    <g id="ytick_12">
     <g id="line2d_25">
      <g>
       <use style="stroke:#000000;stroke-width:0.8;" x="788.727273" xlink:href="#m15ec8384c0" y="494.773427"/>
      </g>
     </g>
     <g id="text_26">
      <text style="font-family:DejaVu Sans;font-size:10px;font-style:normal;font-weight:normal;text-anchor:end;" transform="rotate(-0, 781.727273, 498.572645)" x="781.727273" y="498.572645">−2</text>
     </g>
    </g>
    <g id="ytick_13">
     <g id="line2d_26">
      <g>
       <use style="stroke:#000000;stroke-width:0.8;" x="788.727273" xlink:href="#m15ec8384c0" y="455.752448"/>
      </g>
     </g>
     <g id="text_27">
      <text style="font-family:DejaVu Sans;font-size:10px;font-style:normal;font-weight:normal;text-anchor:end;" transform="rotate(-0, 781.727273, 459.551666)" x="781.727273" y="459.551666">0</text>
     </g>
    </g>
    <g id="ytick_14">
     <g id="line2d_27">
      <g>
       <use style="stroke:#000000;stroke-width:0.8;" x="788.727273" xlink:href="#m15ec8384c0" y="416.731469"/>
      </g>
     </g>
     <g id="text_28">
      <text style="font-family:DejaVu Sans;font-size:10px;font-style:normal;font-weight:normal;text-anchor:end;" transform="rotate(-0, 781.727273, 420.530687)" x="781.727273" y="420.530687">2</text>
     </g>
    </g>
    <g id="ytick_15">
     <g id="line2d_28">
      <g>
       <use style="stroke:#000000;stroke-width:0.8;" x="788.727273" xlink:href="#m15ec8384c0" y="377.71049"/>
      </g>
     </g>
     <g id="text_29">
      <text style="font-family:DejaVu Sans;font-size:10px;font-style:normal;font-weight:normal;text-anchor:end;" transform="rotate(-0, 781.727273, 381.509708)" x="781.727273" y="381.509708">4</text>
     </g>
    </g>
    <g id="ytick_16">
     <g id="line2d_29">
      <g>
       <use style="stroke:#000000;stroke-width:0.8;" x="788.727273" xlink:href="#m15ec8384c0" y="338.68951"/>
      </g>
     </g>
     <g id="text_30">
      <text style="font-family:DejaVu Sans;font-size:10px;font-style:normal;font-weight:normal;text-anchor:end;" transform="rotate(-0, 781.727273, 342.488729)" x="781.727273" y="342.488729">6</text>
     </g>
    </g>
    <g id="ytick_17">
     <g id="line2d_30">
      <g>
       <use style="stroke:#000000;stroke-width:0.8;" x="788.727273" xlink:href="#m15ec8384c0" y="299.668531"/>
      </g>
     </g>
     <g id="text_31">
      <text style="font-family:DejaVu Sans;font-size:10px;font-style:normal;font-weight:normal;text-anchor:end;" transform="rotate(-0, 781.727273, 303.46775)" x="781.727273" y="303.46775">8</text>
     </g>
    </g>
    <g id="ytick_18">
     <g id="line2d_31">
      <g>
       <use style="stroke:#000000;stroke-width:0.8;" x="788.727273" xlink:href="#m15ec8384c0" y="260.647552"/>
      </g>
     </g>
     <g id="text_32">
      <text style="font-family:DejaVu Sans;font-size:10px;font-style:normal;font-weight:normal;text-anchor:end;" transform="rotate(-0, 781.727273, 264.446771)" x="781.727273" y="264.446771">10</text>
     </g>
    </g>
    <g id="ytick_19">
     <g id="line2d_32">
      <g>
       <use style="stroke:#000000;stroke-width:0.8;" x="788.727273" xlink:href="#m15ec8384c0" y="221.626573"/>
      </g>
     </g>
     <g id="text_33">
      <text style="font-family:DejaVu Sans;font-size:10px;font-style:normal;font-weight:normal;text-anchor:end;" transform="rotate(-0, 781.727273, 225.425792)" x="781.727273" y="225.425792">12</text>
     </g>
    </g>
    <g id="ytick_20">
     <g id="line2d_33">
      <g>
       <use style="stroke:#000000;stroke-width:0.8;" x="788.727273" xlink:href="#m15ec8384c0" y="182.605594"/>
      </g>
     </g>
     <g id="text_34">
      <text style="font-family:DejaVu Sans;font-size:10px;font-style:normal;font-weight:normal;text-anchor:end;" transform="rotate(-0, 781.727273, 186.404813)" x="781.727273" y="186.404813">14</text>
     </g>
    </g>
    <g id="text_35">
     <text style="font-family:DejaVu Sans;font-size:10px;font-style:normal;font-weight:normal;text-anchor:middle;" transform="rotate(-90, 760.905398, 358.2)" x="760.905398" y="358.2">Heights (a.u.)</text>
    </g>
   </g>
   <g id="LineCollection_26">
    <path clip-path="url(#p62a3236ee4)" d="M 816.271493 431.607294 
L 816.271493 411.667036 
" style="fill:none;stroke:#808080;stroke-dasharray:5.55,2.4;stroke-dashoffset:0;stroke-width:1.5;"/>
   </g>
   <g id="LineCollection_27">
    <path clip-path="url(#p62a3236ee4)" d="M 833.486631 412.188154 
L 833.486631 402.364641 
" style="fill:none;stroke:#808080;stroke-dasharray:5.55,2.4;stroke-dashoffset:0;stroke-width:1.5;"/>
   </g>
   <g id="LineCollection_28">
    <path clip-path="url(#p62a3236ee4)" d="M 850.701769 393.062246 
L 850.701769 370.422893 
" style="fill:none;stroke:#808080;stroke-dasharray:5.55,2.4;stroke-dashoffset:0;stroke-width:1.5;"/>
   </g>
   <g id="LineCollection_29">
    <path clip-path="url(#p62a3236ee4)" d="M 867.916907 383.75985 
L 867.916907 364.23939 
" style="fill:none;stroke:#808080;stroke-dasharray:5.55,2.4;stroke-dashoffset:0;stroke-width:1.5;"/>
   </g>
   <g id="LineCollection_30">
    <path clip-path="url(#p62a3236ee4)" d="M 885.132044 374.457455 
L 885.132044 367.177079 
" style="fill:none;stroke:#808080;stroke-dasharray:5.55,2.4;stroke-dashoffset:0;stroke-width:1.5;"/>
   </g>
   <g id="LineCollection_31">
    <path clip-path="url(#p62a3236ee4)" d="M 902.347182 372.272471 
L 902.347182 365.15506 
" style="fill:none;stroke:#808080;stroke-dasharray:5.55,2.4;stroke-dashoffset:0;stroke-width:1.5;"/>
   </g>
   <g id="LineCollection_32">
    <path clip-path="url(#p62a3236ee4)" d="M 919.56232 374.630175 
L 919.56232 355.852665 
" style="fill:none;stroke:#808080;stroke-dasharray:5.55,2.4;stroke-dashoffset:0;stroke-width:1.5;"/>
   </g>
   <g id="LineCollection_33">
    <path clip-path="url(#p62a3236ee4)" d="M 936.777458 364.727178 
L 936.777458 346.55027 
" style="fill:none;stroke:#808080;stroke-dasharray:5.55,2.4;stroke-dashoffset:0;stroke-width:1.5;"/>
   </g>
   <g id="LineCollection_34">
    <path clip-path="url(#p62a3236ee4)" d="M 953.992596 337.247874 
L 953.992596 320.522591 
" style="fill:none;stroke:#808080;stroke-dasharray:5.55,2.4;stroke-dashoffset:0;stroke-width:1.5;"/>
   </g>
   <g id="LineCollection_35">
    <path clip-path="url(#p62a3236ee4)" d="M 971.207733 327.945479 
L 971.207733 306.973264 
" style="fill:none;stroke:#808080;stroke-dasharray:5.55,2.4;stroke-dashoffset:0;stroke-width:1.5;"/>
   </g>
   <g id="LineCollection_36">
    <path clip-path="url(#p62a3236ee4)" d="M 988.422871 318.643084 
L 988.422871 308.322859 
" style="fill:none;stroke:#808080;stroke-dasharray:5.55,2.4;stroke-dashoffset:0;stroke-width:1.5;"/>
   </g>
   <g id="LineCollection_37">
    <path clip-path="url(#p62a3236ee4)" d="M 1005.638009 313.339057 
L 1005.638009 309.340689 
" style="fill:none;stroke:#808080;stroke-dasharray:5.55,2.4;stroke-dashoffset:0;stroke-width:1.5;"/>
   </g>
   <g id="LineCollection_38">
    <path clip-path="url(#p62a3236ee4)" d="M 1022.853147 316.970017 
L 1022.853147 300.038293 
" style="fill:none;stroke:#808080;stroke-dasharray:5.55,2.4;stroke-dashoffset:0;stroke-width:1.5;"/>
   </g>
   <g id="LineCollection_39">
    <path clip-path="url(#p62a3236ee4)" d="M 1040.068285 312.933387 
L 1040.068285 290.735898 
" style="fill:none;stroke:#808080;stroke-dasharray:5.55,2.4;stroke-dashoffset:0;stroke-width:1.5;"/>
   </g>
   <g id="LineCollection_40">
    <path clip-path="url(#p62a3236ee4)" d="M 1057.283422 281.433503 
L 1057.283422 275.808849 
" style="fill:none;stroke:#808080;stroke-dasharray:5.55,2.4;stroke-dashoffset:0;stroke-width:1.5;"/>
   </g>
   <g id="LineCollection_41">
    <path clip-path="url(#p62a3236ee4)" d="M 1074.49856 272.131108 
L 1074.49856 250.707268 
" style="fill:none;stroke:#808080;stroke-dasharray:5.55,2.4;stroke-dashoffset:0;stroke-width:1.5;"/>
   </g>
   <g id="LineCollection_42">
    <path clip-path="url(#p62a3236ee4)" d="M 1091.713698 262.828713 
L 1091.713698 249.752716 
" style="fill:none;stroke:#808080;stroke-dasharray:5.55,2.4;stroke-dashoffset:0;stroke-width:1.5;"/>
   </g>
   <g id="LineCollection_43">
    <path clip-path="url(#p62a3236ee4)" d="M 1108.928836 254.290863 
L 1108.928836 253.526317 
" style="fill:none;stroke:#808080;stroke-dasharray:5.55,2.4;stroke-dashoffset:0;stroke-width:1.5;"/>
   </g>
   <g id="LineCollection_44">
    <path clip-path="url(#p62a3236ee4)" d="M 1126.143974 258.800494 
L 1126.143974 244.223922 
" style="fill:none;stroke:#808080;stroke-dasharray:5.55,2.4;stroke-dashoffset:0;stroke-width:1.5;"/>
   </g>
   <g id="LineCollection_45">
    <path clip-path="url(#p62a3236ee4)" d="M 1143.359111 258.251967 
L 1143.359111 234.921527 
" style="fill:none;stroke:#808080;stroke-dasharray:5.55,2.4;stroke-dashoffset:0;stroke-width:1.5;"/>
   </g>
   <g id="LineCollection_46">
    <path clip-path="url(#p62a3236ee4)" d="M 1160.574249 233.736627 
L 1160.574249 225.619132 
" style="fill:none;stroke:#808080;stroke-dasharray:5.55,2.4;stroke-dashoffset:0;stroke-width:1.5;"/>
   </g>
   <g id="LineCollection_47">
    <path clip-path="url(#p62a3236ee4)" d="M 1177.789387 216.316736 
L 1177.789387 196.095188 
" style="fill:none;stroke:#808080;stroke-dasharray:5.55,2.4;stroke-dashoffset:0;stroke-width:1.5;"/>
   </g>
   <g id="LineCollection_48">
    <path clip-path="url(#p62a3236ee4)" d="M 1195.004525 207.014341 
L 1195.004525 191.563773 
" style="fill:none;stroke:#808080;stroke-dasharray:5.55,2.4;stroke-dashoffset:0;stroke-width:1.5;"/>
   </g>
   <g id="LineCollection_49">
    <path clip-path="url(#p62a3236ee4)" d="M 1212.219663 197.711946 
L 1212.219663 195.214972 
" style="fill:none;stroke:#808080;stroke-dasharray:5.55,2.4;stroke-dashoffset:0;stroke-width:1.5;"/>
   </g>
   <g id="LineCollection_50">
    <path clip-path="url(#p62a3236ee4)" d="M 1229.4348 200.408811 
L 1229.4348 188.409551 
" style="fill:none;stroke:#808080;stroke-dasharray:5.55,2.4;stroke-dashoffset:0;stroke-width:1.5;"/>
   </g>
   <g id="line2d_34">
    <path clip-path="url(#p62a3236ee4)" d="M 816.271493 431.607294 
L 833.486631 412.188154 
L 850.701769 370.422893 
L 867.916907 364.23939 
L 885.132044 367.177079 
L 902.347182 372.272471 
L 919.56232 374.630175 
L 936.777458 364.727178 
L 953.992596 320.522591 
L 971.207733 306.973264 
L 988.422871 308.322859 
L 1005.638009 313.339057 
L 1022.853147 316.970017 
L 1040.068285 312.933387 
L 1057.283422 275.808849 
L 1074.49856 250.707268 
L 1091.713698 249.752716 
L 1108.928836 254.290863 
L 1126.143974 258.800494 
L 1143.359111 258.251967 
L 1160.574249 233.736627 
L 1177.789387 196.095188 
L 1195.004525 191.563773 
L 1212.219663 195.214972 
L 1229.4348 200.408811 
" style="fill:none;stroke:#808080;stroke-linecap:square;stroke-width:1.5;"/>
    <g clip-path="url(#p62a3236ee4)">
     <use style="fill:#808080;stroke:#808080;" x="816.271493" xlink:href="#m4061101df1" y="431.607294"/>
     <use style="fill:#808080;stroke:#808080;" x="833.486631" xlink:href="#m4061101df1" y="412.188154"/>
     <use style="fill:#808080;stroke:#808080;" x="850.701769" xlink:href="#m4061101df1" y="370.422893"/>
     <use style="fill:#808080;stroke:#808080;" x="867.916907" xlink:href="#m4061101df1" y="364.23939"/>
     <use style="fill:#808080;stroke:#808080;" x="885.132044" xlink:href="#m4061101df1" y="367.177079"/>
     <use style="fill:#808080;stroke:#808080;" x="902.347182" xlink:href="#m4061101df1" y="372.272471"/>
     <use style="fill:#808080;stroke:#808080;" x="919.56232" xlink:href="#m4061101df1" y="374.630175"/>
     <use style="fill:#808080;stroke:#808080;" x="936.777458" xlink:href="#m4061101df1" y="364.727178"/>
     <use style="fill:#808080;stroke:#808080;" x="953.992596" xlink:href="#m4061101df1" y="320.522591"/>
     <use style="fill:#808080;stroke:#808080;" x="971.207733" xlink:href="#m4061101df1" y="306.973264"/>
     <use style="fill:#808080;stroke:#808080;" x="988.422871" xlink:href="#m4061101df1" y="308.322859"/>
     <use style="fill:#808080;stroke:#808080;" x="1005.638009" xlink:href="#m4061101df1" y="313.339057"/>
     <use style="fill:#808080;stroke:#808080;" x="1022.853147" xlink:href="#m4061101df1" y="316.970017"/>
     <use style="fill:#808080;stroke:#808080;" x="1040.068285" xlink:href="#m4061101df1" y="312.933387"/>
     <use style="fill:#808080;stroke:#808080;" x="1057.283422" xlink:href="#m4061101df1" y="275.808849"/>
     <use style="fill:#808080;stroke:#808080;" x="1074.49856" xlink:href="#m4061101df1" y="250.707268"/>
     <use style="fill:#808080;stroke:#808080;" x="1091.713698" xlink:href="#m4061101df1" y="249.752716"/>
     <use style="fill:#808080;stroke:#808080;" x="1108.928836" xlink:href="#m4061101df1" y="254.290863"/>
     <use style="fill:#808080;stroke:#808080;" x="1126.143974" xlink:href="#m4061101df1" y="258.800494"/>
     <use style="fill:#808080;stroke:#808080;" x="1143.359111" xlink:href="#m4061101df1" y="258.251967"/>
     <use style="fill:#808080;stroke:#808080;" x="1160.574249" xlink:href="#m4061101df1" y="233.736627"/>
     <use style="fill:#808080;stroke:#808080;" x="1177.789387" xlink:href="#m4061101df1" y="196.095188"/>
     <use style="fill:#808080;stroke:#808080;" x="1195.004525" xlink:href="#m4061101df1" y="191.563773"/>
     <use style="fill:#808080;stroke:#808080;" x="1212.219663" xlink:href="#m4061101df1" y="195.214972"/>
     <use style="fill:#808080;stroke:#808080;" x="1229.4348" xlink:href="#m4061101df1" y="200.408811"/>
    </g>
   </g>
   <g id="line2d_35">
    <path clip-path="url(#p62a3236ee4)" d="M 816.271493 411.667036 
L 833.486631 402.364641 
L 850.701769 393.062246 
L 867.916907 383.75985 
L 885.132044 374.457455 
L 902.347182 365.15506 
L 919.56232 355.852665 
L 936.777458 346.55027 
L 953.992596 337.247874 
L 971.207733 327.945479 
L 988.422871 318.643084 
L 1005.638009 309.340689 
L 1022.853147 300.038293 
L 1040.068285 290.735898 
L 1057.283422 281.433503 
L 1074.49856 272.131108 
L 1091.713698 262.828713 
L 1108.928836 253.526317 
L 1126.143974 244.223922 
L 1143.359111 234.921527 
L 1160.574249 225.619132 
L 1177.789387 216.316736 
L 1195.004525 207.014341 
L 1212.219663 197.711946 
L 1229.4348 188.409551 
" style="fill:none;stroke:#808080;stroke-dasharray:5.55,2.4;stroke-dashoffset:0;stroke-width:1.5;"/>
   </g>
   <g id="line2d_36">
    <path clip-path="url(#p62a3236ee4)" d="M 818.411054 470.246665 
L 842.220151 459.922379 
L 875.473126 429.345629 
L 893.688601 431.016904 
L 908.049293 440.954786 
L 921.498101 452.848211 
L 936.103906 462.260448 
L 955.891307 460.560716 
L 990.175186 427.773187 
L 1011.503593 422.768757 
L 1026.535442 431.267337 
L 1040.017719 443.088989 
L 1054.085422 453.655188 
L 1071.393589 457.27219 
L 1102.685311 430.901364 
L 1128.895911 415.427037 
L 1144.901535 421.837351 
L 1158.585845 433.22574 
L 1172.282206 444.588286 
L 1188.116237 451.366583 
L 1214.079081 436.423571 
L 1245.589254 409.584273 
L 1263.106526 412.752848 
L 1277.165676 423.33739 
L 1290.572878 435.320038 
" style="fill:none;stroke:#000000;stroke-linecap:square;stroke-width:1.5;"/>
    <g clip-path="url(#p62a3236ee4)">
     <use style="stroke:#000000;" x="818.411054" xlink:href="#m50dfd47742" y="470.246665"/>
     <use style="stroke:#000000;" x="842.220151" xlink:href="#m50dfd47742" y="459.922379"/>
     <use style="stroke:#000000;" x="875.473126" xlink:href="#m50dfd47742" y="429.345629"/>
     <use style="stroke:#000000;" x="893.688601" xlink:href="#m50dfd47742" y="431.016904"/>
     <use style="stroke:#000000;" x="908.049293" xlink:href="#m50dfd47742" y="440.954786"/>
     <use style="stroke:#000000;" x="921.498101" xlink:href="#m50dfd47742" y="452.848211"/>
     <use style="stroke:#000000;" x="936.103906" xlink:href="#m50dfd47742" y="462.260448"/>
     <use style="stroke:#000000;" x="955.891307" xlink:href="#m50dfd47742" y="460.560716"/>
     <use style="stroke:#000000;" x="990.175186" xlink:href="#m50dfd47742" y="427.773187"/>
     <use style="stroke:#000000;" x="1011.503593" xlink:href="#m50dfd47742" y="422.768757"/>
     <use style="stroke:#000000;" x="1026.535442" xlink:href="#m50dfd47742" y="431.267337"/>
     <use style="stroke:#000000;" x="1040.017719" xlink:href="#m50dfd47742" y="443.088989"/>
     <use style="stroke:#000000;" x="1054.085422" xlink:href="#m50dfd47742" y="453.655188"/>
     <use style="stroke:#000000;" x="1071.393589" xlink:href="#m50dfd47742" y="457.27219"/>
     <use style="stroke:#000000;" x="1102.685311" xlink:href="#m50dfd47742" y="430.901364"/>
     <use style="stroke:#000000;" x="1128.895911" xlink:href="#m50dfd47742" y="415.427037"/>
     <use style="stroke:#000000;" x="1144.901535" xlink:href="#m50dfd47742" y="421.837351"/>
     <use style="stroke:#000000;" x="1158.585845" xlink:href="#m50dfd47742" y="433.22574"/>
     <use style="stroke:#000000;" x="1172.282206" xlink:href="#m50dfd47742" y="444.588286"/>
     <use style="stroke:#000000;" x="1188.116237" xlink:href="#m50dfd47742" y="451.366583"/>
     <use style="stroke:#000000;" x="1214.079081" xlink:href="#m50dfd47742" y="436.423571"/>
     <use style="stroke:#000000;" x="1245.589254" xlink:href="#m50dfd47742" y="409.584273"/>
     <use style="stroke:#000000;" x="1263.106526" xlink:href="#m50dfd47742" y="412.752848"/>
     <use style="stroke:#000000;" x="1277.165676" xlink:href="#m50dfd47742" y="423.33739"/>
     <use style="stroke:#000000;" x="1290.572878" xlink:href="#m50dfd47742" y="435.320038"/>
    </g>
   </g>
   <g id="patch_33">
    <path d="M 788.727273 533.794406 
L 788.727273 182.605594 
" style="fill:none;stroke:#000000;stroke-linecap:square;stroke-linejoin:miter;stroke-width:0.8;"/>
   </g>
   <g id="patch_34">
    <path d="M 1296 533.794406 
L 1296 182.605594 
" style="fill:none;stroke:#000000;stroke-linecap:square;stroke-linejoin:miter;stroke-width:0.8;"/>
   </g>
   <g id="patch_35">
    <path d="M 788.727273 533.794406 
L 1296 533.794406 
" style="fill:none;stroke:#000000;stroke-linecap:square;stroke-linejoin:miter;stroke-width:0.8;"/>
   </g>
   <g id="patch_36">
    <path d="M 788.727273 182.605594 
L 1296 182.605594 
" style="fill:none;stroke:#000000;stroke-linecap:square;stroke-linejoin:miter;stroke-width:0.8;"/>
   </g>
   <g id="text_36">
    <text style="font-family:DejaVu Sans;font-size:12px;font-style:normal;font-weight:normal;text-anchor:middle;" transform="rotate(-0, 1042.363636, 176.605594)" x="1042.363636" y="176.605594">Rotation</text>
   </g>
  </g>
 </g>
 <defs>
  <clipPath id="p38a8f34a7e">
   <rect height="351.188811" width="507.272727" x="180" y="182.605594"/>
  </clipPath>
  <clipPath id="p62a3236ee4">
   <rect height="351.188811" width="507.272727" x="788.727273" y="182.605594"/>
  </clipPath>
 </defs>
</svg>
